<?xml version="1.0" encoding="UTF-8" standalone="no"?>
<svg
   xmlns:dc="http://purl.org/dc/elements/1.1/"
   xmlns:cc="http://creativecommons.org/ns#"
   xmlns:rdf="http://www.w3.org/1999/02/22-rdf-syntax-ns#"
   xmlns:svg="http://www.w3.org/2000/svg"
   xmlns="http://www.w3.org/2000/svg"
   xmlns:xlink="http://www.w3.org/1999/xlink"
   xmlns:sodipodi="http://sodipodi.sourceforge.net/DTD/sodipodi-0.dtd"
   xmlns:inkscape="http://www.inkscape.org/namespaces/inkscape"
   viewBox="0 0 596.59 164.71"
   id="svg2"
   version="1.1"
   inkscape:version="0.91 r13725"
   sodipodi:docname="button-menu_hover.svg">
  <metadata
     id="metadata200">
    <rdf:RDF>
      <cc:Work
         rdf:about="">
        <dc:format>image/svg+xml</dc:format>
        <dc:type
           rdf:resource="http://purl.org/dc/dcmitype/StillImage" />
        <dc:title>Asset 1</dc:title>
      </cc:Work>
    </rdf:RDF>
  </metadata>
  <sodipodi:namedview
     pagecolor="#ffffff"
     bordercolor="#666666"
     borderopacity="1"
     objecttolerance="10"
     gridtolerance="10"
     guidetolerance="10"
     inkscape:pageopacity="0"
     inkscape:pageshadow="2"
     inkscape:window-width="1920"
     inkscape:window-height="1017"
     id="namedview198"
     showgrid="false"
     inkscape:zoom="1.8015761"
     inkscape:cx="290.03912"
     inkscape:cy="113.96854"
     inkscape:window-x="1912"
     inkscape:window-y="-8"
     inkscape:window-maximized="1"
     inkscape:current-layer="svg2" />
  <defs
     id="defs4">
    <style
       id="style6">.cls-1{fill:url(#radial-gradient);}.cls-2{fill:url(#radial-gradient-2);}.cls-3{fill:url(#radial-gradient-3);}.cls-4{fill:url(#radial-gradient-4);}.cls-5{isolation:isolate;}.cls-6{fill:#595959;}.cls-7{fill:#333;}.cls-8{fill:url(#radial-gradient-5);}.cls-10,.cls-9{mix-blend-mode:screen;}.cls-9{fill:url(#linear-gradient);}.cls-10{fill:url(#linear-gradient-2);}.cls-11{mask:url(#mask);}.cls-12{fill:#fff;}.cls-13{mask:url(#mask-2);}.cls-14{fill:url(#linear-gradient-3);}.cls-15{mask:url(#mask-3);}.cls-16{fill:url(#linear-gradient-4);}.cls-17{opacity:0.51;}.cls-18{fill:url(#linear-gradient-5);}.cls-19{fill:url(#linear-gradient-6);}.cls-20{mask:url(#mask-4);}.cls-21{fill:url(#linear-gradient-7);}.cls-22{fill:url(#linear-gradient-8);}</style>
    <radialGradient
       id="radial-gradient"
       cx="1576.4"
       cy="1681.65"
       r="10.92"
       gradientTransform="matrix(37.89, 0, 0, 0.68, -59436.02, -1127.25)"
       gradientUnits="userSpaceOnUse">
      <stop
         offset="0"
         stop-color="#fff"
         id="stop9" />
      <stop
         offset="0.06"
         stop-color="#dadada"
         id="stop11" />
      <stop
         offset="0.15"
         stop-color="#a7a7a7"
         id="stop13" />
      <stop
         offset="0.24"
         stop-color="#7b7b7b"
         id="stop15" />
      <stop
         offset="0.34"
         stop-color="#555"
         id="stop17" />
      <stop
         offset="0.44"
         stop-color="#363636"
         id="stop19" />
      <stop
         offset="0.55"
         stop-color="#1e1e1e"
         id="stop21" />
      <stop
         offset="0.66"
         stop-color="#0d0d0d"
         id="stop23" />
      <stop
         offset="0.78"
         stop-color="#030303"
         id="stop25" />
      <stop
         offset="0.93"
         id="stop27" />
    </radialGradient>
    <radialGradient
       id="radial-gradient-2"
       cx="1576.4"
       cy="1859.54"
       r="10.92"
       xlink:href="#radial-gradient" />
    <radialGradient
       id="radial-gradient-3"
       cx="1484.53"
       cy="7117.28"
       r="12.11"
       gradientTransform="matrix(-0.04, -21.23, -0.35, 0, 2603, 31766.22)"
       xlink:href="#radial-gradient" />
    <radialGradient
       id="radial-gradient-4"
       cx="1484.5"
       cy="5908.56"
       r="12.11"
       gradientTransform="matrix(-0.04, -21.23, -0.35, 0, 2603, 31766.22)"
       xlink:href="#radial-gradient" />
    <radialGradient
       id="radial-gradient-5"
       cx="94.5"
       cy="81.9"
       r="176.05"
       gradientTransform="translate(181.33 -1.35) scale(1.24 1.01)"
       gradientUnits="userSpaceOnUse">
      <stop
         offset="0.01"
         stop-color="#66717a"
         id="stop33" />
      <stop
         offset="0.32"
         stop-color="#555e66"
         id="stop35" />
      <stop
         offset="0.48"
         stop-color="#4b545d"
         id="stop37" />
      <stop
         offset="0.74"
         stop-color="#303b43"
         id="stop39" />
      <stop
         offset="1"
         stop-color="#0f1b24"
         id="stop41" />
    </radialGradient>
    <linearGradient
       id="linear-gradient"
       x1="-55.76"
       y1="81.16"
       x2="477.97"
       y2="81.16"
       gradientTransform="translate(63.41) scale(1.11 1)"
       gradientUnits="userSpaceOnUse">
      <stop
         offset="0"
         stop-color="#424242"
         id="stop44" />
      <stop
         offset="0.03"
         stop-color="#7a7a7a"
         id="stop46" />
      <stop
         offset="0.03"
         stop-color="#767676"
         id="stop48" />
      <stop
         offset="0.04"
         stop-color="#565656"
         id="stop50" />
      <stop
         offset="0.05"
         stop-color="#3b3b3b"
         id="stop52" />
      <stop
         offset="0.06"
         stop-color="#252525"
         id="stop54" />
      <stop
         offset="0.08"
         stop-color="#141414"
         id="stop56" />
      <stop
         offset="0.1"
         stop-color="#090909"
         id="stop58" />
      <stop
         offset="0.13"
         stop-color="#020202"
         id="stop60" />
      <stop
         offset="0.2"
         id="stop62" />
    </linearGradient>
    <linearGradient
       id="linear-gradient-2"
       x1="-55.76"
       y1="81.16"
       x2="477.97"
       y2="81.16"
       gradientTransform="translate(63.41) scale(1.11 1)"
       gradientUnits="userSpaceOnUse">
      <stop
         offset="0.8"
         id="stop65" />
      <stop
         offset="0.87"
         stop-color="#020202"
         id="stop67" />
      <stop
         offset="0.9"
         stop-color="#090909"
         id="stop69" />
      <stop
         offset="0.92"
         stop-color="#141414"
         id="stop71" />
      <stop
         offset="0.94"
         stop-color="#252525"
         id="stop73" />
      <stop
         offset="0.95"
         stop-color="#3b3b3b"
         id="stop75" />
      <stop
         offset="0.96"
         stop-color="#565656"
         id="stop77" />
      <stop
         offset="0.97"
         stop-color="#767676"
         id="stop79" />
      <stop
         offset="0.97"
         stop-color="#7a7a7a"
         id="stop81" />
      <stop
         offset="1"
         stop-color="#424242"
         id="stop83" />
    </linearGradient>
    <mask
       id="mask"
       x="-112.78"
       y="13.37"
       width="827.73"
       height="14.95"
       maskUnits="userSpaceOnUse">
      <path
         class="cls-1"
         d="M715,20.82c0,4.13-185.29,7.49-413.86,7.5S-112.76,25-112.78,20.86s185.29-7.49,413.87-7.49S715,16.69,715,20.82Z"
         id="path86" />
    </mask>
    <mask
       id="mask-2"
       x="-112.78"
       y="135.14"
       width="827.73"
       height="14.95"
       maskUnits="userSpaceOnUse">
      <path
         class="cls-2"
         d="M715,142.59c0,4.13-185.29,7.49-413.86,7.5s-413.85-3.32-413.87-7.45,185.29-7.49,413.87-7.49S715,138.46,715,142.59Z"
         id="path89" />
    </mask>
    <linearGradient
       id="linear-gradient-3"
       x1="-54.13"
       y1="1136.69"
       x2="-46.56"
       y2="1153.8"
       gradientTransform="translate(1191.77 63.1) rotate(90)"
       gradientUnits="userSpaceOnUse">
      <stop
         offset="0"
         id="stop92" />
      <stop
         offset="1"
         stop-color="#4d4d4d"
         id="stop94" />
    </linearGradient>
    <mask
       id="mask-3"
       x="54.87"
       y="0"
       width="8.51"
       height="514.09"
       maskUnits="userSpaceOnUse">
      <path
         class="cls-3"
         d="M58.64,0c-2.33,0-4,115.09-3.74,257s2.37,257,4.71,257S63.62,399,63.35,257,61,0,58.64,0Z"
         id="path97" />
    </mask>
    <linearGradient
       id="linear-gradient-4"
       x1="1228.08"
       y1="1134.51"
       x2="1239.8"
       y2="1154.04"
       gradientTransform="matrix(0, -1, -1, 0, 1191.77, 1388.43)"
       gradientUnits="userSpaceOnUse">
      <stop
         offset="0"
         id="stop100" />
      <stop
         offset="0.8"
         stop-color="#4d4d4d"
         id="stop102" />
    </linearGradient>
    <linearGradient
       id="linear-gradient-5"
       x1="1223.31"
       y1="1108.82"
       x2="1381.33"
       y2="1108.82"
       gradientTransform="matrix(0, -1, -1, 0, 1191.77, 1388.43)"
       gradientUnits="userSpaceOnUse">
      <stop
         offset="0"
         stop-color="#825f37"
         id="stop105" />
      <stop
         offset="0.04"
         stop-color="#fff0c9"
         id="stop107" />
      <stop
         offset="0.12"
         stop-color="#825f37"
         id="stop109" />
      <stop
         offset="0.44"
         stop-color="#d9c493"
         id="stop111" />
      <stop
         offset="0.44"
         stop-color="#d9c493"
         id="stop113" />
      <stop
         offset="0.54"
         stop-color="#c2a97f"
         id="stop115" />
      <stop
         offset="0.59"
         stop-color="#b99f78"
         id="stop117" />
      <stop
         offset="0.84"
         stop-color="#825f37"
         id="stop119" />
      <stop
         offset="0.95"
         stop-color="#fff0c9"
         id="stop121" />
      <stop
         offset="1"
         stop-color="#5c442c"
         id="stop123" />
    </linearGradient>
    <linearGradient
       id="linear-gradient-6"
       x1="-54.13"
       y1="714.72"
       x2="-46.56"
       y2="731.83"
       xlink:href="#linear-gradient-3" />
    <mask
       id="mask-4"
       x="476.84"
       y="0"
       width="8.51"
       height="514.09"
       maskUnits="userSpaceOnUse">
      <path
         class="cls-4"
         d="M480.61,0c-2.33,0-4,115.09-3.74,257s2.37,257,4.71,257,4-115.09,3.75-257.05S482.94,0,480.61,0Z"
         id="path127" />
    </mask>
    <linearGradient
       id="linear-gradient-7"
       x1="1228.08"
       y1="712.54"
       x2="1239.8"
       y2="732.07"
       xlink:href="#linear-gradient-4" />
    <linearGradient
       id="linear-gradient-8"
       x1="1223.31"
       y1="686.86"
       x2="1381.33"
       y2="686.86"
       xlink:href="#linear-gradient-5" />
    <filter
       style="color-interpolation-filters:sRGB;"
       inkscape:label="Lightness-Contrast"
       id="filter5420">
      <feColorMatrix
         values="1 0 0 0.0501 -0 0 1 0 0.0501 -0 0 0 1 0.0501 -0 0 0 0 1 0"
         id="feColorMatrix5422" />
    </filter>
  </defs>
  <title
     id="title131">Asset 1</title>
  <g
     class="cls-5"
     id="g133"
     style="filter:url(#filter5420)">
    <g
       id="Layer_2"
       data-name="Layer 2">
      <g
         id="Layer_1-2"
         data-name="Layer 1">
        <g
           id="banner1">
          <path
             class="cls-6"
             d="M566.39,14.81H30.56c-15.91,0-28.82,10.44-28.82,23.32v86.6C1.75,137.6,14.65,148,30.56,148H566.39c15.92,0,28.82-10.44,28.82-23.31V38.13C595.21,25.25,582.31,14.81,566.39,14.81Z"
             id="path138" />
          <path
             class="cls-7"
             d="M566.39,16.61H30.56c-15.91,0-28.82,10.44-28.82,23.31v86.61c0,12.87,12.9,23.31,28.82,23.31H566.39c15.92,0,28.82-10.44,28.82-23.31V39.93C595.21,27.05,582.31,16.61,566.39,16.61Z"
             id="path140" />
          <path
             class="cls-8"
             d="M566.05,14.54H30.23C14.32,14.54,1.41,25,1.41,37.86v86.6c0,12.87,12.9,23.31,28.82,23.31H566.05c15.92,0,28.82-10.44,28.82-23.31V37.86C594.87,25,582,14.54,566.05,14.54Z"
             id="path142" />
          <path
             class="cls-9"
             d="M566.05,14.54H30.23C14.32,14.54,1.41,25,1.41,37.86v86.6c0,12.87,12.9,23.31,28.82,23.31H566.05c15.92,0,28.82-10.44,28.82-23.31V37.86C594.87,25,582,14.54,566.05,14.54Z"
             id="path144" />
          <path
             class="cls-10"
             d="M566.05,14.54H30.23C14.32,14.54,1.41,25,1.41,37.86v86.6c0,12.87,12.9,23.31,28.82,23.31H566.05c15.92,0,28.82-10.44,28.82-23.31V37.86C594.87,25,582,14.54,566.05,14.54Z"
             id="path146" />
          <g
             class="cls-11"
             id="g148"
             mask="url(#mask)">
            <path
               class="cls-12"
               d="M301.09,13.37c-118.66,0-225.63.91-301.09,2.36V26c75.46,1.44,182.43,2.34,301.09,2.33,115.75,0,220.39-.87,295.5-2.26V15.6C521.48,14.22,416.84,13.36,301.09,13.37Z"
               id="path150" />
          </g>
          <g
             class="cls-13"
             id="g152"
             mask="url(#mask-2)">
            <path
               class="cls-12"
               d="M301.09,135.14C182.43,135.14,75.46,136,0,137.5v10.26c75.46,1.44,182.43,2.33,301.09,2.33,115.75,0,220.39-.87,295.5-2.25V137.37C521.48,136,416.84,135.13,301.09,135.14Z"
               id="path154" />
          </g>
          <g
             id="bar2">
            <path
               class="cls-14"
               d="M56.85,14.29c-.53-5-1.92-7.42-10.31-7.25-3.22.06-7,4.05-8.51,7.29Z"
               id="path157" />
            <path
               d="M128.43,23.36V47.89H55.55V31.44S56,13.9,48,9.33l.62-2.54h68.15S127.34,6,128.43,23.36Z"
               id="path159" />
            <path
               class="cls-12"
               d="M130.67,23.36V47.89H57.79V31.44s1.27-20.13-9.83-22V6.8l.12,0H119S129.58,6,130.67,23.36Z"
               id="path161" />
            <g
               class="cls-15"
               id="g163"
               mask="url(#mask-3)">
              <path
                 class="cls-12"
                 d="M61.19,47.89H56.27C56.91,17.75,57.73,0,58.64,0S60.44,17.75,61.19,47.89Z"
                 id="path165" />
            </g>
            <path
               class="cls-16"
               d="M57.49,149.86c-.61,9-2.24,12.91-12,13-5,.06-8.14-6-9.37-13.08Z"
               id="path167" />
            <path
               class="cls-17"
               d="M128.42,23.36V47.89h0V148.12c-1.22,17.39-13,16.58-13,16.58H52.56l-12.28-4c7-4.45,6.61-20.7,6.61-20.7V47.89h0V31.44s.4-16.25-6.61-20.7l12.28-4H115.4S127.2,6,128.42,23.36Z"
               id="path169" />
            <path
               d="M128.43,47.89V148.12c-1.09,17.39-11.64,16.58-11.64,16.58H48.64L48,162.15C56,157.58,55.55,140,55.55,140V47.89Z"
               id="path171" />
            <path
               class="cls-12"
               d="M130.67,47.89V148.12C129.58,165.51,119,164.7,119,164.7H48.09l-.12,0V162c11.09-1.86,9.83-22,9.83-22V47.89Z"
               id="path173" />
            <path
               class="cls-18"
               d="M118.24,6.78l-70.83-.1c-4.41.39-7.8,3.73-9.34,7.56l1.47-2.05c2.17-3,6.91-2.86,6.91-2.86C58.34,10.42,57,31.44,57,31.44V140s1.33,21-10.55,22.1c0,0-7.49.53-10-12.34H36c1,6.7,3.73,14.24,11.28,14.9h70.94s10.55.81,11.64-16.58V23.36C128.79,6,118.24,6.78,118.24,6.78Z"
               id="path175" />
          </g>
          <g
             id="bar1">
            <path
               class="cls-19"
               d="M478.82,14.29c-.53-5-1.92-7.42-10.31-7.25-3.23.06-7,4.05-8.51,7.29Z"
               id="path178" />
            <path
               d="M550.39,23.36V47.89H477.52V31.44S477.93,13.9,470,9.33l.62-2.54h68.15S549.3,6,550.39,23.36Z"
               id="path180" />
            <path
               class="cls-12"
               d="M552.63,23.36V47.89H479.76V31.44s1.27-20.13-9.82-22V6.8l.12,0H541S551.54,6,552.63,23.36Z"
               id="path182" />
            <g
               class="cls-20"
               id="g184"
               mask="url(#mask-4)">
              <path
                 class="cls-12"
                 d="M483.16,47.89h-4.91C478.88,17.75,479.69,0,480.61,0S482.4,17.75,483.16,47.89Z"
                 id="path186" />
            </g>
            <path
               class="cls-21"
               d="M479.46,149.86c-.61,9-2.24,12.91-12,13-5,.06-8.14-6-9.37-13.08Z"
               id="path188" />
            <path
               class="cls-17"
               d="M550.38,23.36V47.89h0V148.12c-1.22,17.39-13,16.58-13,16.58H474.53l-12.28-4c7-4.45,6.61-20.7,6.61-20.7V47.89h0V31.44s.39-16.25-6.61-20.7l12.28-4h62.83S549.16,6,550.38,23.36Z"
               id="path190" />
            <path
               d="M550.39,47.89V148.12c-1.09,17.39-11.64,16.58-11.64,16.58H470.6l-.62-2.55c7.94-4.57,7.53-22.12,7.53-22.12V47.89Z"
               id="path192" />
            <path
               class="cls-12"
               d="M552.63,47.89V148.12C551.54,165.51,541,164.7,541,164.7H470.06l-.12,0V162c11.09-1.86,9.82-22,9.82-22V47.89Z"
               id="path194" />
            <path
               class="cls-22"
               d="M540.21,6.78l-70.82-.1c-4.41.39-7.8,3.73-9.34,7.56l1.47-2.05c2.18-3,6.91-2.86,6.91-2.86C480.31,10.42,479,31.44,479,31.44V140s1.34,21-10.55,22.1c0,0-7.49.53-10-12.34H458c1,6.7,3.73,14.24,11.28,14.9h70.94s10.55.81,11.64-16.58V23.36C550.76,6,540.21,6.78,540.21,6.78Z"
               id="path196" />
          </g>
        </g>
      </g>
    </g>
  </g>
</svg>
