<?xml version="1.0" encoding="UTF-8" standalone="no"?>
<!-- Generator: Adobe Illustrator 20.1.0, SVG Export Plug-In . SVG Version: 6.00 Build 0)  -->

<svg
   xmlns:dc="http://purl.org/dc/elements/1.1/"
   xmlns:cc="http://creativecommons.org/ns#"
   xmlns:rdf="http://www.w3.org/1999/02/22-rdf-syntax-ns#"
   xmlns:svg="http://www.w3.org/2000/svg"
   xmlns="http://www.w3.org/2000/svg"
   xmlns:sodipodi="http://sodipodi.sourceforge.net/DTD/sodipodi-0.dtd"
   xmlns:inkscape="http://www.inkscape.org/namespaces/inkscape"
   version="1.1"
   id="Layer_1"
   inkscape:version="0.91 r13725"
   sodipodi:docname="game__button-pause.svg"
   x="0px"
   y="0px"
   viewBox="0 0 149.94068 150.47443"
   xml:space="preserve"
   width="149.94069"
   height="150.47443"><metadata
     id="metadata120"><rdf:RDF><cc:Work
         rdf:about=""><dc:format>image/svg+xml</dc:format><dc:type
           rdf:resource="http://purl.org/dc/dcmitype/StillImage" /><dc:title /></cc:Work></rdf:RDF></metadata><defs
     id="defs118"><filter
       style="color-interpolation-filters:sRGB;"
       inkscape:label="Lightness-Contrast"
       id="filter4223"><feColorMatrix
         values="1 0 0 0.0505 -0 0 1 0 0.0505 -0 0 0 1 0.0505 -0 0 0 0 1 0"
         id="feColorMatrix4225" /></filter></defs><style
     type="text/css"
     id="style3">
	.st0{fill:#280D06;}
	.st1{fill:#2B2229;}
	.st2{fill:#3E3129;}
	.st3{opacity:0.71;fill:#280D06;enable-background:new    ;}
	.st4{fill:url(#path51_1_);}
	.st5{fill:url(#path62_1_);}
	.st6{fill:url(#path71_1_);}
	.st7{fill:#007518;}
	.st8{fill:#00AF24;}
	.st9{opacity:0.8;fill:#084E16;enable-background:new    ;}
	.st10{fill:#B5A78D;}
	.st11{fill:#194242;}
	.st12{opacity:0.4;fill:url(#path100_1_);enable-background:new    ;}
	.st13{fill:#615249;}
	.st14{fill:url(#path111_1_);}
	.st15{fill:url(#path122_1_);}
	.st16{opacity:0.24;fill:#2B7ABF;enable-background:new    ;}
	.st17{fill:#7E716A;}
	.st18{opacity:0.41;fill:#7E716A;enable-background:new    ;}
	.st19{opacity:0.61;fill:#280D06;enable-background:new    ;}
	.st20{opacity:0.58;fill:#280D06;enable-background:new    ;}
	.st21{opacity:0.66;fill:#3E3129;enable-background:new    ;}
	.st22{fill:#FFFFFF;}
	.st23{fill:#CCFBD6;}
</style><sodipodi:namedview
     bordercolor="#666666"
     borderopacity="1"
     fit-margin-bottom="0"
     fit-margin-left="0"
     fit-margin-right="0"
     fit-margin-top="0"
     gridtolerance="10"
     guidetolerance="10"
     id="namedview196"
     inkscape:current-layer="Layer_1"
     inkscape:cx="-476.15778"
     inkscape:cy="-7.3545708"
     inkscape:pageopacity="0"
     inkscape:pageshadow="2"
     inkscape:window-height="1017"
     inkscape:window-maximized="1"
     inkscape:window-width="1920"
     inkscape:window-x="1912"
     inkscape:window-y="-8"
     inkscape:zoom="0.6675088"
     objecttolerance="10"
     pagecolor="#ffffff"
     showgrid="false" /><g
     id="g20"
     transform="translate(-730.33431,-269.42557)"
     style="filter:url(#filter4223)"><g
       id="g22"><path
         id="path26"
         inkscape:connector-curvature="0"
         class="st0"
         d="m 879.7,394.3 c 0.7,13.5 -10.3,23.2 -22.6,25.2 -1.5,0.3 -3.1,0.4 -4.7,0.4 -10.6,-0.8 -20.6,-0.3 -31.1,-0.3 -1.5,0 -2.9,0 -4.4,0 -2.9,0 -5.8,0 -8.8,0 -1.1,0 -2.2,0 -3.4,0 -1.1,0 -2.2,0 -3.4,0 -1.3,0 -2.7,0 -4,0 -11.3,0 -22.2,0 -33.8,0 -1.5,0 -2.8,0 -3.9,0 -10.9,1 -22.8,-4.5 -27.3,-14.9 -3,-7 -1.5,-14.4 -1.5,-21.2 0,-1.7 0.1,-3.5 0.1,-5.4 0,-17.4 0,-45 0,-63.2 0,-2.2 0,-4.2 0,-6.1 -1,-11.4 -2,-24.8 9.5,-32.7 2.7,-1.7 5.6,-3.1 8.6,-4 1,-0.3 2,-0.5 3,-0.7 6.6,-1 63.2,-4 109.3,0.2 17.2,1.6 18.8,23 18.9,23.7 0.1,1.3 0.1,2.7 0,4.1 -1.1,9.5 -0.6,18.4 -0.6,28 0,1.7 0,3.5 0,5.3 0,1.6 0,3.3 0,4.9 0,8.4 0,16.4 0,24.9 0,1.6 0,3.1 0,4.7 0,4.6 0,8.8 0,12.5 0,1.8 0,3.4 0,4.9 0,2.3 0,4.8 0.1,7.2 0,1.5 0,2.5 0,2.5 l 0,0 z"
         style="fill:#280d06" /><path
         id="path28"
         inkscape:connector-curvature="0"
         class="st1"
         d="m 849.2,417 c -0.4,-2.4 1.1,-4.4 1.6,-6.4 -12.9,0 -25.9,0 -38.6,-0.2 -1.5,0 -2.9,-0.1 -4.4,-0.2 -1.5,-0.1 -2.9,-0.2 -4.4,-0.3 -1.6,0 -3.2,0 -4.8,0.1 -11.1,0.2 -22,0.5 -33.3,-0.4 -4,0 -6.5,6.5 -4,7 11.9,3 24.4,1.5 36.3,1 1.6,0 3.1,0 4.7,0 1.5,0 3.1,0 4.7,0 1.6,0.1 3.2,0.1 4.9,0.2 1.6,0 3.2,0.1 4.9,0.1 10.7,0.2 21.7,0.2 32.5,-0.2 -0.2,-0.3 -0.2,-0.5 -0.1,-0.7 l 0,0 z"
         style="fill:#2b2229" /><g
         id="g30"><polygon
           id="polygon32"
           class="st0"
           points="832.7,408.5 833.2,403.3 835.6,409.4 "
           style="fill:#280d06" /><path
           id="path34"
           inkscape:connector-curvature="0"
           class="st2"
           d="m 833.2,403.3 c 0,0.1 -0.8,5.2 -0.8,5.2 l 0.4,0 0.4,-5.2 0,0 z"
           style="fill:#3e3129" /></g><path
         id="path36"
         inkscape:connector-curvature="0"
         class="st1"
         d="m 852.2,410.4 c -0.4,0.3 -2.6,4.5 -1.9,5.9 0.8,1.3 3.5,0.8 4.5,0 1,-0.8 2.9,-4.7 1.3,-5.5 -1.4,-0.9 -3.9,-0.4 -3.9,-0.4 l 0,0 z"
         style="fill:#2b2229" /><path
         id="path38"
         inkscape:connector-curvature="0"
         class="st1"
         d="m 754.4,410.3 c -0.2,0.6 -2.1,5 0,6 2.1,1 3.3,0.6 3.5,-0.6 0.2,-1.2 1.9,-3.6 1.3,-4.8 -0.5,-1.3 -4.5,-1.5 -4.8,-0.6 z"
         style="fill:#2b2229" /><path
         id="path40"
         inkscape:connector-curvature="0"
         class="st3"
         d="m 766.7,407.7 c 0,0 13.1,-2.4 26.7,-1.3 13.7,1 23.7,2.7 23,2.2 -0.7,-0.5 -16.8,1.1 -22.8,1.2 -6,0 -26.9,-2.1 -26.9,-2.1 l 0,0 z"
         style="opacity:0.70999995;fill:#280d06;enable-background:new" /><g
         id="g42"><linearGradient
           id="path51_1_"
           gradientUnits="userSpaceOnUse"
           x1="1529.4412"
           y1="-48.405602"
           x2="1529.4412"
           y2="199.0992"
           gradientTransform="matrix(1,0,0,-1,-724.1948,429.4256)"><stop
             offset="0"
             style="stop-color:#6D717E"
             id="stop18" /><stop
             offset="0.3927"
             style="stop-color:#504A51"
             id="stop20" /><stop
             offset="0.7294"
             style="stop-color:#392D2F"
             id="stop22" /></linearGradient><path
           id="path51"
           inkscape:connector-curvature="0"
           class="st4"
           d="m 756.7,408.7 c -1.5,0.2 -3,0.2 -4.5,0 -4.4,-0.7 -8.4,-3.4 -9.9,-7.5 -4,-10.4 1.5,-20.9 0.8,-31.4 0,-1.1 0,-2.2 0,-3.4 0,-12.5 0,-27.6 0,-40.4 0,-1.2 0,-2.4 0,-3.6 0.8,-5.6 -0.5,-11.5 -1.1,-17.4 -0.2,-1.5 -0.3,-2.9 -0.3,-4.3 0,-26.3 32.4,-17.4 49.5,-19.3 1.5,0 2.9,-0.1 4.4,-0.1 1.5,0 2.9,0 4.3,0 3.2,-0.2 6.4,-0.2 9.7,-0.2 1.6,0 3.2,0.1 4.8,0.2 1.6,0.3 3.3,0.5 5,0.6 1.7,0.1 3.4,0.1 5.1,0 13.6,0.9 35,-5.6 42.6,9.5 0.5,1.3 0.9,2.6 1.1,4 1.5,6.7 0.8,14 -0.1,21.2 -0.2,1.7 -0.4,3.5 -0.6,5.2 -1.2,16.2 0.3,32.6 -0.5,49.1 0,2.1 0,4.1 0.1,6 0.2,9.3 6.7,20.2 -1.8,27.7 -0.9,0.8 -1.7,1.5 -2.7,2.1 -0.9,0.6 -1.9,1 -2.8,1.4 -14.9,3 -30.3,-1.5 -45.4,0.4 -1.7,0 -3.4,0.1 -5,0.1 -3.4,0.1 -6.7,0.1 -10.1,0 -1.4,0.1 -2.9,0.1 -4.4,0.1 -11.6,0.1 -23.5,-1.3 -35,-0.3 -1.9,0.2 -3.2,0.3 -3.2,0.3 l 0,0 z"
           style="fill:url(#path51_1_)" /><g
           id="g53"><linearGradient
             id="path62_1_"
             gradientUnits="userSpaceOnUse"
             x1="1529.5447"
             y1="111.5379"
             x2="1529.5447"
             y2="157.53349"
             gradientTransform="matrix(1,0,0,-1,-724.1948,429.4256)"><stop
               offset="6.060610e-03"
               style="stop-color:#42332B"
               id="stop27" /><stop
               offset="0.4344"
               style="stop-color:#3C2E27"
               id="stop29" /><stop
               offset="1"
               style="stop-color:#2B221D"
               id="stop31" /></linearGradient><path
             id="path62"
             inkscape:connector-curvature="0"
             class="st5"
             d="m 791.2,283.3 c 1.5,0 2.9,-0.1 4.4,-0.1 1.5,0 2.9,0 4.3,0 3.2,-0.2 6.4,-0.2 9.7,-0.2 1.6,0 3.2,0.1 4.8,0.2 1.6,0.3 3.3,0.5 5,0.6 1.7,0.1 3.4,0.1 5.1,0 13.6,0.9 35,-5.6 42.6,9.5 0.5,1.3 0.9,2.6 1.1,4 0.6,2.6 0.8,5.2 0.8,7.9 0,-3.2 -0.2,-6.4 -0.8,-9.5 -0.3,-1.3 -0.7,-2.7 -1.1,-4 -7.7,-15 -29,-8.6 -42.6,-9.5 -1.7,0 -3.5,0 -5.1,0 -1.7,-0.1 -3.4,-0.3 -5,-0.6 -1.6,-0.1 -3.2,-0.2 -4.8,-0.2 -3.2,-0.1 -6.5,-0.1 -9.7,0.2 -1.4,0 -2.9,0 -4.3,0 -1.5,0 -2.9,0.1 -4.4,0.1 -17.2,1.9 -49.5,-7 -49.5,19.3 0,0.2 0,0.4 0,0.6 0.9,-25.1 32.6,-16.4 49.5,-18.3 z"
             style="fill:url(#path62_1_)" /></g><linearGradient
           id="path71_1_"
           gradientUnits="userSpaceOnUse"
           x1="1476.2756"
           y1="84.411697"
           x2="1582.9362"
           y2="84.411697"
           gradientTransform="matrix(1,0,0,-1,-724.1948,429.4256)"><stop
             offset="6.060610e-03"
             style="stop-color:#42332B"
             id="stop35" /><stop
             offset="0.4344"
             style="stop-color:#3C2E27"
             id="stop37" /><stop
             offset="1"
             style="stop-color:#2B221D"
             id="stop39" /></linearGradient><path
           id="path71"
           inkscape:connector-curvature="0"
           class="st6"
           d="m 765.2,397.6 c -1.2,0.2 -2.5,0.2 -3.7,0 -3.6,-0.6 -7,-2.8 -8.2,-6.2 -3.3,-8.6 1.2,-17.3 0.7,-26 0,-0.9 0,-1.8 0,-2.8 0,-10.4 0,-22.8 0,-33.4 0,-1 0,-2 0,-3 0.7,-4.6 -0.4,-9.5 -0.9,-14.3 -0.1,-1.2 -0.2,-2.4 -0.2,-3.6 0,-21.8 26.7,-14.4 40.9,-16 1.2,0 2.4,-0.1 3.6,-0.1 1.2,0 2.4,0 3.6,0 2.7,-0.2 5.3,-0.2 8,-0.1 1.3,0 2.7,0.1 4,0.2 1.3,0.2 2.7,0.4 4.1,0.5 1.4,0.1 2.8,0.1 4.2,0 11.2,0.8 28.9,-4.6 35.2,7.8 0.4,1.1 0.7,2.2 0.9,3.3 1.2,5.6 0.6,11.5 -0.1,17.5 -0.2,1.4 -0.3,2.9 -0.5,4.3 -1,13.4 0.3,27 -0.4,40.6 0,1.7 0,3.4 0.1,5 0.2,7.7 5.5,16.7 -1.5,22.9 -0.7,0.7 -1.4,1.2 -2.2,1.7 -0.8,0.5 -1.5,0.9 -2.3,1.2 -12.3,2.5 -25.1,-1.2 -37.5,0.3 -1.4,0 -2.8,0.1 -4.2,0.1 -2.8,0.1 -5.6,0.1 -8.3,0 -1.2,0.1 -2.4,0.1 -3.6,0.1 -9.6,0.1 -19.4,-1.1 -28.9,-0.3 -1.8,0.3 -2.8,0.3 -2.8,0.3 l 0,0 z"
           style="fill:url(#path71_1_)" /><path
           id="path73"
           inkscape:connector-curvature="0"
           class="st0"
           d="m 766,396.6 c -1.2,0.2 -2.4,0.2 -3.6,0 -3.6,-0.6 -6.8,-2.8 -8,-6.1 -3.2,-8.5 1.2,-16.9 0.7,-25.5 0,-0.9 0,-1.8 0,-2.7 0,-10.2 0,-22.3 0,-32.7 0,-1 0,-1.9 0,-2.9 0.7,-4.6 -0.4,-9.4 -0.9,-14.1 -0.1,-1.2 -0.2,-2.4 -0.2,-3.5 0,-21.3 26.2,-14.1 40.1,-15.6 1.2,0 2.4,-0.1 3.5,-0.1 1.2,0 2.4,0 3.5,0 2.6,-0.2 5.2,-0.2 7.8,-0.1 1.3,0 2.6,0.1 3.9,0.2 1.3,0.2 2.7,0.4 4,0.5 1.4,0.1 2.8,0.1 4.2,0 11,0.7 28.3,-4.5 34.5,7.7 0.4,1.1 0.7,2.1 0.9,3.2 1.2,5.5 0.6,11.3 -0.1,17.2 -0.2,1.4 -0.3,2.8 -0.5,4.2 -0.9,13.1 0.3,26.4 -0.4,39.8 0,1.7 0,3.3 0.1,4.9 0.2,7.5 5.4,16.4 -1.4,22.4 -0.7,0.7 -1.4,1.2 -2.2,1.7 -0.7,0.5 -1.5,0.8 -2.3,1.1 -12.1,2.4 -24.6,-1.2 -36.8,0.3 -1.4,0 -2.7,0.1 -4.1,0.1 -2.7,0.1 -5.5,0.1 -8.2,0 -1.2,0.1 -2.3,0.1 -3.5,0.1 -9.4,0.1 -19,-1.1 -28.4,-0.3 -1.6,0.1 -2.6,0.2 -2.6,0.2 l 0,0 z"
           style="fill:#280d06" /><path
           id="path75"
           inkscape:connector-curvature="0"
           class="st7"
           d="m 767.8,394.3 c -1.1,0.2 -2.3,0.2 -3.5,0 -3.4,-0.5 -6.5,-2.6 -7.7,-5.8 -3.1,-8.1 1.2,-16.1 0.6,-24.3 0,-0.9 0,-1.7 0,-2.6 0,-9.7 0,-21.3 0,-31.2 0,-0.9 0,-1.9 0,-2.8 0.6,-4.4 -0.4,-8.9 -0.9,-13.4 -0.1,-1.1 -0.2,-2.2 -0.2,-3.4 0,-20.4 25,-13.4 38.3,-14.9 1.1,0 2.3,-0.1 3.4,-0.1 1.1,0 2.2,0 3.4,0 2.5,-0.2 5,-0.2 7.5,-0.1 1.2,0 2.5,0.1 3.7,0.2 1.3,0.2 2.5,0.4 3.9,0.4 1.3,0.1 2.6,0.1 4,0 10.5,0.7 27,-4.3 33,7.3 0.4,1 0.7,2 0.9,3.1 1.1,5.2 0.6,10.8 -0.1,16.4 -0.2,1.3 -0.3,2.7 -0.5,4 -0.9,12.5 0.3,25.2 -0.4,38 0,1.6 0,3.2 0.1,4.7 0.2,7.2 5.2,15.6 -1.4,21.4 -0.7,0.6 -1.3,1.2 -2.1,1.6 -0.7,0.4 -1.4,0.8 -2.2,1.1 -11.5,2.3 -23.4,-1.1 -35.1,0.3 -1.3,0 -2.6,0.1 -3.9,0.1 -2.6,0.1 -5.2,0.1 -7.8,0 -1.1,0.1 -2.2,0.1 -3.4,0.1 -9,0.1 -18.2,-1 -27.1,-0.2 -1.5,0 -2.5,0.1 -2.5,0.1 l 0,0 z"
           style="fill:#007518" /><path
           id="path77"
           inkscape:connector-curvature="0"
           class="st8"
           d="m 760.6,300.9 c 1.6,1.4 3,3.2 4.4,5.2 19.3,-2.8 38.4,-5.7 58,-4.9 7.8,0.3 15.5,0.9 23.3,1.3 1,-1.1 2.1,-2.2 3.2,-3.3 l 0.1,-0.1 c -7.5,-5.7 -20.5,-2.3 -29.3,-2.9 -1.3,0 -2.7,0 -4,0 -1.3,-0.1 -2.6,-0.2 -3.9,-0.4 -1.2,-0.1 -2.5,-0.1 -3.7,-0.2 -2.5,-0.1 -5,-0.1 -7.5,0.1 -1.1,0 -2.2,0 -3.4,0 -1.1,0 -2.3,0 -3.4,0.1 -10.1,1.1 -26.8,-2.6 -34.4,4.4 0.3,0.3 0.5,0.5 0.6,0.7 l 0,0 0,0 z"
           style="fill:#00af24" /><path
           id="path79"
           inkscape:connector-curvature="0"
           class="st9"
           d="m 843.1,383.2 c -7.3,-0.3 -14.5,-0.6 -21.8,-0.6 -4.1,0.4 -8.3,0.8 -12.4,1.1 -10.1,0.7 -20.2,1.5 -30.3,1.5 -2.7,0 -5.5,-0.1 -8.2,-0.3 -2.1,0.1 -4.2,0.1 -6.3,0.1 -1.5,2.4 -3.2,4.7 -4.8,7.1 1.4,1.1 3.2,1.9 5,2.2 1.1,0.2 2.3,0.2 3.5,0 0,0 1,-0.1 2.7,-0.2 8.9,-0.8 18.1,0.3 27.1,0.2 1.1,0 2.2,0 3.4,-0.1 2.6,0.1 5.2,0.1 7.8,0 1.3,0 2.6,-0.1 3.9,-0.1 11.7,-1.4 23.6,2 35.1,-0.3 0.7,-0.3 1.5,-0.6 2.2,-1.1 0.6,-0.4 1.1,-0.8 1.7,-1.3 -0.2,-0.2 -0.4,-0.5 -0.7,-0.7 -2.7,-2.5 -5.7,-4.5 -7.9,-7.5 l 0,0 z"
           style="opacity:0.8;fill:#084e16;enable-background:new" /><path
           id="path81"
           inkscape:connector-curvature="0"
           class="st10"
           d="m 770,391.3 c -1.1,0.2 -2.2,0.2 -3.2,0 -3.2,-0.5 -6.1,-2.5 -7.2,-5.5 -2.9,-7.6 1.1,-15.2 0.6,-22.8 0,-0.8 0,-1.6 0,-2.5 0,-9.1 0,-20 0,-29.3 0,-0.9 0,-1.7 0,-2.6 0.6,-4.1 -0.4,-8.4 -0.8,-12.6 -0.1,-1.1 -0.2,-2.1 -0.2,-3.2 0,-19.1 23.5,-12.6 36,-14 1.1,0 2.1,-0.1 3.2,-0.1 1.1,0 2.1,0 3.2,0 2.3,-0.2 4.7,-0.2 7,-0.1 1.2,0 2.3,0.1 3.5,0.1 1.2,0.2 2.4,0.3 3.6,0.4 1.2,0.1 2.5,0.1 3.7,0 9.9,0.7 25.4,-4 31,6.9 0.3,0.9 0.6,1.9 0.8,2.9 1.1,4.9 0.6,10.1 -0.1,15.4 -0.1,1.3 -0.3,2.5 -0.4,3.8 -0.8,11.8 0.2,23.7 -0.4,35.7 0,1.5 0,3 0.1,4.4 0.2,6.7 4.9,14.7 -1.3,20.1 -0.6,0.6 -1.3,1.1 -1.9,1.5 -0.7,0.4 -1.3,0.7 -2,1 -10.8,2.2 -22,-1.1 -33,0.3 -1.2,0 -2.4,0.1 -3.7,0.1 -2.4,0 -4.9,0.1 -7.3,0 -1.1,0 -2.1,0.1 -3.2,0.1 -8.5,0.1 -17.1,-1 -25.5,-0.2 -1.5,0.1 -2.5,0.2 -2.5,0.2 l 0,0 z"
           style="fill:#b5a78d" /><path
           id="path83"
           inkscape:connector-curvature="0"
           class="st11"
           d="m 770.8,390.3 c -1.1,0.2 -2.1,0.2 -3.2,0 -3.1,-0.5 -6,-2.4 -7,-5.3 -2.8,-7.4 1.1,-14.8 0.6,-22.3 0,-0.8 0,-1.6 0,-2.4 0,-8.9 0,-19.6 0,-28.7 0,-0.9 0,-1.7 0,-2.5 0.6,-4 -0.4,-8.2 -0.8,-12.3 -0.1,-1 -0.2,-2.1 -0.2,-3.1 0,-18.7 23,-12.4 35.2,-13.7 1,0 2.1,-0.1 3.1,-0.1 1,0 2.1,0 3.1,0 2.3,-0.2 4.6,-0.2 6.9,-0.1 1.1,0 2.3,0.1 3.4,0.1 1.2,0.2 2.3,0.3 3.5,0.4 1.2,0.1 2.4,0.1 3.7,0 9.7,0.6 24.9,-3.9 30.3,6.7 0.3,0.9 0.6,1.9 0.8,2.8 1,4.8 0.5,9.9 -0.1,15.1 -0.1,1.2 -0.3,2.5 -0.4,3.7 -0.8,11.5 0.2,23.2 -0.4,34.9 0,1.5 0,2.9 0.1,4.3 0.2,6.6 4.8,14.4 -1.2,19.7 -0.6,0.6 -1.2,1.1 -1.9,1.5 -0.6,0.4 -1.3,0.7 -2,1 -10.6,2.1 -21.6,-1.1 -32.3,0.3 -1.2,0 -2.4,0.1 -3.6,0.1 -2.4,0 -4.8,0.1 -7.2,0 -1,0 -2.1,0.1 -3.1,0.1 -8.3,0.1 -16.7,-0.9 -24.9,-0.2 -1.5,-0.1 -2.4,0 -2.4,0 l 0,0 z"
           style="fill:#194242" /><linearGradient
           id="path100_1_"
           gradientUnits="userSpaceOnUse"
           x1="1529.7875"
           y1="127.5959"
           x2="1529.7875"
           y2="22.1371"
           gradientTransform="matrix(1,0,0,-1,-724.1948,429.4256)"><stop
             offset="2.473490e-02"
             style="stop-color:#7DA924"
             id="stop49" /><stop
             offset="5.937702e-02"
             style="stop-color:#72A021"
             id="stop51" /><stop
             offset="0.1991"
             style="stop-color:#498215"
             id="stop53" /><stop
             offset="0.336"
             style="stop-color:#29690C"
             id="stop55" /><stop
             offset="0.4679"
             style="stop-color:#125805"
             id="stop57" /><stop
             offset="0.5923"
             style="stop-color:#054E01"
             id="stop59" /><stop
             offset="0.7017"
             style="stop-color:#004A00"
             id="stop61" /></linearGradient><path
           id="path100"
           inkscape:connector-curvature="0"
           class="st12"
           d="m 849.4,308.9 c -0.2,-0.9 -0.5,-1.9 -0.8,-2.8 -5.3,-10.5 -20.3,-6 -29.7,-6.6 -1.2,0 -2.4,0 -3.6,0 -1.2,-0.1 -2.3,-0.2 -3.5,-0.4 -1.1,-0.1 -2.3,-0.1 -3.4,-0.1 -2.2,-0.1 -4.5,-0.1 -6.7,0.1 -1,0 -2,0 -3,0 -1,0 -2,0 -3,0.1 -12,1.3 -34.5,-4.9 -34.5,13.5 0,1 0.1,2 0.2,3 0.3,3.3 1,30.3 0.9,33.6 0.3,0.4 0.5,0.9 0.8,1.3 1.1,0.6 2.2,1.2 3.4,1.7 0.8,0.3 1.6,0.6 2.4,0.8 5.2,0.1 10.5,-0.4 15.7,-0.6 16.3,-0.4 32.6,0.7 48.9,1.1 3.4,-0.5 6.8,-1 10.2,-1.5 2,-1.1 3.9,-2.5 5.7,-4 0,-0.3 0.1,-0.6 0.1,-0.9 0.4,-4.9 0.9,-33.6 -0.1,-38.3 l 0,0 z"
           style="opacity:0.4;fill:url(#path100_1_);enable-background:new" /><path
           id="path102"
           inkscape:connector-curvature="0"
           class="st13"
           d="m 740.1,294.8 c 0.1,-1.1 0.4,-2.1 0.8,-3.1 2,-5.3 6.5,-8.3 11,-11.8 2,-1.5 0.5,-8.1 -3.7,-5.8 -1.5,0.5 -3,1.2 -4.4,2 -5.6,3.2 -9.9,8.5 -10.3,15.2 0,1 2.5,1 4,2.3 0.8,0.4 1.7,0.8 2.6,1.2 l 0,0 z"
           style="fill:#615249" /><linearGradient
           id="path111_1_"
           gradientUnits="userSpaceOnUse"
           x1="1581.9526"
           y1="145.0923"
           x2="1601.0338"
           y2="145.0923"
           gradientTransform="matrix(1,0,0,-1,-724.1948,429.4256)"><stop
             offset="6.060610e-03"
             style="stop-color:#42332B"
             id="stop66" /><stop
             offset="0.4344"
             style="stop-color:#3C2E27"
             id="stop68" /><stop
             offset="1"
             style="stop-color:#2B221D"
             id="stop70" /></linearGradient><path
           id="path111"
           inkscape:connector-curvature="0"
           class="st14"
           d="m 876.8,289.9 c -0.2,-2.2 -0.9,-4.4 -1.9,-6.4 -0.5,-1 -1.2,-2 -1.9,-2.9 -3.5,-3.4 -9.2,-7.3 -13.2,-7 -0.6,1.2 -0.2,2.1 -0.8,3.3 -0.1,0.4 -0.2,0.9 -0.3,1.3 1,1.8 9.1,5.9 11.4,11.7 0.3,1.1 0.6,0.6 0.6,3.4 0,2.8 5.9,1.8 5.9,0.4 0.2,-1.2 0.3,-2.5 0.2,-3.8 z"
           style="fill:url(#path111_1_)" /><path
           id="path113"
           inkscape:connector-curvature="0"
           class="st1"
           d="m 739.4,401.2 c -1,-1.5 -4,-0.5 -6.5,-0.5 2.5,8.9 11,16.3 18.1,16.8 1.3,-0.2 3.8,-6 1.1,-6.8 -5.6,-1.7 -10.5,-6.3 -12.7,-9.5 l 0,0 z"
           style="fill:#2b2229" /><linearGradient
           id="path122_1_"
           gradientUnits="userSpaceOnUse"
           x1="1586.3406"
           y1="146.7668"
           x2="1613.483"
           y2="5.6938"
           gradientTransform="matrix(1,0,0,-1,-724.1948,429.4256)"><stop
             offset="6.060610e-03"
             style="stop-color:#42332B"
             id="stop75" /><stop
             offset="0.4344"
             style="stop-color:#3C2E27"
             id="stop77" /><stop
             offset="1"
             style="stop-color:#2B221D"
             id="stop79" /></linearGradient><path
           id="path122"
           inkscape:connector-curvature="0"
           class="st15"
           d="m 877.5,381.2 c 0,-1.4 0,-3.1 0,-4.8 0,-2.6 0,-5.5 0,-8.7 0,-1.6 0,-3.2 0,-4.9 0,-10.9 0,-21.8 0,-32.7 0.1,-1.4 0.1,-2.8 0.2,-4.2 0.1,-7.1 -0.4,-14.1 0.4,-21.1 0,-2.5 -2.5,-3.5 -4.5,-3.5 -1,0 -2,1 -2.5,1.5 -1.5,5.7 -1.7,11.6 -1.7,17.5 0,1.5 0,3 0.1,4.5 0.2,14.4 0.2,28.8 -0.1,43.4 0,1.5 0,2.9 0,4.2 0,1.8 0,3.5 0.1,5.1 1.2,3.9 -1.4,10.9 4.6,11 4.3,-0.1 3.5,-4.7 3.4,-7.3 z"
           style="fill:url(#path122_1_)" /><path
           id="path124"
           inkscape:connector-curvature="0"
           class="st1"
           d="m 871.4,396.3 c 0.2,5.7 -3.9,10.1 -8.8,13.1 -1,0.6 -2,1.2 -3,1.7 -0.7,0.3 -1.5,1.6 -1.9,2.9 -0.4,1.3 -0.4,2.5 0.4,2.5 10.9,1 20.4,-9.9 19.4,-21.4 0,0 -2,0 -3.1,0.5 -1,0.3 -2,0.5 -3,0.7 l 0,0 z"
           style="fill:#2b2229" /><path
           id="path126"
           inkscape:connector-curvature="0"
           class="st16"
           d="m 732.6,301 c 0.8,5.2 -0.2,9.7 0.3,14.5 0,1.1 0,2.2 0,3.3 0,15.2 0,37 0,53 0,2 0,3.9 0,5.7 1,6.7 -2,20.7 4.9,14.7 4,-3 3.5,-13.4 3.2,-20.7 0,-1.9 0,-4 0,-6 0,-14.5 0,-32.2 0,-44.9 0,-1.1 0,-2.2 0,-3.2 -1.2,-5.1 2.3,-14.6 -4.6,-15.2 -1.2,-0.5 -2.5,-0.9 -3.8,-1.2 l 0,0 z"
           style="opacity:0.23999999;fill:#2b7abf;enable-background:new" /><path
           id="path128"
           inkscape:connector-curvature="0"
           class="st17"
           d="m 756.3,272.9 c -0.3,-0.2 -2.3,-0.2 -2.6,1.1 -0.3,1.2 -0.4,5.1 0.9,6 1.3,0.9 3.9,0.3 3.7,-0.6 -0.2,-0.9 -2,-6.5 -2,-6.5 l 0,0 z"
           style="fill:#7e716a" /><path
           id="path130"
           inkscape:connector-curvature="0"
           class="st17"
           d="m 852.4,275.5 c -0.1,0.6 0.5,4.8 1.7,4.4 1.1,-0.3 1.2,1 1.9,-0.9 0.7,-2 2.2,-5.9 1.8,-6.1 -0.4,-0.3 -4.7,-1.3 -5.4,2.6 z"
           style="fill:#7e716a" /><path
           id="path132"
           inkscape:connector-curvature="0"
           class="st18"
           d="m 870.7,296.1 c -0.8,0.4 -1.3,4.9 0.5,4.7 1.8,-0.2 5.2,-0.1 6,0 0.8,0.1 1.6,-2.2 0.8,-3.5 -0.7,-1.3 -3.4,-1.2 -4.3,-1.2 -0.8,-0.1 -2.1,-0.4 -3,0 z"
           style="opacity:0.41000001;fill:#7e716a;enable-background:new" /><path
           id="path134"
           inkscape:connector-curvature="0"
           class="st18"
           d="m 872.7,389.4 c -1.2,0.4 -1.6,2.2 -1.2,3.7 0.4,1.5 4.7,0.2 5.6,0 0.9,-0.2 2.1,-1.9 0.6,-2.9 -1.6,-1 -5,-0.8 -5,-0.8 l 0,0 z"
           style="opacity:0.41000001;fill:#7e716a;enable-background:new" /><path
           id="path136"
           inkscape:connector-curvature="0"
           class="st16"
           d="m 732.9,395.2 c -1.2,0.8 -1.1,4.6 0.6,4.6 1.7,0 5.2,-0.4 5.5,-2.3 0.2,-1.9 2,-3.3 0,-3.3 -2,-0.1 -4.6,0 -6.1,1 l 0,0 z"
           style="opacity:0.23999999;fill:#2b7abf;enable-background:new" /><path
           id="path138"
           inkscape:connector-curvature="0"
           class="st18"
           d="m 734,295.8 c -1.8,-0.1 -1.2,3.5 -0.6,4.6 0.7,1.1 4.3,2.2 4.4,0.9 0.2,-1.3 0.5,-2.5 0,-3 -0.4,-0.6 -2,-2.4 -3.8,-2.5 l 0,0 z"
           style="opacity:0.41000001;fill:#7e716a;enable-background:new" /><g
           id="g140"><polygon
             id="polygon142"
             class="st0"
             points="868.1,323.1 859.4,324.3 868.5,318 "
             style="fill:#280d06" /><path
             id="path144"
             inkscape:connector-curvature="0"
             class="st2"
             d="m 859.4,324.3 c 0.2,0 8.8,-0.6 8.8,-0.6 l -0.1,-0.6 -8.7,1.2 z"
             style="fill:#3e3129" /></g><g
           id="g146"><polygon
             id="polygon148"
             class="st0"
             points="755.2,348.3 763.7,346 755.5,353.4 "
             style="fill:#280d06" /><path
             id="path150"
             inkscape:connector-curvature="0"
             class="st2"
             d="m 763.7,346 c -0.2,0.1 -8.6,1.8 -8.6,1.8 l 0.2,0.6 8.4,-2.4 0,0 z"
             style="fill:#3e3129" /></g><g
           id="g152"><polygon
             id="polygon154"
             class="st0"
             points="742.1,324.3 750.8,325.2 740.5,329.1 "
             style="fill:#280d06" /><path
             id="path156"
             inkscape:connector-curvature="0"
             class="st2"
             d="m 750.8,325.2 c -0.2,0 -8.7,-1.5 -8.7,-1.5 l -0.1,0.6 8.8,0.9 z"
             style="fill:#3e3129" /></g><g
           id="g158"><polygon
             id="polygon160"
             class="st0"
             points="851,277.7 850,286.4 846.2,276 "
             style="fill:#280d06" /><path
             id="path162"
             inkscape:connector-curvature="0"
             class="st2"
             d="m 850,286.4 c 0,-0.2 1.6,-8.7 1.6,-8.7 l -0.6,-0.1 -1,8.8 0,0 z"
             style="fill:#3e3129" /></g><g
           id="g164"><polygon
             id="polygon166"
             class="st0"
             points="753.7,406.9 757,398.7 757.9,409.7 "
             style="fill:#280d06" /><path
             id="path168"
             inkscape:connector-curvature="0"
             class="st2"
             d="m 757,398.7 c -0.1,0.2 -3.8,7.9 -3.8,7.9 l 0.6,0.2 3.2,-8.1 z"
             style="fill:#3e3129" /></g><path
           id="path170"
           inkscape:connector-curvature="0"
           class="st13"
           d="m 757.3,272.2 c 0.3,1.6 1.2,6.7 2.8,6.8 1.5,0.1 86.5,-1.1 88.9,-0.6 2.4,0.6 0.9,-4 3,-6.2 1.5,-1.5 -95,-1.5 -94.7,0 l 0,0 z"
           style="fill:#615249" /><path
           id="path172"
           inkscape:connector-curvature="0"
           class="st19"
           d="m 867.2,323.7 c 0,0 -2.5,17 -2.3,33.5 0.2,16.6 3.3,27.3 3.3,27.3 0,0 -0.4,-21.5 0.3,-26.7 0.7,-5.1 -1.3,-34.1 -1.3,-34.1 l 0,0 z"
           style="opacity:0.61000001;fill:#280d06;enable-background:new" /><path
           id="path174"
           inkscape:connector-curvature="0"
           class="st20"
           d="m 740.5,384.7 c 0.8,-0.6 5.7,-4.7 5.2,-16.1 -0.5,-11.4 -3,-31.1 -3,-31.1 l -2.2,47.2 z"
           style="opacity:0.57999998;fill:#280d06;enable-background:new" /><g
           id="g176"><path
             id="path178"
             inkscape:connector-curvature="0"
             class="st21"
             d="m 751,282.1 c -0.8,0 -1.5,0 -2.3,0 l 0.7,0.9 13.1,17.1 c 0,0.1 -7.2,-11 -11.5,-18 z"
             style="opacity:0.66000001;fill:#3e3129;enable-background:new" /><path
             id="path180"
             inkscape:connector-curvature="0"
             class="st0"
             d="m 751.5,282 c -0.7,0 -1.4,0 -2,0 l 12.3,17.2 c 0,0.1 -6,-10 -10.3,-17.2 z"
             style="fill:#280d06" /></g><g
           id="g182"><path
             id="path184"
             inkscape:connector-curvature="0"
             class="st21"
             d="m 849.3,397.4 c 0.7,-0.1 1.5,-0.3 2.2,-0.4 l -0.9,-0.8 -15.5,-14.5 c 0.1,0.1 8.8,9.6 14.2,15.7 l 0,0 z"
             style="opacity:0.66000001;fill:#3e3129;enable-background:new" /><path
             id="path186"
             inkscape:connector-curvature="0"
             class="st0"
             d="m 848.8,397.5 c 0.7,-0.1 1.3,-0.2 2,-0.4 L 836,382.5 c 0,0 7.4,8.8 12.8,15 z"
             style="fill:#280d06" /></g><path
           id="path188"
           inkscape:connector-curvature="0"
           class="st22"
           d="m 795.5,301.1 c 1,0 2.1,0 3.1,-0.1 1,0 2.1,0 3.1,0 2.3,-0.2 4.6,-0.2 6.8,-0.1 1.1,0 2.3,0.1 3.4,0.1 1.2,0.2 2.3,0.3 3.5,0.4 1.2,0.1 2.4,0.1 3.6,0 9.6,0.6 24.8,-3.9 30.2,6.7 0.3,0.9 0.6,1.9 0.8,2.8 0.4,1.7 0.5,3.5 0.6,5.3 0.1,-2.5 -0.1,-4.9 -0.6,-7.3 -0.2,-1 -0.5,-1.9 -0.8,-2.8 -5.4,-10.6 -20.6,-6.1 -30.2,-6.7 -1.2,0 -2.4,0 -3.6,0 -1.2,-0.1 -2.4,-0.2 -3.5,-0.4 -1.1,-0.1 -2.3,-0.1 -3.4,-0.1 -2.3,-0.1 -4.6,-0.1 -6.8,0.1 -1,0 -2,0 -3.1,0 -1,0 -2.1,0 -3.1,0.1 -12.2,1.4 -35,-5 -35.1,13.7 0,0.3 0,0.7 0,1 0.9,-17.5 23.1,-11.4 35.1,-12.7 z"
           style="fill:#ffffff" /></g></g><g
       id="g190"><path
         id="path192"
         inkscape:connector-curvature="0"
         class="st8"
         d="m 797.7,326.8 c -5.7,0 -6,10 -6,10 0,0 -3.7,27.3 2,31.3 5.7,4 9.3,-14.3 10.7,-24.3 1.4,-10 -3.7,-17 -6.7,-17 z m 21.3,0 c -5.7,0 -6,10 -6,10 0,0 -3.7,27.3 2,31.3 5.7,4 9.3,-14.3 10.7,-24.3 1.4,-10 -3.6,-17 -6.7,-17 z"
         style="fill:#00af24" /><path
         id="path194"
         inkscape:connector-curvature="0"
         class="st23"
         d="m 797.7,324.1 c -5.7,0 -6,10 -6,10 0,0 -3.7,27.3 2,31.3 5.7,4 9.3,-14.3 10.7,-24.3 1.4,-10 -3.7,-17 -6.7,-17 z m 21.3,0 c -5.7,0 -6,10 -6,10 0,0 -3.7,27.3 2,31.3 5.7,4 9.3,-14.3 10.7,-24.3 1.4,-10 -3.6,-17 -6.7,-17 z"
         style="fill:#ccfbd6" /></g></g></svg>