<?xml version="1.0" encoding="UTF-8" standalone="no"?>
<svg
   xmlns:dc="http://purl.org/dc/elements/1.1/"
   xmlns:cc="http://creativecommons.org/ns#"
   xmlns:rdf="http://www.w3.org/1999/02/22-rdf-syntax-ns#"
   xmlns:svg="http://www.w3.org/2000/svg"
   xmlns="http://www.w3.org/2000/svg"
   xmlns:sodipodi="http://sodipodi.sourceforge.net/DTD/sodipodi-0.dtd"
   xmlns:inkscape="http://www.inkscape.org/namespaces/inkscape"
   viewBox="0 0 111.04 108.7"
   id="svg2"
   version="1.1"
   inkscape:version="0.91 r13725"
   sodipodi:docname="levels__button-levels_hover.svg">
  <metadata
     id="metadata64">
    <rdf:RDF>
      <cc:Work
         rdf:about="">
        <dc:format>image/svg+xml</dc:format>
        <dc:type
           rdf:resource="http://purl.org/dc/dcmitype/StillImage" />
      </cc:Work>
    </rdf:RDF>
  </metadata>
  <sodipodi:namedview
     pagecolor="#ffffff"
     bordercolor="#666666"
     borderopacity="1"
     objecttolerance="10"
     gridtolerance="10"
     guidetolerance="10"
     inkscape:pageopacity="0"
     inkscape:pageshadow="2"
     inkscape:window-width="687"
     inkscape:window-height="480"
     id="namedview62"
     showgrid="false"
     inkscape:zoom="2.1711132"
     inkscape:cx="55.52"
     inkscape:cy="54.349998"
     inkscape:window-x="0"
     inkscape:window-y="0"
     inkscape:window-maximized="0"
     inkscape:current-layer="svg2" />
  <defs
     id="defs4">
    <style
       id="style6">.cls-1{isolation:isolate;}.cls-2{fill:#4d7d20;}.cls-3{fill:#6ea61a;}.cls-10,.cls-11,.cls-4,.cls-6{fill:#718d20;}.cls-4,.cls-6{opacity:0.68;}.cls-5{fill:#6c8420;mix-blend-mode:multiply;}.cls-5,.cls-8{opacity:0.6;}.cls-10,.cls-11,.cls-6{mix-blend-mode:screen;}.cls-7{fill:#476920;opacity:0.61;}.cls-8{fill:#3b7020;}.cls-9{fill:#4a851d;}.cls-10{opacity:0.35;}.cls-11{opacity:0.2;}.cls-12{fill:#88a92b;}.cls-13{fill:#548500;}.cls-14{fill:#bdff00;}</style>
    <filter
       style="color-interpolation-filters:sRGB;"
       inkscape:label="Lightness-Contrast"
       id="filter4192">
      <feColorMatrix
         values="1 0 0 0.0505 -0 0 1 0 0.0505 -0 0 0 1 0.0505 -0 0 0 0 1 0"
         id="feColorMatrix4194" />
    </filter>
  </defs>
  <title
     id="title8">Asset 2</title>
  <g
     class="cls-1"
     id="g10"
     style="filter:url(#filter4192)">
    <g
       id="Layer_2"
       data-name="Layer 2">
      <g
         id="Layer_1-2"
         data-name="Layer 1">
        <path
           class="cls-2"
           d="M108,89.12a44.52,44.52,0,0,0,2.74-12.5c.18-2.12.26-4.24.29-6.36.14-31.23,1.73-81.13-42.41-68.14l-7.84.37C45.07,3.24,29.35,4,13.57,3.68A14.82,14.82,0,0,0,7.38,6.3a11.2,11.2,0,0,0-3.95,5.8C1.06,22.39,4.22,32.69,2.64,43c-.4,5.15-.79,10.3-1.07,15.42Q1.43,61,1.34,63.51C1.06,77-3.7,93.68,6.6,102.39c12.67,10.3,32.47,4.75,49.22,5.35H64c8,0,16.12.11,24.18.76a39.05,39.05,0,0,0,8-.91c7.37-1.72,12.69-6.16,13.17-15.77A28.25,28.25,0,0,0,108,89.12Z"
           id="path14" />
        <path
           class="cls-3"
           d="M107.85,88.58c.46-3.79.69-7.66.81-11.61.06-2,.09-4,.12-6-.8-20.88,5.53-43.06-7.14-61.27C92.93-3.74,76.3,1.8,62.57,3.85c-2.53.21-5.05.37-7.57.48-12.57.57-24.94.14-37.32.63-3.17,0-5.54,2.38-7.92,4.75a47.07,47.07,0,0,0-3,6.33C1.95,28.21,2.11,41.86,2.64,55.45c.11,2.72.22,5.44.31,8.14-.31,11.87-5.06,25.33,3.65,34,13.46,15,35.64,8.71,54.54,8.79,2.67-.13,5.33-.26,8-.34a119.74,119.74,0,0,1,15.42.34,54,54,0,0,0,8.65-.77c8-1.51,13.92-5.91,14.81-16.53A1,1,0,0,1,107.85,88.58Z"
           id="path16" />
        <path
           class="cls-4"
           d="M21.2,96.19c2.82-.94,5.2.65,7.58,1.44-4-3.17-7.92-7.13-13.68-6A9,9,0,0,0,21.2,96.19Z"
           id="path18" />
        <path
           class="cls-5"
           d="M22.63,97.42c-4.15-3.74-15.24-6.91-15.24.22.79,12.67,19,7.92,28.51,8.71-.79-3.17-3.17-5.55-5.46-8.16A44.82,44.82,0,0,1,22.63,97.42Z"
           id="path20" />
        <path
           class="cls-5"
           d="M101.34,77.86c-2.86,7.89-6,20.56,4.27,23.73,0-6.34,2.38-12.67,2.58-19.14A68.39,68.39,0,0,0,101.34,77.86Z"
           id="path22" />
        <path
           class="cls-6"
           d="M20.57,14.94c10.08-5.24,21.9-4.12,33.61-3.89,2.34,0,4.68.06,7,0,6.41-1.31,15.13.27,19.09-6.86-5.54,1.58-11.88.79-17.55.64-3-.1-5.92-.26-8.88-.42C39.06,3.6,24.52,2.79,12.14,9.72c-1.58.79,4,4,4.61,7A8.13,8.13,0,0,1,20.57,14.94Z"
           id="path24" />
        <path
           class="cls-7"
           d="M101.41,70.14a5.77,5.77,0,0,0,1.38,6.54,27.33,27.33,0,0,0,6,4.33,25.22,25.22,0,0,1-.56-5.35,52.64,52.64,0,0,1,.29-5.34c.26-5.95,2.64-13.08.26-19.41-1.58-3.17-5.54-7.13-7.13-4.75-4,4.75.79,11.09-.45,17.77C101.3,66,101.38,68.06,101.41,70.14Z"
           id="path26" />
        <path
           class="cls-6"
           d="M95.14,21.07c4.13,6.86.17,22.7,12,21.91-4-9.5.79-19-1.58-28.51C102.44,4.18,87.39-3,81.84,7.34,78.67,12.89,89,12.1,92.16,16.69A22.72,22.72,0,0,1,95.14,21.07Z"
           id="path28" />
        <path
           class="cls-7"
           d="M105.69,20.09a11.59,11.59,0,0,0-3.25-8.32c-2.38,3.47-8.71,4.86-7.92,9,2.37,7.63.79,20.81,12.67,22.19-2.38-6.24-1.58-12.48-1.2-18.55A33.44,33.44,0,0,0,105.69,20.09Z"
           id="path30" />
        <path
           class="cls-5"
           d="M89.83,96.64a82.3,82.3,0,0,1-20.29,1.73c-2.23,0-4.47-.15-6.7-.26-9.51-1.26-19.81-.47-29.31.32,5.54,8.71,16.63,9.5,26.34,8.81,2.54-.12,5.13-.37,7.74-.64,7.81-.82,15.71-1.94,22.3-1.06a51.13,51.13,0,0,0,6.72-1.06,42.57,42.57,0,0,0,6.6-2.08c-3.17-2.38-4-7.13-8.28-8.64A15.48,15.48,0,0,1,89.83,96.64Z"
           id="path32" />
        <path
           class="cls-8"
           d="M11.74,83.35a11.94,11.94,0,0,0-7.52-15,81.07,81.07,0,0,0-.73,22.39c.19,1.76,3.45,4.42,4.57,3.65,1.9-1.3,3.42-3,5-4.29A22.64,22.64,0,0,1,11.74,83.35Z"
           id="path34" />
        <path
           class="cls-6"
           d="M12,61.06q-.74-3.53-1.17-7.13a82.75,82.75,0,0,1,.29-21.83q.53-3.64,1.39-7.27c3.63-5.6,1.26-11.14-3.5-15.1a42,42,0,0,0-2.83,7.43C2.53,30,4,44.83,2.64,58A10,10,0,0,0,5,66.16a17.19,17.19,0,0,0,7.16,4.4A69.69,69.69,0,0,0,12,61.06Z"
           id="path36" />
        <path
           class="cls-9"
           d="M98.4,64.26c.87-16.52.08-35.53-13.39-47.41-7.92-7.92-19-1.58-29.1-2.14-2.32.12-4.63.16-6.94.16-6.93,0-13.86-.4-21-.4S16.9,20.81,16,26.94a54.25,54.25,0,0,0-1.66,6.53,89.06,89.06,0,0,0-1.15,20.89c.11,2.38.28,4.76.43,7.16.14,7.6-2.24,16.32,3.31,23.44,9.5,13.46,26.93,11.88,42.34,12.16,2.71-.08,5.39-.29,8-.6a101.2,101.2,0,0,0,22.12-5.13,17.18,17.18,0,0,0,5.19-4.55A18,18,0,0,0,97.68,80a32.71,32.71,0,0,0,.55-9.61C98.3,68.32,98.34,66.29,98.4,64.26Z"
           id="path38" />
        <path
           class="cls-10"
           d="M35.24,22.07c-.92-6-4.88-6.81-11.21-5.22-7.92,2.38-7.92,11.88-7.13,18.22,7.92-1.58,14.26-6.34,19.35-12.47C35.91,22.43,35.57,22.26,35.24,22.07Z"
           id="path40" />
        <path
           class="cls-10"
           d="M91.3,28c-1.54-12-15.8-15.16-26.09-14.37a20.58,20.58,0,0,0-12.67,7.13c12.67,4,26.14,7.92,39.25,9.28Z"
           id="path42" />
        <path
           class="cls-11"
           d="M72.15,78.73c-2.21.38-4.39.87-6.53,1.44s-4.26,1.22-6.36,1.92A204.77,204.77,0,0,1,31.95,91.3c9.5,1.58,19,1.58,28.87,2.93,2.23.14,4.45.21,6.66.2a69.41,69.41,0,0,0,19.66-2.69,26.33,26.33,0,0,0,6.59-3.61A7.44,7.44,0,0,0,96.49,83a5.57,5.57,0,0,0-2-5.15c-2-2-4.55-2-7.37-1.49s-5.88,1.48-8.83,1.49Q75.22,78.21,72.15,78.73Z"
           id="path44" />
        <path
           class="cls-11"
           d="M90.06,67.37c9.21-22-13-37.06-32.2-38.77C55.72,28,53.62,27.4,51.54,27c-10.39-2.1-20.28-1-27.91,9.68-1.57,1.41-3,2.76-4.36,4-4,4-5.31,8.75-5.38,13.85a39.25,39.25,0,0,0,.31,5.19c-.47,7.89,3.49,15,1.11,22.94C28.78,85,41.45,78.63,53.38,74c2.35-.88,4.7-1.73,7.08-2.53a58.42,58.42,0,0,1,7.19-2.06,20.21,20.21,0,0,1,7.54-.18c5.08-.14,9.83-.14,15-1.35A4,4,0,0,1,90.06,67.37Z"
           id="path46" />
        <path
           class="cls-12"
           d="M110.09,51c-11.61,4.7-21.91,12.62-33,19.79q-2.08,1.78-4,3.7a74.25,74.25,0,0,0-10.42,12.7A69.76,69.76,0,0,0,59,93.47a39.12,39.12,0,0,0-4.88,13.67c2.38-4,4-8.71,6.14-13.12q1.72-3.17,3.62-6.21a80.91,80.91,0,0,1,9.83-12.73q1.86-1.95,3.89-3.77c9.77-9.32,21.65-14.07,32.5-20Z"
           id="path48" />
        <path
           class="cls-13"
           d="M110,49.57C96.89,54.07,85.8,62,75.29,71.15c-1.53,1.24-3,2.57-4.48,4a60.54,60.54,0,0,0-7.92,9.27,47.21,47.21,0,0,0-4,7c-1.58,5.42-4,10.17-3.17,15.72,1.58-4.75,1.58-9.5,4.13-13.67a61.6,61.6,0,0,1,3.3-6.34,66.22,66.22,0,0,1,10-12.77q1.93-1.94,4-3.74C87.39,62,98.48,55.66,110,50,110,49.84,110,49.7,110,49.57Z"
           id="path50" />
        <path
           class="cls-12"
           d="M107.84,88.1A122.6,122.6,0,0,0,94,86.51q-3.5-.21-7-.2A93.37,93.37,0,0,0,65.91,89q-3.48.86-6.91,2c-10.42,2.7-19.14,8.25-27.06,15.38A145,145,0,0,1,62.13,91.41q3.67-1.22,7.43-2.12A75.44,75.44,0,0,1,92.85,87.4c2.53.1,5,.26,7.55.45s5,.42,7.44.67A1.88,1.88,0,0,1,107.84,88.1Z"
           id="path52" />
        <path
           class="cls-13"
           d="M108.55,87.42a5.64,5.64,0,0,1,1-.08,88.61,88.61,0,0,0-15.21-2.25q-3.87-.24-7.78-.16a127.85,127.85,0,0,0-20.72,3.44q-3.43.89-6.8,2c-9.68,3.27-19.18,8-26.31,15.15,7.92-6.34,17.43-10.3,26.86-13.82q3.27-1.17,6.57-2.11a98,98,0,0,1,20-3.51Q90,85.94,93.7,86a105.73,105.73,0,0,1,14.82,1.39Z"
           id="path54" />
        <path
           class="cls-12"
           d="M51.44,4.34c-14,2.22-25.83,11.72-37,21A45.63,45.63,0,0,0,9.84,30,33.09,33.09,0,0,0,3.43,41.4a42.27,42.27,0,0,1,7.07-10.74,59.87,59.87,0,0,1,4.6-4.6C25.61,17.64,36.7,6.55,51.47,4.7,52.23,4.62,52.21,4.26,51.44,4.34Z"
           id="path56" />
        <path
           class="cls-13"
           d="M51.65,3.36C35.11,5,24,19.23,11.41,27.16a30,30,0,0,0-4.9,6,25.42,25.42,0,0,0-3.08,7.46A36.5,36.5,0,0,1,7.28,34a45.14,45.14,0,0,1,5-5.74c12.54-9,23.63-21.69,39.4-24.52C52.44,3.65,52.42,3.29,51.65,3.36Z"
           id="path58" />
        <path
           class="cls-14"
           d="M13.71,16.14S6.17,26.51,8.33,31.91s1.56,4,2.75.19,4-9.75,3.32-12.85Z"
           id="path60" />
      </g>
    </g>
  </g>
</svg>
