<?xml version="1.0" encoding="UTF-8" standalone="no"?>
<svg
   xmlns:dc="http://purl.org/dc/elements/1.1/"
   xmlns:cc="http://creativecommons.org/ns#"
   xmlns:rdf="http://www.w3.org/1999/02/22-rdf-syntax-ns#"
   xmlns:svg="http://www.w3.org/2000/svg"
   xmlns="http://www.w3.org/2000/svg"
   xmlns:xlink="http://www.w3.org/1999/xlink"
   xmlns:sodipodi="http://sodipodi.sourceforge.net/DTD/sodipodi-0.dtd"
   xmlns:inkscape="http://www.inkscape.org/namespaces/inkscape"
   viewBox="0 0 758.74 248.55"
   id="svg2"
   version="1.1"
   inkscape:version="0.91 r13725"
   sodipodi:docname="levels__button-toMenu.svg">
  <metadata
     id="metadata78">
    <rdf:RDF>
      <cc:Work
         rdf:about="">
        <dc:format>image/svg+xml</dc:format>
        <dc:type
           rdf:resource="http://purl.org/dc/dcmitype/StillImage" />
      </cc:Work>
    </rdf:RDF>
  </metadata>
  <sodipodi:namedview
     pagecolor="#ffffff"
     bordercolor="#666666"
     borderopacity="1"
     objecttolerance="10"
     gridtolerance="10"
     guidetolerance="10"
     inkscape:pageopacity="0"
     inkscape:pageshadow="2"
     inkscape:window-width="687"
     inkscape:window-height="480"
     id="namedview76"
     showgrid="false"
     inkscape:zoom="0.50083033"
     inkscape:cx="379.37"
     inkscape:cy="124.275"
     inkscape:window-x="675"
     inkscape:window-y="132"
     inkscape:window-maximized="0"
     inkscape:current-layer="svg2" />
  <defs
     id="defs4">
    <style
       id="style6">.cls-1{fill:#210606;opacity:0.45;}.cls-2{fill:url(#linear-gradient);}.cls-3{fill:url(#linear-gradient-2);}.cls-4{fill:#27440e;opacity:0.32;}.cls-5{fill:#fffbb8;opacity:0.4;}.cls-6{fill:url(#linear-gradient-3);}.cls-7{fill:url(#linear-gradient-4);}.cls-8{fill:#faff99;opacity:0.26;}.cls-9{fill:#f9f9b4;}.cls-10,.cls-11,.cls-12,.cls-13,.cls-14,.cls-15{opacity:0.39;}.cls-10{fill:url(#linear-gradient-5);}.cls-11{fill:url(#linear-gradient-6);}.cls-12{fill:url(#linear-gradient-7);}.cls-13{fill:url(#linear-gradient-8);}.cls-14{fill:url(#linear-gradient-9);}.cls-15{fill:url(#linear-gradient-10);}</style>
    <linearGradient
       id="linear-gradient"
       x1="380.02"
       y1="-49.9"
       x2="377.63"
       y2="349.14"
       gradientUnits="userSpaceOnUse">
      <stop
         offset="0"
         stop-color="#548a38"
         id="stop9" />
      <stop
         offset="1"
         stop-color="#45471f"
         id="stop11" />
    </linearGradient>
    <linearGradient
       id="linear-gradient-2"
       x1="384.11"
       y1="-87.38"
       x2="368.75"
       y2="387.67"
       gradientUnits="userSpaceOnUse">
      <stop
         offset="0"
         stop-color="#91c22b"
         id="stop14" />
      <stop
         offset="1"
         stop-color="#617a2b"
         id="stop16" />
    </linearGradient>
    <linearGradient
       id="linear-gradient-3"
       x1="382.79"
       y1="-37.35"
       x2="369.67"
       y2="359.42"
       gradientUnits="userSpaceOnUse">
      <stop
         offset="0"
         stop-color="#c2ff1a"
         id="stop19" />
      <stop
         offset="1"
         stop-color="#5e700f"
         id="stop21" />
    </linearGradient>
    <linearGradient
       id="linear-gradient-4"
       x1="381.07"
       y1="48.89"
       x2="366.6"
       y2="541.9"
       gradientUnits="userSpaceOnUse">
      <stop
         offset="0"
         stop-color="#ade626"
         id="stop24" />
      <stop
         offset="0.99"
         stop-color="#2b7d26"
         id="stop26" />
    </linearGradient>
    <linearGradient
       id="linear-gradient-5"
       x1="72.87"
       y1="85.13"
       x2="77.72"
       y2="55.78"
       gradientUnits="userSpaceOnUse">
      <stop
         offset="0"
         stop-color="#73572e"
         id="stop29" />
      <stop
         offset="1"
         stop-color="#3b701c"
         id="stop31" />
    </linearGradient>
    <linearGradient
       id="linear-gradient-6"
       x1="86.45"
       y1="66.41"
       x2="90.66"
       y2="39.55"
       xlink:href="#linear-gradient-5" />
    <linearGradient
       id="linear-gradient-7"
       x1="81.4"
       y1="114.86"
       x2="104.67"
       y2="66.61"
       xlink:href="#linear-gradient-5" />
    <linearGradient
       id="linear-gradient-8"
       x1="660.35"
       y1="209.42"
       x2="686.93"
       y2="153.07"
       xlink:href="#linear-gradient-5" />
    <linearGradient
       id="linear-gradient-9"
       x1="683.75"
       y1="201.77"
       x2="694.06"
       y2="180.38"
       xlink:href="#linear-gradient-5" />
    <linearGradient
       id="linear-gradient-10"
       x1="691.6"
       y1="175.61"
       x2="697.69"
       y2="155.44"
       xlink:href="#linear-gradient-5" />
    <filter
       style="color-interpolation-filters:sRGB;"
       inkscape:label="Lightness-Contrast"
       id="filter4206">
      <feColorMatrix
         values="1 0 0 0.0505 -0 0 1 0 0.0505 -0 0 0 1 0.0505 -0 0 0 0 1 0"
         id="feColorMatrix4208" />
    </filter>
  </defs>
  <title
     id="title38">levels_in_menu</title>
  <g
     id="Layer_2"
     data-name="Layer 2"
     style="filter:url(#filter4206)">
    <g
       id="Ñëîé_1"
       data-name="Ñëîé 1">
      <path
         class="cls-1"
         d="M758.6,61l-.06-1-.38-.88a116.17,116.17,0,0,0-22.68-34.45l-.72-.75-.94-.43c-7.33-3.37-17.26-6.64-30.36-10-6.87-1.76-16.42-2.62-29.22-2.62-11.36,0-22.83.68-31.21,1.18-4,.24-7.27.43-9.29.48C631.08,12.46,130.2,11.1,98.6,11.1c-66.45,0-72.43,5.73-75.31,8.49C10.66,31.69,0,60.29,0,71.84,0,81.92,13.64,210.38,14.22,216.77l.14,1.49.88,1.21c.65.9,16.2,22.13,38,26.47l.53.1h.54c.94,0,8.17.14,18.17.34,36,.7,580.82,2.16,617.8,2.16h0c20.76,0,21.74-.42,23.09-1,4.55-1.95,21.79-12.76,25.49-25.25C741.5,213.34,760.55,91.77,758.6,61Z"
         id="path42" />
      <path
         class="cls-2"
         d="M758.6,50.1l-.06-1-.38-.88a116.16,116.16,0,0,0-22.68-34.45l-.72-.75-.94-.43c-7.33-3.37-17.26-6.64-30.36-10C696.6.86,687,0,674.24,0,662.88,0,651.41.68,643,1.18c-4,.24-7.27.43-9.29.48C631.08,1.53,130.2.18,98.6.18,32.15.18,26.17,5.91,23.29,8.66,10.66,20.76,0,49.37,0,60.92,0,71,13.64,199.45,14.22,205.84l.14,1.49.88,1.21c.65.9,16.2,22.13,38,26.47l.53.1h.54c.94,0,8.17.14,18.17.34,36,.7,580.82,2.16,617.8,2.16h0c20.76,0,21.74-.42,23.09-1,4.55-1.95,21.79-12.76,25.49-25.25C741.5,202.41,760.55,80.84,758.6,50.1Z"
         id="path44" />
      <path
         class="cls-3"
         d="M731.54,17.6c-7-3.22-16.49-6.36-29.44-9.68-19-4.89-58.29-1-68.42-.8,0,0-594.85-5.77-606.6,5.49S5.46,51,5.46,60.92,19.66,205.35,19.66,205.35s14.69,20.34,34.64,24.31c5.35,0,652.31,3.91,656.92,1.94s19.47-11.87,22.4-21.78c2.79-9.44,21.42-129.65,19.53-159.38A110.46,110.46,0,0,0,731.54,17.6Z"
         id="path46" />
      <path
         class="cls-4"
         d="M734,208.4C710,201.24,708,189.67,708,189.67s-639.65-14.5-659-3.22c-9.87,5.76-20.85,13.19-29.25,19.09,1.5,2,15.65,20.37,34.5,24.12,5.35,0,652.31,3.91,656.92,1.94s19.47-11.87,22.4-21.78C733.71,209.5,733.82,209,734,208.4Z"
         id="path48" />
      <path
         class="cls-4"
         d="M701.73,232.09c-10.15-15.55-22.63-34.64-27.42-36.48-7.57-2.91-570.1-12.23-586.41,7-10,11.76-14.28,21.55-16.12,27.39C110.5,230.73,671.92,232.52,701.73,232.09Z"
         id="path50" />
      <path
         class="cls-5"
         d="M726.26,15.38A215.62,215.62,0,0,0,702.1,7.92c-19-4.89-58.29-1-68.42-.8,0,0-578.39-5-602.69,3.42a14.41,14.41,0,0,0,3.55,8.16c7.52,8.59,15,11.28,31.15,15.58s40.82,2.15,66.07,4.3S693,44.48,698.9,40.72C703.88,37.55,716.84,22.59,726.26,15.38Z"
         id="path52" />
      <path
         class="cls-6"
         d="M720,67.3C712.6,66,704.35,46,703.91,45.15s5.65-13.9,13.9-20.85c4.27-3.59,10.39-4.75,15.31-5q-.79-.86-1.58-1.69c-2.46-1.13-5.24-2.25-8.36-3.38a37.37,37.37,0,0,1-3.63,4.87c-11.72,13.46-27.36,19.11-33,18.67S84.17,33.86,76.79,33.86,49.86,24.31,39.44,19.1c-4-2-5.46-5.66-5.7-9.37-3.18.81-5.5,1.76-6.67,2.88A42.6,42.6,0,0,0,22.44,18c8.31,5.55,19.82,15,19.17,21.11-.87,8.25-8.25,14.77-20,13A22,22,0,0,1,8.76,45.56a80.49,80.49,0,0,0-2.68,10c6.55,0,9.79.45,18.6,5.22C35.1,66.43,38.57,81.05,39.88,118s5.21,62.53-6.95,73.39c-5.35,4.78-10.28,5.35-14.13,4.49l.86,9.5s.56.77,1.6,2c9.23-7.45,23-18,27.3-16.9,6.51,1.74,24.32,7.38,29.1,16.94,3,6.05-7.2,15.94-15.1,22.38l9.08.17c6.27-7.91,15.32-18.83,17.31-20.81,3-3,30.4.87,46.9,0S666.13,207,682.2,215.24c10,5.12,11.74,12.24,11.66,16.91,10.06,0,16.52-.19,17.36-.55.32-.14.69-.31,1.1-.52-11-6.6-21.88-17.73-22.73-18.87-1.3-1.74,4.78-11.29,8.68-13.9s9.55-2.61,18.67,3.91a90.18,90.18,0,0,1,14.18,12.72,19.33,19.33,0,0,0,2.49-5.11c.23-.77.56-2.44,1-4.84-7.52-2.13-16.44-6.27-19.39-8.41-4.78-3.47-3.91-9.12-5.21-20.84S723,89.88,726.06,79s11.29-14.77,20.41-18.67c3.2-1.37,5.32-1.19,6.74-.38.1-3.84.09-7.07-.07-9.53-.9-2.07-1.83-4.05-2.79-6C740.87,55.28,725.07,68.2,720,67.3Z"
         id="path54" />
      <path
         class="cls-7"
         d="M65.74,40.31s-16,16.81-21.58,35.27c-1.1,3.65,6.51,107.37,13,111.06s21.38,17.54,25.1,17.54S679.54,207,679.54,207s22.31-12,24.17-17.54S717.58,87.55,716.08,82.78c-6.7-21.34-13.8-33.69-20.74-37.66C684.54,38.93,77.3,37.85,65.74,40.31Z"
         id="path56" />
      <path
         class="cls-8"
         d="M689.85,50.1c-10.07-5.77-607.9-6.78-618.67-4.48,0,0-14.91,15.66-20.1,32.86-.36,1.19.27,16.26,1.51,35.5,5.87-10.15,19.69-27.59,45.07-28,35-.5,507.51,12.33,548,37.52,33.57,20.9,42.16,25.81,57.26,15.92,3.45-33.16,7.1-51.64,6.27-54.29C702.92,65.3,696.31,53.8,689.85,50.1Z"
         id="path58" />
      <path
         class="cls-9"
         d="M689.85,50.1c-10.07-5.77-607.9-6.78-618.67-4.48,0,0-14.91,15.66-20.1,32.86a5.16,5.16,0,0,0-.09,1c6.45-8.84,21.8-28.59,31.36-30.67C94.7,46.09,683.86,59,687.09,59S707,91.75,708,97.65a10.63,10.63,0,0,0,.58,1.89c.59-8,.84-13.45.55-14.36C702.92,65.3,696.31,53.8,689.85,50.1Z"
         id="path60" />
      <path
         class="cls-8"
         d="M116,125.62C87.72,104.08,65.56,113.8,53.68,123c2.35,29.59,5.58,59.34,8.56,61,5.93,3.36,19.48,16,22.86,16,2.32,0,525.93,1.19,559.45,1.93C624.85,183.87,148.84,150.62,116,125.62Z"
         id="path62" />
      <path
         class="cls-10"
         d="M72.59,68.48s-9.36,6.9-5.91,12.81,7.39,3,12.31-1S87.86,58.14,72.59,68.48Z"
         id="path64" />
      <path
         class="cls-11"
         d="M89.34,52.22s-14.78,3-11.82,6.9,9.14,5.25,16.25,3.94C96.24,62.61,105.59,50.75,89.34,52.22Z"
         id="path66" />
      <path
         class="cls-12"
         d="M97.12,76.39s-10.77-.16-12.81,8.12-14.21,21.55-5.78,21.71,18.9-8,24.2-13.27S112.42,76.24,97.12,76.39Z"
         id="path68" />
      <path
         class="cls-13"
         d="M678.5,168.16s-31.62,21.89-17,25.54,9.73,5.47,20.67-7.3S688.84,165.73,678.5,168.16Z"
         id="path70" />
      <path
         class="cls-14"
         d="M691.88,180.32s-12.77,14-4.86,13.38S701.61,176.67,691.88,180.32Z"
         id="path72" />
      <path
         class="cls-15"
         d="M698,159s-9.73-3-7.3,4.86,4.87,12.16,8.51,4.26S701,160.25,698,159Z"
         id="path74" />
    </g>
  </g>
</svg>
