<?xml version="1.0" encoding="UTF-8" standalone="no"?>
<svg
   xmlns:dc="http://purl.org/dc/elements/1.1/"
   xmlns:cc="http://creativecommons.org/ns#"
   xmlns:rdf="http://www.w3.org/1999/02/22-rdf-syntax-ns#"
   xmlns:svg="http://www.w3.org/2000/svg"
   xmlns="http://www.w3.org/2000/svg"
   xmlns:xlink="http://www.w3.org/1999/xlink"
   xmlns:sodipodi="http://sodipodi.sourceforge.net/DTD/sodipodi-0.dtd"
   xmlns:inkscape="http://www.inkscape.org/namespaces/inkscape"
   viewBox="0 0 79.17 63.26"
   id="svg2"
   version="1.1"
   inkscape:version="0.91 r13725"
   sodipodi:docname="pause__button-toMenu.svg">
  <metadata
     id="metadata119">
    <rdf:RDF>
      <cc:Work
         rdf:about="">
        <dc:format>image/svg+xml</dc:format>
        <dc:type
           rdf:resource="http://purl.org/dc/dcmitype/StillImage" />
      </cc:Work>
    </rdf:RDF>
  </metadata>
  <sodipodi:namedview
     pagecolor="#ffffff"
     bordercolor="#666666"
     borderopacity="1"
     objecttolerance="10"
     gridtolerance="10"
     guidetolerance="10"
     inkscape:pageopacity="0"
     inkscape:pageshadow="2"
     inkscape:window-width="687"
     inkscape:window-height="480"
     id="namedview117"
     showgrid="false"
     inkscape:zoom="3.7306356"
     inkscape:cx="39.584999"
     inkscape:cy="31.629999"
     inkscape:window-x="793"
     inkscape:window-y="196"
     inkscape:window-maximized="0"
     inkscape:current-layer="svg2" />
  <defs
     id="defs4">
    <style
       id="style6">.cls-1{isolation:isolate;}.cls-10,.cls-2,.cls-3{fill:#664538;}.cls-3{opacity:0.37;}.cls-14,.cls-3,.cls-7{mix-blend-mode:multiply;}.cls-4{fill:#89624d;}.cls-5{fill:#7e5843;}.cls-12,.cls-13,.cls-14,.cls-6,.cls-7{fill:#684536;}.cls-6{opacity:0.65;}.cls-18,.cls-7{opacity:0.29;}.cls-18,.cls-8{fill:#b89e82;}.cls-8{opacity:0.25;}.cls-9{fill:#7b523b;}.cls-10{opacity:0.59;}.cls-11,.cls-16{opacity:0.66;}.cls-11{fill:url(#linear-gradient);}.cls-12{opacity:0.85;}.cls-12,.cls-17{mix-blend-mode:screen;}.cls-13{opacity:0.95;}.cls-14{opacity:0.33;}.cls-15{opacity:0.74;}.cls-16{fill:url(#linear-gradient-2);}.cls-17{opacity:0.35;fill:url(#linear-gradient-3);}.cls-19{fill:#00ffc9;stroke:#664538;stroke-miterlimit:10;}</style>
    <linearGradient
       id="linear-gradient"
       x1="41.01"
       y1="-67.65"
       x2="41.01"
       y2="70.86"
       gradientUnits="userSpaceOnUse">
      <stop
         offset="0"
         stop-color="#ac8f73"
         id="stop9" />
      <stop
         offset="0.99"
         stop-color="#6a3722"
         id="stop11" />
    </linearGradient>
    <linearGradient
       id="linear-gradient-2"
       x1="20.27"
       y1="-10.41"
       x2="60.83"
       y2="69.23"
       xlink:href="#linear-gradient" />
    <linearGradient
       id="linear-gradient-3"
       x1="25.27"
       y1="-12.46"
       x2="64.51"
       y2="64.58"
       xlink:href="#linear-gradient" />
    <filter
       style="color-interpolation-filters:sRGB;"
       inkscape:label="Lightness-Contrast"
       id="filter4247">
      <feColorMatrix
         values="1 0 0 0.0505 -0 0 1 0 0.0505 -0 0 0 1 0.0505 -0 0 0 0 1 0"
         id="feColorMatrix4249" />
    </filter>
  </defs>
  <title
     id="title15">Asset 6</title>
  <g
     class="cls-1"
     id="g17"
     style="filter:url(#filter4247)">
    <g
       id="Layer_2"
       data-name="Layer 2">
      <g
         id="Layer_1-2"
         data-name="Layer 1">
        <path
           class="cls-2"
           d="M6.89,50a42.86,42.86,0,0,0,3,4c11.22-.61,22.45.35,33.63,1.24,6.31.51,12.63.34,18.94.44.75-.15,1.49-.29,2.24-.38a3.44,3.44,0,0,1,1.17-.21h1.46c1.59-.07,3.18-.06,4.78,0l.34-.11a23,23,0,0,0,1.46-3.16c.28-.66.54-1.32.79-2,.73-2,1.34-4,1.89-6,.26-.7.51-1.41.74-2.12A35.84,35.84,0,0,0,79,32.88a19.92,19.92,0,0,0,.15-2.29,20.4,20.4,0,0,0-3.42-11.27,12.82,12.82,0,0,0-1.13-1.67c-2.78-2.83-3-7-5.34-10.22a25.43,25.43,0,0,0-9-6.8A8.25,8.25,0,0,0,58.58.12,8.07,8.07,0,0,0,56.75,0C51,.24,45.38.46,39.48.2L37.15.08a49.38,49.38,0,0,0-7,.1c-.71,0-1.42.09-2.12.18A29.07,29.07,0,0,0,21.79,1.8a20.79,20.79,0,0,0-2.11.82A27.91,27.91,0,0,0,9.18,11.35q-.74.85-1.43,1.74a27.07,27.07,0,0,0-4.19,8c-.32.7-.63,1.4-.92,2.1A46.86,46.86,0,0,0,.48,29.77a12.53,12.53,0,0,0-.42,2.16c-.58,5.72,3.08,11.32,5.79,16.34Q6.34,49.15,6.89,50Z"
           id="path21" />
        <path
           class="cls-2"
           d="M55.08,62.6a14,14,0,0,1-1.67-.1c-.56-.06-1.11-.15-1.66-.25s-1.1-.23-1.66-.34l-2.11,0c-2.33.09-4.68.17-7,.21l-2.36,0a55.22,55.22,0,0,0-6.74,0c-.78,0-1.55.06-2.33.07A14.24,14.24,0,0,1,17.9,58.9c-.52-.42-1-.87-1.52-1.33a58.18,58.18,0,0,1-7.31-8.71c-.34-.53-.67-1.07-1-1.62C5.57,42.56,2.16,37.34,2.7,32a11.63,11.63,0,0,1,.39-2,43.41,43.41,0,0,1,2-6.11c.27-.65.56-1.3.86-2a25.18,25.18,0,0,1,3.91-7.5q.63-.84,1.33-1.63A26.06,26.06,0,0,1,21,4.64a19.7,19.7,0,0,1,2-.77,27.06,27.06,0,0,1,5.86-1.35q1-.12,2-.17a46.5,46.5,0,0,1,6.5-.09l2.18.12c5.51.24,10.7,0,16.12-.17a7.48,7.48,0,0,1,1.7.1,7.72,7.72,0,0,1,1.61.46A23.74,23.74,0,0,1,67.3,9.12c2.16,3,2.38,6.9,5,9.54a12,12,0,0,1,1.06,1.56,19,19,0,0,1,3.19,10.52,18.27,18.27,0,0,1-.14,2.14,33.41,33.41,0,0,1-1.57,8.23c-.21.66-.44,1.32-.69,2-.52,1.86-1.08,3.76-1.76,5.62-.23.62-.47,1.24-.74,1.85-2.16,5.86-7.36,11.74-14.57,12A14,14,0,0,1,55.08,62.6Z"
           id="path23" />
        <path
           class="cls-3"
           d="M55.41,63.25a14.34,14.34,0,0,1-1.71-.1c-.57-.06-1.13-.15-1.7-.26s-1.13-.23-1.69-.35l-2.16-.05c-2.38.09-4.77.18-7.17.22l-2.42,0a56.11,56.11,0,0,0-6.89,0c-.79,0-1.59.06-2.38.07a14.55,14.55,0,0,1-11.86-3.38q-.8-.64-1.55-1.36a59.29,59.29,0,0,1-7.46-8.89c-.35-.54-.68-1.09-1-1.65C4.84,42.78,1.35,37.45,1.91,32a11.81,11.81,0,0,1,.4-2.06,44.45,44.45,0,0,1,2.06-6.24c.28-.67.57-1.33.87-2a25.74,25.74,0,0,1,4-7.66q.65-.86,1.36-1.66A26.62,26.62,0,0,1,20.62,4a20.24,20.24,0,0,1,2-.78,27.67,27.67,0,0,1,6-1.38q1-.12,2-.17a47.51,47.51,0,0,1,6.64-.09l2.22.12c5.63.24,10.93,0,16.47-.17a7.67,7.67,0,0,1,1.74.1,7.91,7.91,0,0,1,1.65.47,24.26,24.26,0,0,1,8.55,6.48c2.21,3.11,2.43,7.05,5.09,9.75A12.18,12.18,0,0,1,74.06,20,19.44,19.44,0,0,1,77.32,30.7a18.64,18.64,0,0,1-.14,2.19,34.18,34.18,0,0,1-1.61,8.4c-.22.68-.45,1.35-.7,2-.53,1.9-1.1,3.85-1.8,5.74q-.35.95-.75,1.89c-2.21,6-7.52,12-14.88,12.23A14.2,14.2,0,0,1,55.41,63.25Z"
           id="path25" />
        <path
           class="cls-4"
           d="M23,61.45a11.69,11.69,0,0,1-5.37-3.27c-.49-.49-.95-1-1.41-1.56-2.21-2.81-5-5.46-7.11-8.5-.34-.5-.67-1-1-1.56C6.35,42.52,3.49,38,3.25,33.44a11,11,0,0,1,.07-2,36.1,36.1,0,0,1,2-7.57c.23-.61.48-1.21.74-1.82a21.54,21.54,0,0,1,3.87-7.5c.44-.56.91-1.09,1.39-1.62a26.82,26.82,0,0,1,9.79-7.61q1-.42,1.95-.74a20.93,20.93,0,0,1,6.16-1.47c.69-.06,1.38-.1,2.07-.11,2.19.1,4.44,0,6.71,0l2.29-.09a51.63,51.63,0,0,1,14,0c.74.13,1.46.29,2.15.49.51.15,1,.32,1.5.5,7.7,1.35,11.81,7.64,13.7,14.24.34.67.67,1.34,1,2A16.06,16.06,0,0,1,76,30.68a19.11,19.11,0,0,1-.18,2.18,37.08,37.08,0,0,1-1.29,8.07c-.18.65-.38,1.3-.59,1.95-.3,1.45-.66,2.92-1.11,4.38-.22.73-.47,1.45-.75,2.16C69.9,56.61,63.18,62.3,55.07,61.87a13.38,13.38,0,0,1-2.44-.44c-.65-.06-1.31-.14-2-.23s-1.39-.06-2.1-.07c-2,.11-4,.2-6,.25l-2,0c-1.92.1-3.88.1-5.85.07l-2,0c-2.7,0-5.51-.37-8.21,0C23.55,61.45,23,61.45,23,61.45Z"
           id="path27" />
        <path
           class="cls-5"
           d="M55.89,61.29c-.68-.11-1.29-.16-1.89-.23a10.17,10.17,0,0,1-1.78-.35l-1.8-.32a75.27,75.27,0,0,0-8.59.71c-.58.05-1.16.09-1.75.12-2.36-.16-4.87-.07-7.37-.05-.83,0-1.67,0-2.52,0A15.53,15.53,0,0,1,19,58.69a20.25,20.25,0,0,1-1.83-1.35,32.49,32.49,0,0,1-7.68-8.66c-.32-.56-.62-1.13-.9-1.71C7,42.78,4.23,38.54,3.74,34.14a12,12,0,0,1-.06-1.89,26,26,0,0,1,1.74-7.88c.24-.62.51-1.24.78-1.86a21.45,21.45,0,0,1,4-7.83c.46-.57.95-1.12,1.46-1.66A24,24,0,0,1,21.84,5.51c.66-.25,1.33-.47,2-.67a21.59,21.59,0,0,1,6-1.39c.68-.06,1.36-.1,2.06-.13,1.61-.14,3.22-.22,4.83-.25Q38,3,39.2,3c4.52.48,10-.57,14.76-.22a19.17,19.17,0,0,1,2.32.31,11.08,11.08,0,0,1,2,.44C65.23,5.09,68.2,11.49,71,17.08c.32.62.63,1.23.94,1.83a17.39,17.39,0,0,1,3.88,11.49q0,1-.14,2a34.56,34.56,0,0,1-1.17,8.23c-.18.66-.37,1.31-.59,1.95-.38,1.43-.77,2.92-1.23,4.4-.23.74-.48,1.48-.75,2.21-2.07,6-6.83,12.32-14.43,12.22C57,61.38,56.47,61.35,55.89,61.29Z"
           id="path29" />
        <path
           class="cls-6"
           d="M24.45,61c-.67-1.62-2.66-3.62-4.26-3.92a1.53,1.53,0,0,0-1.4.34,1,1,0,0,0-.31,1.34c.69,1.28,3.95,2.3,5.75,2.25Z"
           id="path31" />
        <path
           class="cls-7"
           d="M23.21,60.78A31.26,31.26,0,0,1,17.72,58c1.73,1.42,3.68,3,6.25,3Z"
           id="path33" />
        <path
           class="cls-8"
           d="M3.38,33.3c0,.58,0,1.59,0,1.59a2.18,2.18,0,0,0,1.89-.2,1.82,1.82,0,0,0,.55-1.41c-.06-2-.71-4.08-.92-6.11C4.73,28.4,4.08,29.82,3.88,31a8.16,8.16,0,0,0-.49,2.32A.19.19,0,0,1,3.38,33.3Z"
           id="path35" />
        <path
           class="cls-6"
           d="M10,46.44c-1.61-3.22-.75-7.08-3.13-10.33-.65-.81-3.25-1.22-2.82.2a69.24,69.24,0,0,0,4.8,11c.29.62.6,1.24.93,1.84,2,3.62,4.88,6.73,8.78,6.86a28.09,28.09,0,0,1-6.86-6.51,15.22,15.22,0,0,1-1-1.67Z"
           id="path37" />
        <path
           class="cls-7"
           d="M8.4,45.57c-1.29-3.17-1.73-6.82-4.54-9.26C6,40,6.89,44,9,47.71q.44.79,1,1.55a42,42,0,0,0,6.2,6.95,66.68,66.68,0,0,1-6.12-7.37q-.54-.79-1-1.61C8.83,46.71,8.61,46.16,8.4,45.57Z"
           id="path39" />
        <path
           class="cls-6"
           d="M61.84,60.83a5.06,5.06,0,0,0,2.42-1.37c-.65.41-1.73.2-2.4.88A.81.81,0,0,1,61.84,60.83Z"
           id="path41" />
        <path
           class="cls-7"
           d="M57.44,59.33a11.89,11.89,0,0,0-4.73-.71q-1.12.34-2.25.62A47.36,47.36,0,0,1,44,60.53c-.73.09-1.47.15-2.21.19-2,0-3.94,0-5.89-.14-.65,0-1.3-.11-1.94-.2-3.44-.31-6.69-2.34-10.15-2.14a13.35,13.35,0,0,0,8,3.34,21.15,21.15,0,0,0,2.15.07c2.18,0,4.39-.32,6.24-.42l1.35-.12c2.68-.25,5.28-.56,7.35-.53.68,0,1.35,0,2,.07a6.52,6.52,0,0,0,2.6.15,4.56,4.56,0,0,0,2.23-.91A3.83,3.83,0,0,1,57.44,59.33Z"
           id="path43" />
        <path
           class="cls-9"
           d="M60.25,59.88c-1.82-.22-3.56-.22-4.64,1.41,1.73-.2,3.9.61,5.45-.89C61,60.19,60.74,60,60.25,59.88Z"
           id="path45" />
        <path
           class="cls-7"
           d="M6.71,27.14a7.43,7.43,0,0,1-.06-1.68A8.42,8.42,0,0,1,7,23.86c1.05-2.5,2-5.17,3.22-7.62.32-.61.65-1.21,1-1.79,1.32-1.88,2.62-3.91,4.57-5.12a22.36,22.36,0,0,0-3.75,3,17.41,17.41,0,0,0-1.41,1.56A31.26,31.26,0,0,0,6,23.13a9.69,9.69,0,0,0-.37,1.93,8.2,8.2,0,0,0,.66,4C6.43,28.44,6.61,27.72,6.71,27.14Z"
           id="path47" />
        <path
           class="cls-10"
           d="M63.1,5.74c1,.94,1.82,1.75,2.68,2.76,2,3,2.62,6.37,4.37,9.31a13.31,13.31,0,0,0,1.21,1.71c1.56,3,3.72,5.62,4.16,9.07,0-3-1.3-5.89-2.9-8.75-.36-.57-.74-1.12-1.14-1.69C69,13,66.65,7.29,61.15,4.13,61.79,4.61,62.47,5.18,63.1,5.74Z"
           id="path49" />
        <path
           class="cls-11"
           d="M65.15,58.59a22.5,22.5,0,0,0,6.44-10.24c.2-.62.39-1.25.57-1.88.54-1.89,1-3.82,1.44-5.71q.23-1,.39-2a30.12,30.12,0,0,0,.29-6.22c.13-.65.23-1.29.31-1.93a13.32,13.32,0,0,0-3.17-11.05c-.37-.6-.72-1.22-1.06-1.85C67.32,12,65.17,5.28,57.74,3.63a12.57,12.57,0,0,0-2.16-.55C50.39,2.21,44,4,38.72,2.82c-.47,0-.94-.05-1.41-.05a67.71,67.71,0,0,0-7,.52q-1,.12-1.88.3A36,36,0,0,0,23,5.13,18.58,18.58,0,0,0,21.11,6a23.5,23.5,0,0,0-9,8.41c-.45.59-.86,1.2-1.25,1.82a20.82,20.82,0,0,0-3,8.2c-.15.68-.27,1.35-.35,2A21.39,21.39,0,0,0,8,34.64c.1.72.19,1.42.32,2.12A33.87,33.87,0,0,0,11.95,47c.32.71.65,1.39,1,2a15.53,15.53,0,0,0,8.79,7.2c.61.28,1.25.54,1.89.77a56.63,56.63,0,0,0,10.2,2.47q1,.22,2,.36a24.69,24.69,0,0,0,6.27.11c.73-.05,1.45-.15,2.18-.27a36.06,36.06,0,0,0,6.47-1.78,15.06,15.06,0,0,1,1.73-.16c4.18.13,7.86,2.76,12,1.28A2.94,2.94,0,0,0,65.15,58.59Z"
           id="path51" />
        <path
           class="cls-12"
           d="M57.12,50.26c.15.3.37.41.59.3.77-.83.22-2-.25-2.75a5.87,5.87,0,0,0-.42-.57c-.14-.18-.3-.35-.44-.5a4.25,4.25,0,0,0-.72-.51,7.52,7.52,0,0,0-.69-.36l-.68-.29a1.55,1.55,0,0,0-1.06.09,2.37,2.37,0,0,0-.81.64,1.5,1.5,0,0,0-.31.63,2.55,2.55,0,0,0,2.32,2.66,3.4,3.4,0,0,0,.8.06,3,3,0,0,1,.83.21,4.7,4.7,0,0,1,.77.42S57.12,50.28,57.12,50.26Z"
           id="path53" />
        <path
           class="cls-13"
           d="M57.06,49.77c1.2.37,1-1.08.77-1.67a3.68,3.68,0,0,0-.31-.66,3.86,3.86,0,0,0-.42-.57,4.79,4.79,0,0,0-1.07-1,5.75,5.75,0,0,0-.74-.38,7.17,7.17,0,0,0-.76-.28,2.12,2.12,0,0,0-.72,0,2.38,2.38,0,0,0-.76.26,2.12,2.12,0,0,0-.63.75,1.48,1.48,0,0,0-.14.91c.18,1.3,1.37,1.73,2.5,2l.66.15a6,6,0,0,0,.77.27c.26.08.51.15.75.24A.08.08,0,0,0,57.06,49.77Z"
           id="path55" />
        <path
           class="cls-14"
           d="M52.69,47a1.75,1.75,0,0,1,.6-.7,1.79,1.79,0,0,1,.8-.28,2.77,2.77,0,0,1,.9.06,3.72,3.72,0,0,1,1.2.55,6.3,6.3,0,0,1,.53.41,5.71,5.71,0,0,1,.58.57c.18.2.34.41.51.62a2.79,2.79,0,0,1-.62-1,4.11,4.11,0,0,0-.76-1,3.8,3.8,0,0,0-.54-.44,3.2,3.2,0,0,0-.63-.33,3.37,3.37,0,0,0-.74-.21,3.54,3.54,0,0,0-.8,0,1.79,1.79,0,0,0-.8.34,1.68,1.68,0,0,0-.63,1,1.38,1.38,0,0,0,.26,1.13A1.19,1.19,0,0,1,52.69,47Z"
           id="path57" />
        <path
           class="cls-12"
           d="M37.06,58.06c1.09-.93,1.6-3,.78-4.13a1.91,1.91,0,0,0-1.29-.76,3.29,3.29,0,0,0-3.46,3c0,1,.87,1.42,1.73,1.77a7,7,0,0,0,2.19.18A.19.19,0,0,0,37.06,58.06Z"
           id="path59" />
        <path
           class="cls-13"
           d="M37,57.74c.85-1.32,2.15-3.36.85-4.78a1.81,1.81,0,0,0-1.33-.43c-1.49,0-1.92,1.24-2.79,2.06-.87,1.22-.22,2.64,1.19,3.22a3.26,3.26,0,0,0,2,0A.21.21,0,0,0,37,57.74Z"
           id="path61" />
        <path
           class="cls-14"
           d="M34.07,55.19A13.45,13.45,0,0,1,35.51,54a1.47,1.47,0,0,1,1.69,0c.65.41.65,1.22.65,1.83a1.87,1.87,0,0,0,.65-2,1.57,1.57,0,0,0-2-1,4.45,4.45,0,0,0-3,3.35A2.31,2.31,0,0,1,34.07,55.19Z"
           id="path63" />
        <path
           class="cls-12"
           d="M61.25,15.19a2.07,2.07,0,0,0,.47-2.48,1.15,1.15,0,0,0-.77-.46,2,2,0,0,0-2.07,1.82c0,.61.52.85,1,1.06a4.2,4.2,0,0,0,1.31.11A.09.09,0,0,0,61.25,15.19Z"
           id="path65" />
        <path
           class="cls-13"
           d="M61.22,15c.51-.79,1.29-2,.51-2.86a1.09,1.09,0,0,0-.8-.26c-.89,0-1.15.74-1.67,1.23A1.27,1.27,0,0,0,60,15a2,2,0,0,0,1.21,0A.13.13,0,0,0,61.22,15Z"
           id="path67" />
        <path
           class="cls-14"
           d="M59.46,13.47a8,8,0,0,1,.86-.73.88.88,0,0,1,1,0c.39.24.39.73.39,1.09a1.13,1.13,0,0,0,.39-1.22A.94.94,0,0,0,60.95,12a2.67,2.67,0,0,0-1.79,2A1.35,1.35,0,0,1,59.46,13.47Z"
           id="path69" />
        <path
           class="cls-12"
           d="M64.27,57.81c.64-1.4-1.09-1.81-2-2a.69.69,0,0,0-.65,1,2.36,2.36,0,0,0,2.55,1Z"
           id="path71" />
        <path
           class="cls-13"
           d="M64.34,57.75a1.2,1.2,0,0,0,.58.09c.87-1.42-1.3-1.62-2.16-1.83-.22,0-.65.61-.65.81a2.1,2.1,0,0,0,2.18.95Z"
           id="path73" />
        <path
           class="cls-14"
           d="M61.93,56.24c.82.57,2.12.57,3,1.18-.22-1-2.38-2.64-3.19-1C61.72,56.27,61.78,56.21,61.93,56.24Z"
           id="path75" />
        <g
           class="cls-15"
           id="g77">
          <path
             class="cls-12"
             d="M25.2,8.79a1.33,1.33,0,0,0,.1-2.11c-.87-.61-1.95.2-2.76.38-.6.28-.92.74-.49,1.45a1.22,1.22,0,0,0,1.27.66,10.36,10.36,0,0,0,1.79-.29A.32.32,0,0,0,25.2,8.79Z"
             id="path79" />
          <path
             class="cls-13"
             d="M25.28,8.56a1.84,1.84,0,0,0,.88-1.27c-.22-1-2.16-1.42-3-.62-.65.41-1.08.82-.87,1.63A1.47,1.47,0,0,0,23.52,9a3.72,3.72,0,0,0,1.68-.31A.35.35,0,0,0,25.28,8.56Z"
             id="path81" />
          <path
             class="cls-14"
             d="M22.32,7.61a2.7,2.7,0,0,1,3.84.09c-.22-1.22-1.73-1.42-2.82-1A2.27,2.27,0,0,0,21.93,8,.88.88,0,0,1,22.32,7.61Z"
             id="path83" />
        </g>
        <g
           class="cls-15"
           id="g85">
          <path
             class="cls-12"
             d="M73,30.37c.6-2,1.68-5.82-.7-5.62-2.16.2-3,4.47-.87,6.29.43.2,1.08-.2,1.43-.44A1.93,1.93,0,0,0,73,30.37Z"
             id="path87" />
          <path
             class="cls-13"
             d="M73.25,29.64c.32-1.65,1.4-4.9-.76-4.9-2.38-.2-1.73,3.86-.22,5.28.22.2.65,0,.88-.15C73.18,29.82,73.24,29.68,73.25,29.64Z"
             id="path89" />
          <path
             class="cls-14"
             d="M71.76,26.43c.3-.67.3-1.28.74-1.68,1.08-.41,1.08,1,1.08,1.83,0-1,0-2.44-.87-2.44-1.73-.2-.65,2.23-1.73,3.17A3.43,3.43,0,0,1,71.76,26.43Z"
             id="path91" />
        </g>
        <g
           class="cls-15"
           id="g93">
          <path
             class="cls-12"
             d="M17.7,40.86c1.1-.28,2.84-1.29,1.75-2.1-1.52-1-5.41-.81-5.2,1.22,0,1.42,1.95,1.42,3.28,1Z"
             id="path95" />
          <path
             class="cls-13"
             d="M18,40.59c.62-.42,2.57-1.23,1.27-2.24-1.73-1-5.63-.41-4.77,2,.43,1.22,2.17.2,3.34.3Z"
             id="path97" />
          <path
             class="cls-14"
             d="M14.82,39.33c1.16-1.19,3.76-1.39,4.84.24.87-1.22-1.08-1.83-1.95-1.83-1.73-.2-3.46.61-3.58,2.17A2.25,2.25,0,0,1,14.82,39.33Z"
             id="path99" />
        </g>
        <path
           class="cls-16"
           d="M10.37,41.63a13.87,13.87,0,0,0-.88-3.73c-.21-.6-.43-1.19-.62-1.79-1.11-2.88-.84-5.9-.59-8.82,0-.58.1-1.16.13-1.74a15.3,15.3,0,0,1,2.51-9.27q.52-.8,1.11-1.54a24.93,24.93,0,0,1,9.5-8.68c.64-.31,1.29-.59,2-.84a17.29,17.29,0,0,1,6-1.65c.67-.07,1.35-.1,2-.12,2.17-.05,4.36-.11,6.55-.13l2.21,0c3.44.48,8.08-.25,12.27-.21.84,0,1.66,0,2.44.13a13,13,0,0,1,1.92.36c7.59,1.51,10.63,8.07,13.68,14,.34.65.68,1.3,1,1.93a5.84,5.84,0,0,1,1.53,4.88c-.22,1.83-1.3,3.65-3.25,3.86-3.47.41-6.71-.41-10.17-.6l-2.43-.15a36.06,36.06,0,0,0-6.61.17,10.72,10.72,0,0,0-2.06.5q-1,.27-2,.63c-.78.24-1.5.49-2.22.74l-2,.75c-2.84,1.09-5.71,2.23-8.49,3.33L32.87,34l-1.08.43-4,1.58-1.35.55c-.66.27-1.33.53-2,.77-4.13,2.06-8.89,1.45-12.83,3.65C11.15,41.18,10.74,41.41,10.37,41.63Z"
           id="path101" />
        <path
           class="cls-17"
           d="M11.81,15.32a21.47,21.47,0,0,1,9-8.52A18.88,18.88,0,0,1,22.73,6,23.43,23.43,0,0,1,28.51,4.3q1-.16,2-.24c2.22-.21,4.44-.32,6.65-.37l2.22,0c3.68.39,8.34-.33,12.56-.33.85,0,1.67,0,2.47.1A12.13,12.13,0,0,1,56,3.6,12.6,12.6,0,0,1,57.49,4c8,1.35,10.08,8.56,13.17,14.38.35.65.71,1.28,1.11,1.89A16.07,16.07,0,0,1,74,24.75a16.18,16.18,0,0,0-2.24-4.51,17.55,17.55,0,0,1-1.19-1.84C67.34,12.72,66.22,5.48,58.49,3.79a13.67,13.67,0,0,0-1.89-.6,15.89,15.89,0,0,0-2.24-.36c-4.63-.42-10.13.72-14.53.27l-2.1,0c-2.09,0-4.18.09-6.26.16-.71,0-1.4.06-2.09.14a17,17,0,0,0-6.07,1.76c-.63.26-1.23.54-1.83.85a28,28,0,0,0-9,8.21c-.39.48-.76,1-1.11,1.46a17.62,17.62,0,0,0-1,1.54,5.27,5.27,0,0,0,1-1.12A4.78,4.78,0,0,0,11.81,15.32Z"
           id="path103" />
        <path
           class="cls-6"
           d="M76,30.72c0-.29,0-.5.18-.5a5.2,5.2,0,0,0-.62,1.62,12,12,0,0,1-.45,1.63c-.39,2.07-.82,4.1-1.34,6.1q-.26,1-.55,2C72.8,43.34,72.46,45.18,72,47c-.14.61-.29,1.21-.46,1.81-1.24,3.54-2.53,7.4-6,9.63,3.46-2.23,5.19-5.89,6.36-9.54.2-.6.38-1.2.57-1.81.54-1.81,1-3.65,1.68-5.37q.32-.94.58-1.9a30,30,0,0,0,1-6A11,11,0,0,0,76,32.18,13.39,13.39,0,0,0,76,30.72Z"
           id="path105" />
        <path
           class="cls-7"
           d="M75.79,33.65A2.53,2.53,0,0,0,76,31.24,6.86,6.86,0,0,1,75.73,33c-.45,2-.88,4-1.38,6q-.25,1-.52,2c-.53,1.72-1,3.54-1.44,5.36-.16.61-.33,1.21-.51,1.81C70.76,51.74,69.25,55.6,66,58a16.5,16.5,0,0,0,6.15-9.45c.23-.71.43-1.43.64-2.14.4-1.43.78-2.87,1.21-4.23q.27-.85.5-1.72a33,33,0,0,0,.93-5.32C75.56,34.66,75.68,34.15,75.79,33.65Z"
           id="path107" />
        <path
           class="cls-18"
           d="M7.9,17.22c1.37,4.88,8.08,6.3,11.61,9.87.57.41,1.12.84,1.65,1.29a20.8,20.8,0,0,1,1.53,1.43q-.65-.76-1.33-1.47c-.46-.47-.92-.93-1.4-1.38-2.9-4.26-10.91-6.29-11-11.63Z"
           id="path109" />
        <path
           class="cls-10"
           d="M8.1,16.87c.52,0,.52-.45.52-.65.22,5.68,8,7.31,11.37,10.91.49.4,1,.82,1.41,1.26a16.32,16.32,0,0,1,1.29,1.43A12,12,0,0,0,22,28.64c-.26-.38-.55-.75-.85-1.1-3.19-4.62-11-6.45-12-12.54Z"
           id="path111" />
        <path
           class="cls-19"
           d="M46.55,14.15a17.25,17.25,0,0,0-9.37,2.77,17.8,17.8,0,0,0-5.3,5.31A2,2,0,0,0,32.6,25l.37.19c.83.43,3.78,1.47,4.28.65,2.5-4.12,5.12-5.07,10.1-5.07,8,0,10.66,3.65,10.66,11.81s-3.2,10.73-11.2,10.73c-5,0-6.94-.62-9.43-4.78-.51-.86-3.5-.27-4.35.21l-.52.29a2,2,0,0,0-.68,2.78,17.8,17.8,0,0,0,5.34,5.37A17.25,17.25,0,0,0,46.55,50C56.24,50,64.92,42,64.92,32.17s-8.68-18-18.36-18Zm0,0"
           id="path113" />
        <path
           class="cls-19"
           d="M45.42,34.95l.79-4a.29.29,0,0,0-.29-.36l-23.8.33c-.26,0-3,.06-2.79-.14l2.74-2.06a18.66,18.66,0,0,0,2.22-1.79l-4.74-1.29c-.11-.11-.07-.17-.18-.06l-7.79,8c-.12.12.68.86.79,1l7,7.15c.11.11,1.49-1.47,1.6-1.59L22.06,39a.31.31,0,0,0,0-.43L19.28,35.7c-.18-.19,2-.14,2.23-.14l23.63-.38A.29.29,0,0,0,45.42,34.95Zm3.73,1"
           id="path115" />
      </g>
    </g>
  </g>
</svg>
