<?xml version="1.0" encoding="UTF-8" standalone="no"?>
<svg
   xmlns:dc="http://purl.org/dc/elements/1.1/"
   xmlns:cc="http://creativecommons.org/ns#"
   xmlns:rdf="http://www.w3.org/1999/02/22-rdf-syntax-ns#"
   xmlns:svg="http://www.w3.org/2000/svg"
   xmlns="http://www.w3.org/2000/svg"
   xmlns:xlink="http://www.w3.org/1999/xlink"
   xmlns:sodipodi="http://sodipodi.sourceforge.net/DTD/sodipodi-0.dtd"
   xmlns:inkscape="http://www.inkscape.org/namespaces/inkscape"
   viewBox="0 0 62.89 57.07"
   id="svg2"
   version="1.1"
   inkscape:version="0.91 r13725"
   sodipodi:docname="pause__button-close_hover.svg">
  <metadata
     id="metadata123">
    <rdf:RDF>
      <cc:Work
         rdf:about="">
        <dc:format>image/svg+xml</dc:format>
        <dc:type
           rdf:resource="http://purl.org/dc/dcmitype/StillImage" />
      </cc:Work>
    </rdf:RDF>
  </metadata>
  <sodipodi:namedview
     pagecolor="#ffffff"
     bordercolor="#666666"
     borderopacity="1"
     objecttolerance="10"
     gridtolerance="10"
     guidetolerance="10"
     inkscape:pageopacity="0"
     inkscape:pageshadow="2"
     inkscape:window-width="687"
     inkscape:window-height="480"
     id="namedview121"
     showgrid="false"
     inkscape:zoom="4.1352725"
     inkscape:cx="31.445"
     inkscape:cy="28.535"
     inkscape:window-x="955"
     inkscape:window-y="106"
     inkscape:window-maximized="0"
     inkscape:current-layer="svg2" />
  <defs
     id="defs4">
    <style
       id="style6">.cls-1{isolation:isolate;}.cls-2,.cls-9{fill:#664538;}.cls-3{fill:#89624d;}.cls-4{fill:#7e5843;}.cls-11,.cls-12,.cls-13,.cls-5,.cls-6{fill:#684536;}.cls-5{opacity:0.65;}.cls-17,.cls-6{opacity:0.29;}.cls-13,.cls-6{mix-blend-mode:multiply;}.cls-17,.cls-7{fill:#b89e82;}.cls-7{opacity:0.25;}.cls-8{fill:#7b523b;}.cls-9{opacity:0.59;}.cls-10,.cls-15{opacity:0.66;}.cls-10{fill:url(#linear-gradient);}.cls-11{opacity:0.85;}.cls-11,.cls-16,.cls-18{mix-blend-mode:screen;}.cls-12{opacity:0.95;}.cls-13{opacity:0.33;}.cls-14{opacity:0.74;}.cls-15{fill:url(#linear-gradient-2);}.cls-16{opacity:0.35;fill:url(#linear-gradient-3);}.cls-18{fill:#512c1d;}.cls-19{fill:#ffba1d;}.cls-20{fill:#ffff1d;}</style>
    <linearGradient
       id="linear-gradient"
       x1="32.64"
       y1="-63.99"
       x2="32.64"
       y2="64.11"
       gradientUnits="userSpaceOnUse">
      <stop
         offset="0"
         stop-color="#ac8f73"
         id="stop9" />
      <stop
         offset="0.99"
         stop-color="#6a3722"
         id="stop11" />
    </linearGradient>
    <linearGradient
       id="linear-gradient-2"
       x1="14.13"
       y1="-9.67"
       x2="49.66"
       y2="60.1"
       xlink:href="#linear-gradient" />
    <linearGradient
       id="linear-gradient-3"
       x1="18.87"
       y1="-11.6"
       x2="53.07"
       y2="55.56"
       xlink:href="#linear-gradient" />
    <filter
       style="color-interpolation-filters:sRGB;"
       inkscape:label="Lightness-Contrast"
       id="filter4255">
      <feColorMatrix
         values="1 0 0 0.0505 -0 0 1 0 0.0505 -0 0 0 1 0.0505 -0 0 0 0 1 0"
         id="feColorMatrix4257" />
    </filter>
  </defs>
  <title
     id="title15">Asset 5</title>
  <g
     class="cls-1"
     id="g17"
     style="filter:url(#filter4255)">
    <g
       id="Layer_2"
       data-name="Layer 2">
      <g
         id="Layer_1-2"
         data-name="Layer 1">
        <path
           class="cls-2"
           d="M44.36,56.46A10.65,10.65,0,0,1,43,56.37c-.46-.05-.92-.14-1.39-.23l-1.38-.32-1.76,0c-1.94.08-3.9.16-5.85.2l-2,0A41.31,41.31,0,0,0,25,56c-.65,0-1.3.05-1.94.07-3.92.7-7.06-.73-9.67-3.06-.44-.39-.86-.8-1.27-1.23A52.81,52.81,0,0,1,6,43.76q-.43-.74-.81-1.49C3.11,37.93.26,33.1.71,28.16A11.58,11.58,0,0,1,1,26.29a43.45,43.45,0,0,1,1.68-5.65c.23-.6.47-1.2.71-1.81A24.3,24.3,0,0,1,6.69,11.9q.53-.77,1.11-1.5A22.4,22.4,0,0,1,16,2.86a15.5,15.5,0,0,1,1.64-.71A20.68,20.68,0,0,1,22.49.9Q23.31.8,24.14.75A34.91,34.91,0,0,1,29.55.67l1.82.11C36,1,40.29.81,44.8.62a5.63,5.63,0,0,1,1.42.09,5.94,5.94,0,0,1,1.34.43,20.12,20.12,0,0,1,7,5.87c1.8,2.82,2,6.38,4.15,8.82a11.2,11.2,0,0,1,.88,1.45A19,19,0,0,1,62.23,27a18.65,18.65,0,0,1-.12,2,34,34,0,0,1-1.31,7.61c-.18.61-.37,1.22-.57,1.83-.43,1.72-.9,3.48-1.47,5.2-.19.57-.39,1.14-.61,1.71C56.34,50.74,52,56.19,46,56.4A10.5,10.5,0,0,1,44.36,56.46Z"
           id="path21" />
        <path
           class="cls-2"
           d="M44.63,57.06A10.78,10.78,0,0,1,43.21,57c-.47-.05-.94-.14-1.42-.24l-1.41-.33-1.8,0c-2,.08-4,.17-6,.2l-2,0a42.19,42.19,0,0,0-5.74,0c-.66,0-1.32.06-2,.07-4,.71-7.21-.75-9.88-3.12-.45-.4-.88-.82-1.29-1.26a53.94,53.94,0,0,1-6.22-8.23c-.29-.5-.57-1-.83-1.53C2.49,38.14-.41,33.2,0,28.15a11.86,11.86,0,0,1,.33-1.91A44.37,44.37,0,0,1,2.1,20.48c.23-.62.48-1.23.73-1.85a24.81,24.81,0,0,1,3.33-7.08Q6.7,10.75,7.29,10a22.88,22.88,0,0,1,8.35-7.7,15.93,15.93,0,0,1,1.67-.72,21.15,21.15,0,0,1,5-1.28C22.85.24,23.42.18,24,.15A35.76,35.76,0,0,1,29.51.07l1.85.11C36.05.4,40.48.21,45.08,0a5.76,5.76,0,0,1,1.45.09,6.06,6.06,0,0,1,1.37.43,20.56,20.56,0,0,1,7.13,6c1.84,2.88,2,6.52,4.24,9a11.45,11.45,0,0,1,.9,1.48A19.41,19.41,0,0,1,62.89,27a18.88,18.88,0,0,1-.12,2,34.75,34.75,0,0,1-1.34,7.77c-.18.63-.38,1.25-.58,1.87-.44,1.76-.92,3.56-1.5,5.31-.19.59-.4,1.17-.63,1.75-1.84,5.53-6.27,11.1-12.4,11.31A10.71,10.71,0,0,1,44.63,57.06Z"
           id="path23" />
        <path
           class="cls-3"
           d="M17.62,55.4a9.63,9.63,0,0,1-4.48-3c-.41-.45-.79-.94-1.17-1.44-1.84-2.6-4.21-5.05-5.92-7.86-.29-.47-.55-.94-.81-1.44-1.48-3.75-3.87-7.91-4.07-12.15a11.41,11.41,0,0,1,.06-1.82,36.24,36.24,0,0,1,1.64-7c.19-.56.4-1.12.62-1.68a20.76,20.76,0,0,1,3.22-6.93q.55-.77,1.16-1.49a22.83,22.83,0,0,1,8.16-7,16.84,16.84,0,0,1,1.63-.69,16,16,0,0,1,5.13-1.36c.57-.06,1.15-.09,1.72-.1,1.83.09,3.7,0,5.6,0L32,1.26a38.81,38.81,0,0,1,11.63,0,17.13,17.13,0,0,1,1.79.46c.42.14.84.29,1.25.46,6.42,1.25,9.84,7.06,11.41,13.17.28.62.56,1.24.83,1.87a16,16,0,0,1,2.91,9.71,19.44,19.44,0,0,1-.15,2,37.8,37.8,0,0,1-1.07,7.46c-.15.6-.32,1.2-.49,1.8-.25,1.34-.55,2.7-.93,4-.19.67-.39,1.34-.62,2-1.86,6.65-7.46,11.91-14.22,11.52a10.11,10.11,0,0,1-2-.41c-.54-.06-1.09-.13-1.64-.22l-1.75-.06c-1.7.1-3.37.18-5,.24l-1.64,0c-1.6.09-3.23.09-4.87.06l-1.65,0c-2.25,0-4.6-.35-6.84,0C18.09,55.4,17.62,55.4,17.62,55.4Z"
           id="path25" />
        <path
           class="cls-4"
           d="M45,55.26c-.57-.1-1.08-.15-1.57-.22A7.74,7.74,0,0,1,42,54.72l-1.5-.3a56.8,56.8,0,0,0-7.16.65c-.48,0-1,.09-1.46.11-2-.15-4.05-.07-6.14-.05-.7,0-1.39,0-2.1,0a11.94,11.94,0,0,1-9.31-2.28,17.21,17.21,0,0,1-1.53-1.24,29.31,29.31,0,0,1-6.4-8c-.27-.52-.52-1-.75-1.58C4.25,38.14,2,34.21,1.57,30.15a12.16,12.16,0,0,1-.05-1.75A26.32,26.32,0,0,1,3,21.11c.2-.58.42-1.15.65-1.72A20.7,20.7,0,0,1,7,12.15c.38-.53.79-1,1.22-1.53a20.27,20.27,0,0,1,8.47-7c.55-.23,1.11-.43,1.69-.62a16.49,16.49,0,0,1,5-1.29c.56-.06,1.13-.09,1.71-.12,1.34-.13,2.68-.2,4-.23l2,0c3.76.44,8.32-.53,12.3-.2a14.42,14.42,0,0,1,1.94.28A8.48,8.48,0,0,1,47,1.87c5.79,1.41,8.27,7.32,10.62,12.49.26.57.52,1.14.78,1.69a17.26,17.26,0,0,1,3.23,10.62c0,.61-.05,1.22-.12,1.83a35.21,35.21,0,0,1-1,7.61q-.22.91-.49,1.8c-.31,1.32-.64,2.7-1,4.07-.19.69-.4,1.37-.62,2-1.72,5.57-5.69,11.39-12,11.3A12.9,12.9,0,0,1,45,55.26Z"
           id="path27" />
        <path
           class="cls-5"
           d="M18.84,55c-.56-1.5-2.22-3.35-3.55-3.63a1.18,1.18,0,0,0-1.16.32,1,1,0,0,0-.26,1.24c.58,1.19,3.29,2.13,4.8,2.08Z"
           id="path29" />
        <path
           class="cls-6"
           d="M17.8,54.78a25.18,25.18,0,0,1-4.58-2.54c1.44,1.31,3.07,2.82,5.21,2.77Z"
           id="path31" />
        <path
           class="cls-7"
           d="M1.28,29.37c0,.53,0,1.47,0,1.47a1.66,1.66,0,0,0,1.57-.19,1.79,1.79,0,0,0,.46-1.3c0-1.89-.59-3.77-.77-5.65-.18,1.13-.72,2.44-.89,3.49a8.31,8.31,0,0,0-.41,2.14A.21.21,0,0,1,1.28,29.37Z"
           id="path33" />
        <path
           class="cls-5"
           d="M6.81,41.52C5.47,38.54,6.19,35,4.2,32c-.54-.75-2.71-1.13-2.35.19a67.78,67.78,0,0,0,4,10.17c.24.57.5,1.14.77,1.7,1.66,3.34,4.07,6.23,7.32,6.34a24.65,24.65,0,0,1-5.71-6,14.55,14.55,0,0,1-.83-1.54Z"
           id="path35" />
        <path
           class="cls-6"
           d="M5.46,40.72C4.38,37.79,4,34.41,1.68,32.16,3.48,35.54,4.2,39.29,6,42.7q.37.73.8,1.43A37.85,37.85,0,0,0,12,50.56a60.73,60.73,0,0,1-5.1-6.81c-.3-.49-.58-1-.85-1.49S5.64,41.26,5.46,40.72Z"
           id="path37" />
        <path
           class="cls-5"
           d="M50,54.83a4.14,4.14,0,0,0,2-1.27c-.54.38-1.44.19-2,.82A.82.82,0,0,1,50,54.83Z"
           id="path39" />
        <path
           class="cls-6"
           d="M46.33,53.44a9,9,0,0,0-3.94-.66q-.94.31-1.88.57a36.07,36.07,0,0,1-5.4,1.2c-.61.08-1.23.14-1.84.17-1.63,0-3.28,0-4.91-.13-.54,0-1.08-.1-1.62-.19-2.87-.29-5.57-2.16-8.46-2a10.59,10.59,0,0,0,6.67,3.09,15.74,15.74,0,0,0,1.79.06c1.81,0,3.66-.3,5.2-.39l1.13-.11a56.83,56.83,0,0,1,6.13-.49c.56,0,1.12,0,1.69.06a4.9,4.9,0,0,0,2.16.14A3.61,3.61,0,0,0,44.9,54,3,3,0,0,1,46.33,53.44Z"
           id="path41" />
        <path
           class="cls-8"
           d="M48.66,53.95c-1.52-.2-3-.2-3.87,1.3,1.44-.19,3.25.56,4.54-.82C49.28,54.24,49.07,54.06,48.66,53.95Z"
           id="path43" />
        <path
           class="cls-6"
           d="M4.06,23.67a7.54,7.54,0,0,1,0-1.56,8.62,8.62,0,0,1,.24-1.47c.88-2.31,1.63-4.78,2.68-7,.26-.57.55-1.12.85-1.66C8.89,10.19,10,8.32,11.6,7.19A19.19,19.19,0,0,0,8.48,9.92,16.07,16.07,0,0,0,7.3,11.37,30.3,30.3,0,0,0,3.44,20a10,10,0,0,0-.31,1.78,8.36,8.36,0,0,0,.56,3.74C3.82,24.87,4,24.21,4.06,23.67Z"
           id="path45" />
        <path
           class="cls-9"
           d="M51,3.88c.79.87,1.51,1.62,2.24,2.56,1.66,2.82,2.18,5.89,3.64,8.61a12.37,12.37,0,0,0,1,1.59c1.3,2.75,3.1,5.19,3.46,8.39A18.16,18.16,0,0,0,59,16.93c-.3-.53-.62-1-1-1.56-2-4.8-4-10.05-8.61-13C49.95,2.84,50.52,3.36,51,3.88Z"
           id="path47" />
        <path
           class="cls-10"
           d="M52.75,52.76a21.24,21.24,0,0,0,5.37-9.47q.26-.86.48-1.74c.45-1.75.81-3.53,1.2-5.28q.19-.92.32-1.86a30.93,30.93,0,0,0,.24-5.75c.11-.6.19-1.19.26-1.79A13.28,13.28,0,0,0,58,16.65c-.31-.55-.6-1.12-.88-1.71-2.53-5.25-4.32-11.48-10.51-13a9.69,9.69,0,0,0-1.8-.51c-4.33-.8-9.64.81-14.06-.24-.39,0-.78,0-1.17-.05a51,51,0,0,0-5.81.48c-.53.07-1.05.17-1.57.28a27.77,27.77,0,0,0-4.54,1.43A15,15,0,0,0,16,4.09a20.57,20.57,0,0,0-7.53,7.77c-.37.55-.72,1.11-1,1.68A20.63,20.63,0,0,0,5,21.13c-.12.63-.22,1.25-.29,1.87a21.85,21.85,0,0,0,.46,7.6c.08.66.16,1.31.26,2a33.61,33.61,0,0,0,3,9.43c.27.66.54,1.29.85,1.89a13.35,13.35,0,0,0,7.32,6.66q.77.39,1.57.72a43.32,43.32,0,0,0,8.5,2.28q.83.2,1.68.34a18.6,18.6,0,0,0,5.23.1,18.31,18.31,0,0,0,1.82-.25,27.75,27.75,0,0,0,5.39-1.65,11.41,11.41,0,0,1,1.44-.15c3.48.12,6.55,2.56,10,1.18A2.45,2.45,0,0,0,52.75,52.76Z"
           id="path49" />
        <path
           class="cls-11"
           d="M46.05,45.05c.13.28.31.38.49.28.64-.77.18-1.82-.21-2.55a5.6,5.6,0,0,0-.35-.53c-.12-.17-.25-.32-.37-.46a3.57,3.57,0,0,0-.6-.47,6.4,6.4,0,0,0-.58-.33l-.57-.27a1.18,1.18,0,0,0-.89.08,2,2,0,0,0-.68.59,1.45,1.45,0,0,0-.26.59A2.29,2.29,0,0,0,44,44.45a2.58,2.58,0,0,0,.67.06,2.28,2.28,0,0,1,.69.19,3.83,3.83,0,0,1,.64.39A.05.05,0,0,0,46.05,45.05Z"
           id="path51" />
        <path
           class="cls-12"
           d="M46,44.6c1,.34.82-1,.64-1.54A3.43,3.43,0,0,0,46,41.93a4.22,4.22,0,0,0-.41-.49,4.11,4.11,0,0,0-.48-.42,4.79,4.79,0,0,0-.61-.35,5.54,5.54,0,0,0-.63-.26,1.6,1.6,0,0,0-.6,0,1.85,1.85,0,0,0-.63.24,1.91,1.91,0,0,0-.53.7,1.51,1.51,0,0,0-.12.84c.15,1.2,1.14,1.6,2.08,1.86l.55.14a4.62,4.62,0,0,0,.64.25c.22.07.43.14.63.22A.06.06,0,0,0,46,44.6Z"
           id="path53" />
        <path
           class="cls-13"
           d="M42.37,42.08a1.57,1.57,0,0,1,.5-.65,1.4,1.4,0,0,1,.67-.26,2.09,2.09,0,0,1,.75.06,3,3,0,0,1,1,.51,5,5,0,0,1,.44.38,4.77,4.77,0,0,1,.49.53c.15.19.29.38.42.57a2.65,2.65,0,0,1-.52-.95,3.78,3.78,0,0,0-.63-.89A3.27,3.27,0,0,0,45,41a2.59,2.59,0,0,0-.53-.31,2.62,2.62,0,0,0-1.28-.23,1.44,1.44,0,0,0-.66.32,1.58,1.58,0,0,0-.53.92,1.38,1.38,0,0,0,.22,1A1.2,1.2,0,0,1,42.37,42.08Z"
           id="path55" />
        <path
           class="cls-11"
           d="M29.34,52.26A3.44,3.44,0,0,0,30,48.44a1.57,1.57,0,0,0-1.07-.7A2.87,2.87,0,0,0,26,50.56c0,.94.72,1.31,1.44,1.63a5.29,5.29,0,0,0,1.82.17A.16.16,0,0,0,29.34,52.26Z"
           id="path57" />
        <path
           class="cls-12"
           d="M29.29,52c.71-1.23,1.79-3.1.71-4.42a1.42,1.42,0,0,0-1.11-.4c-1.24,0-1.6,1.15-2.32,1.9a2,2,0,0,0,1,3,2.46,2.46,0,0,0,1.68,0A.21.21,0,0,0,29.29,52Z"
           id="path59" />
        <path
           class="cls-13"
           d="M26.85,49.61a11.56,11.56,0,0,1,1.2-1.12,1.13,1.13,0,0,1,1.41,0c.54.38.54,1.13.54,1.69a1.85,1.85,0,0,0,.54-1.88,1.29,1.29,0,0,0-1.63-.94c-1.44.38-2.16,1.88-2.48,3.1A2.18,2.18,0,0,1,26.85,49.61Z"
           id="path61" />
        <path
           class="cls-11"
           d="M49.5,12.62a2.06,2.06,0,0,0,.39-2.29.94.94,0,0,0-.64-.42,1.72,1.72,0,0,0-1.73,1.69c0,.56.43.79.87,1a3.16,3.16,0,0,0,1.09.1A.09.09,0,0,0,49.5,12.62Z"
           id="path63" />
        <path
           class="cls-12"
           d="M49.47,12.44c.43-.73,1.07-1.86.43-2.65a.85.85,0,0,0-.66-.24c-.74,0-1,.69-1.39,1.14a1.22,1.22,0,0,0,.59,1.79,1.48,1.48,0,0,0,1,0A.12.12,0,0,0,49.47,12.44Z"
           id="path65" />
        <path
           class="cls-13"
           d="M48,11a6.89,6.89,0,0,1,.72-.67.68.68,0,0,1,.84,0c.32.22.32.67.32,1a1.11,1.11,0,0,0,.32-1.12.77.77,0,0,0-1-.56,2.4,2.4,0,0,0-1.49,1.86A1.28,1.28,0,0,1,48,11Z"
           id="path67" />
        <path
           class="cls-11"
           d="M52,52c.54-1.3-.91-1.67-1.63-1.86a.63.63,0,0,0-.54.94,1.89,1.89,0,0,0,2.12.94Z"
           id="path69" />
        <path
           class="cls-12"
           d="M52.07,52a.91.91,0,0,0,.48.08c.72-1.31-1.08-1.5-1.8-1.69-.18,0-.54.56-.54.75A1.69,1.69,0,0,0,52,52Z"
           id="path71" />
        <path
           class="cls-13"
           d="M50.07,50.59c.68.53,1.76.53,2.48,1.09-.18-.94-2-2.44-2.66-1C49.89,50.61,49.94,50.56,50.07,50.59Z"
           id="path73" />
        <g
           class="cls-14"
           id="g75">
          <path
             class="cls-11"
             d="M19.46,6.7a1.31,1.31,0,0,0,.08-2c-.72-.56-1.62.19-2.3.35a.87.87,0,0,0-.41,1.34A1,1,0,0,0,17.89,7a7.81,7.81,0,0,0,1.49-.27A.3.3,0,0,0,19.46,6.7Z"
             id="path77" />
          <path
             class="cls-12"
             d="M19.53,6.49a1.72,1.72,0,0,0,.73-1.18,1.6,1.6,0,0,0-2.53-.57c-.54.38-.9.76-.72,1.51a1.19,1.19,0,0,0,1,.6,2.82,2.82,0,0,0,1.4-.29A.33.33,0,0,0,19.53,6.49Z"
             id="path79" />
          <path
             class="cls-13"
             d="M17.06,5.61a2.1,2.1,0,0,1,3.2.08c-.18-1.13-1.44-1.31-2.35-.93a2,2,0,0,0-1.17,1.16A.76.76,0,0,1,17.06,5.61Z"
             id="path81" />
        </g>
        <g
           class="cls-14"
           id="g83">
          <path
             class="cls-11"
             d="M59.27,26.66c.5-1.82,1.4-5.39-.58-5.2-1.8.19-2.53,4.13-.72,5.82.36.19.9-.19,1.19-.41A1.88,1.88,0,0,0,59.27,26.66Z"
             id="path85" />
          <path
             class="cls-12"
             d="M59.5,26c.27-1.53,1.17-4.53-.63-4.53-2-.19-1.44,3.57-.18,4.88.18.19.54,0,.73-.14C59.44,26.15,59.49,26,59.5,26Z"
             id="path87" />
          <path
             class="cls-13"
             d="M58.26,23c.25-.62.25-1.18.61-1.56.9-.38.9.94.9,1.69,0-.94,0-2.25-.72-2.25-1.44-.19-.54,2.07-1.45,2.93A3.13,3.13,0,0,1,58.26,23Z"
             id="path89" />
        </g>
        <g
           class="cls-14"
           id="g91">
          <path
             class="cls-11"
             d="M13.21,36.36c.92-.26,2.36-1.19,1.46-1.95-1.26-.94-4.51-.75-4.33,1.13,0,1.31,1.62,1.31,2.73.9Z"
             id="path93" />
          <path
             class="cls-12"
             d="M13.43,36.11c.51-.38,2.14-1.13,1.06-2.07-1.44-.94-4.69-.38-4,1.88.36,1.13,1.8.19,2.78.28Z"
             id="path95" />
          <path
             class="cls-13"
             d="M10.81,34.94a2.58,2.58,0,0,1,4,.22c.72-1.13-.9-1.69-1.62-1.69a2.44,2.44,0,0,0-3,2A2,2,0,0,1,10.81,34.94Z"
             id="path97" />
        </g>
        <path
           class="cls-15"
           d="M7.11,37.07a14,14,0,0,0-.74-3.45c-.18-.55-.36-1.1-.52-1.65-.92-2.66-.7-5.45-.5-8.16,0-.54.08-1.08.11-1.61a15.31,15.31,0,0,1,2.09-8.57q.43-.74.92-1.43a21.77,21.77,0,0,1,7.92-8A17.57,17.57,0,0,1,18,3.4a13.33,13.33,0,0,1,5-1.53c.56-.06,1.13-.09,1.7-.11,1.81-.05,3.64-.1,5.46-.12l1.84,0c2.87.44,6.74-.23,10.23-.19a18.94,18.94,0,0,1,2,.12,9.85,9.85,0,0,1,1.6.33c6.32,1.4,8.86,7.47,11.4,12.9.28.6.56,1.2.85,1.78a5.79,5.79,0,0,1,1.27,4.52c-.18,1.69-1.08,3.38-2.71,3.57-2.89.38-5.59-.38-8.48-.55l-2-.14a27,27,0,0,0-5.51.16,8.22,8.22,0,0,0-1.71.47c-.57.17-1.13.36-1.68.58s-1.25.45-1.85.68l-1.64.69c-2.37,1-4.76,2.06-7.07,3.08l-.88.39-.9.39-3.32,1.46-1.13.51c-.55.25-1.11.49-1.68.71-3.44,1.9-7.41,1.34-10.69,3.38C7.75,36.66,7.41,36.87,7.11,37.07Z"
           id="path99" />
        <path
           class="cls-16"
           d="M8.3,12.74A18.84,18.84,0,0,1,15.8,4.86a14.75,14.75,0,0,1,1.6-.75,18.07,18.07,0,0,1,4.82-1.56c.55-.1,1.1-.17,1.65-.23,1.85-.19,3.7-.3,5.54-.34l1.85,0c3.07.36,6.95-.3,10.47-.31.7,0,1.39,0,2.06.09a9.15,9.15,0,0,1,1.31.15,9.62,9.62,0,0,1,1.27.33c6.71,1.25,8.4,7.91,11,13.3.29.6.59,1.19.92,1.75a15.61,15.61,0,0,1,1.87,4.17,15.76,15.76,0,0,0-1.87-4.17,16.73,16.73,0,0,1-1-1.7C54.58,10.33,53.64,3.64,47.2,2.07a10.61,10.61,0,0,0-1.57-.56,11.89,11.89,0,0,0-1.86-.33c-3.86-.39-8.44.66-12.11.25l-1.75,0c-1.74,0-3.48.09-5.22.14-.59,0-1.17.06-1.74.13a13.14,13.14,0,0,0-5.06,1.62,16,16,0,0,0-1.52.79,24.42,24.42,0,0,0-7.54,7.59c-.33.44-.64.89-.93,1.35s-.56.93-.81,1.43a4.7,4.7,0,0,0,.85-1A4.57,4.57,0,0,0,8.3,12.74Z"
           id="path101" />
        <path
           class="cls-5"
           d="M61.79,27c0-.27,0-.46.15-.46a5.13,5.13,0,0,0-.52,1.5A12.06,12.06,0,0,1,61,29.54c-.33,1.91-.69,3.79-1.12,5.64q-.22.92-.46,1.84c-.34,1.64-.63,3.35-1,5-.12.56-.25,1.12-.39,1.67-1,3.27-2.11,6.84-5,8.91,2.89-2.06,4.33-5.44,5.3-8.82.16-.55.32-1.11.47-1.67.45-1.68.87-3.37,1.4-5q.26-.87.48-1.76a30.67,30.67,0,0,0,.83-5.55,11.13,11.13,0,0,0,.22-1.51A13.46,13.46,0,0,0,61.79,27Z"
           id="path103" />
        <path
           class="cls-6"
           d="M61.62,29.69a2.57,2.57,0,0,0,.14-2.23,7,7,0,0,1-.19,1.61c-.38,1.88-.74,3.74-1.15,5.56q-.21.91-.43,1.81c-.44,1.59-.8,3.27-1.2,5-.13.56-.27,1.12-.42,1.68-.93,3.35-2.2,6.92-4.9,9.17,2.71-2.06,4.33-5.44,5.13-8.74.19-.66.36-1.32.53-2,.34-1.33.65-2.65,1-3.92q.23-.79.42-1.59a33.58,33.58,0,0,0,.78-4.92C61.43,30.62,61.53,30.16,61.62,29.69Z"
           id="path105" />
        <path
           class="cls-17"
           d="M5,14.5c1.14,4.52,6.73,5.83,9.68,9.13.48.38.93.78,1.38,1.2s.87.86,1.27,1.33q-.54-.7-1.11-1.36c-.38-.44-.77-.86-1.17-1.28C12.68,19.58,6,17.7,5.94,12.76Z"
           id="path107" />
        <path
           class="cls-9"
           d="M5.21,14.17c.43,0,.43-.41.43-.6.18,5.26,6.68,6.76,9.48,10.09.41.37.8.76,1.18,1.17a14.86,14.86,0,0,1,1.07,1.32,11.48,11.48,0,0,0-.6-1.09c-.22-.35-.46-.69-.7-1-2.66-4.27-9.16-6-10-11.59Z"
           id="path109" />
        <path
           class="cls-18"
           d="M43.56,46.81a6.79,6.79,0,0,1-2.74-.6A15.16,15.16,0,0,1,37,43c-1.46-1.52-2.84-3-4.88-3.43l-.33.22a3.9,3.9,0,0,1-.58.37c-.38.28-.77.6-1.23,1s-.84.77-1.26,1.16a23.94,23.94,0,0,1-4.16,3.35,4.15,4.15,0,0,1-2,.53,4.93,4.93,0,0,1-4.66-4c-.73-4.13,1.49-6.8,3.64-9.38A23.65,23.65,0,0,0,24,29.5a.74.74,0,0,1,.11-.15,1.28,1.28,0,0,0-.12-.59,4.54,4.54,0,0,0-.67-1.28,9.72,9.72,0,0,0-1.06-1.21l-.17-.19c-.38-.44-.76-.88-1.13-1.33a14.26,14.26,0,0,1-3-5.41l0-.08a6,6,0,0,1,1-4.55,4.88,4.88,0,0,1,4-2.22,5.25,5.25,0,0,1,2.58.71A16.26,16.26,0,0,1,28.82,16c1.57,1.62,3,3.15,4.88,3.15a3.67,3.67,0,0,0,1-.14A6.12,6.12,0,0,0,36,18.29a7,7,0,0,0,1.15-1.08l.47-.47,1-.94a15,15,0,0,1,6.72-4.25,3,3,0,0,1,.68-.08c1.88,0,3.26,1.83,3.5,3.6.47,4.52-1.81,7.74-3.85,10-.39.44-.79.87-1.19,1.29l-.11.09a5.1,5.1,0,0,0-1.21,1.11,3.93,3.93,0,0,0-.48,2.88c.44,2.25,2.47,4.53,4.18,5.7l.12.11a6.88,6.88,0,0,1,1,1.43c1.45,2.57,1.4,6.47-1.22,8.25a6.22,6.22,0,0,1-3.1.84Z"
           id="path111" />
        <path
           class="cls-2"
           d="M43.56,46a6.79,6.79,0,0,1-2.74-.6A15.16,15.16,0,0,1,37,42.21c-1.46-1.52-2.84-3-4.88-3.43l-.33.22a3.9,3.9,0,0,1-.58.37c-.38.28-.77.6-1.23,1s-.84.77-1.26,1.16a23.92,23.92,0,0,1-4.16,3.35,4.15,4.15,0,0,1-2,.53,4.93,4.93,0,0,1-4.66-4c-.73-4.13,1.49-6.8,3.64-9.38A23.62,23.62,0,0,0,24,28.68a.74.74,0,0,1,.11-.15,1.28,1.28,0,0,0-.12-.59,4.54,4.54,0,0,0-.67-1.28,9.7,9.7,0,0,0-1.06-1.21l-.17-.19c-.38-.44-.76-.88-1.13-1.33a14.26,14.26,0,0,1-3-5.41l0-.08a6,6,0,0,1,1-4.55,4.88,4.88,0,0,1,4-2.22,5.25,5.25,0,0,1,2.58.71,16.25,16.25,0,0,1,3.23,2.81c1.57,1.62,3,3.15,4.88,3.15a3.67,3.67,0,0,0,1-.14A6.12,6.12,0,0,0,36,17.47a7,7,0,0,0,1.15-1.08l.47-.47,1-.94a15,15,0,0,1,6.72-4.25,3,3,0,0,1,.68-.08c1.88,0,3.26,1.83,3.5,3.6.47,4.52-1.81,7.74-3.85,10-.39.44-.79.87-1.19,1.29l-.11.09a5.1,5.1,0,0,0-1.21,1.11,3.93,3.93,0,0,0-.48,2.88c.44,2.25,2.47,4.53,4.18,5.7l.12.11a6.87,6.87,0,0,1,1,1.43c1.45,2.57,1.4,6.47-1.22,8.25a6.22,6.22,0,0,1-3.1.84Z"
           id="path113" />
        <path
           class="cls-19"
           d="M43.56,44.5A5.53,5.53,0,0,1,41.33,44a14,14,0,0,1-3.38-2.88c-1.58-1.65-3.22-3.36-5.78-3.86H32a.64.64,0,0,0-.2,0,3.15,3.15,0,0,0-.81.47,2.58,2.58,0,0,1-.4.26l-.14.08c-.43.32-.87.68-1.38,1.14s-.86.78-1.28,1.18a22.56,22.56,0,0,1-3.91,3.17,2.85,2.85,0,0,1-1.38.35,3.51,3.51,0,0,1-3.32-2.82c-.59-3.33,1.31-5.61,3.32-8a25.22,25.22,0,0,0,2.63-3.57,2.19,2.19,0,0,0,.11-2.19,5.76,5.76,0,0,0-.84-1.6,11.17,11.17,0,0,0-1.22-1.39l-.09-.11c-.37-.43-.74-.86-1.1-1.3a12.69,12.69,0,0,1-2.7-4.8A4.46,4.46,0,0,1,20,14.82a3.57,3.57,0,0,1,3-1.64,4,4,0,0,1,1.94.54,15.12,15.12,0,0,1,2.92,2.57c1.69,1.75,3.44,3.57,5.83,3.57h0a5,5,0,0,0,1.36-.2l.07,0a7.5,7.5,0,0,0,1.61-.93,8.34,8.34,0,0,0,1.38-1.31L38.5,17l.94-.93c2-1.92,3.77-3.32,6.11-3.91a1.68,1.68,0,0,1,.37,0c1.13,0,2,1.21,2.14,2.32.4,3.82-1.54,6.59-3.48,8.79-.36.41-.73.8-1.1,1.2A6.42,6.42,0,0,0,42,25.84,5.52,5.52,0,0,0,41.25,30,11.65,11.65,0,0,0,46,36.58a5.44,5.44,0,0,1,.72,1.06c1.13,2,1.15,4.95-.76,6.24a4.88,4.88,0,0,1-2.38.62Z"
           id="path115" />
        <path
           class="cls-20"
           d="M46,42.17a4.89,4.89,0,0,1-2.38.62h0a5.53,5.53,0,0,1-2.23-.49A14,14,0,0,1,38,39.42c-1.58-1.65-3.22-3.36-5.78-3.86h-.12a.65.65,0,0,0-.21,0,3.16,3.16,0,0,0-.81.47,2.59,2.59,0,0,1-.4.26l-.14.08c-.43.32-.87.68-1.38,1.14s-.86.78-1.28,1.18A22.57,22.57,0,0,1,24,41.87a2.85,2.85,0,0,1-1.38.35,3.51,3.51,0,0,1-3.32-2.82c0-.11,0-.21,0-.32a6.62,6.62,0,0,0,0,2.09A3.51,3.51,0,0,0,22.61,44,2.85,2.85,0,0,0,24,43.64a22.57,22.57,0,0,0,3.91-3.17c.42-.4.85-.8,1.28-1.18s1-.82,1.38-1.14l.14-.08a2.59,2.59,0,0,0,.4-.26,3.16,3.16,0,0,1,.81-.47.65.65,0,0,1,.21,0h.12c2.56.5,4.2,2.21,5.78,3.86a14,14,0,0,0,3.38,2.88,5.53,5.53,0,0,0,2.23.49h0A4.89,4.89,0,0,0,46,43.94a4.13,4.13,0,0,0,1.46-4.18A3.54,3.54,0,0,1,46,42.17ZM22.1,23c.36.44.73.87,1.1,1.3l.09.11a11.15,11.15,0,0,1,1.22,1.39,5.77,5.77,0,0,1,.84,1.59s0,.09,0,.14a2.35,2.35,0,0,0,0-1.91,5.76,5.76,0,0,0-.84-1.6,11.15,11.15,0,0,0-1.22-1.39l-.09-.11c-.37-.43-.75-.86-1.1-1.3a12.78,12.78,0,0,1-2.67-4.72,4.82,4.82,0,0,0,0,1.69A12.69,12.69,0,0,0,22.1,23Zm20,2.89a6.42,6.42,0,0,1,1.47-1.38c.38-.39.75-.79,1.1-1.2,1.93-2.18,3.84-4.92,3.49-8.7a12.3,12.3,0,0,1-3.49,6.93c-.36.41-.73.8-1.1,1.2a6.42,6.42,0,0,0-1.47,1.38,5.49,5.49,0,0,0-.8,3.86A5.57,5.57,0,0,1,42.09,25.89Z"
           id="path117" />
        <path
           class="cls-20"
           d="M26,27.41a3.9,3.9,0,0,0-.13-.38A6.36,6.36,0,0,0,25,25.28a11.9,11.9,0,0,0-1.3-1.49l0-.06c-.37-.43-.74-.85-1.1-1.29A12.07,12.07,0,0,1,20,18a3.67,3.67,0,0,1,.59-2.7A2.93,2.93,0,0,1,23,13.92a3.32,3.32,0,0,1,1.62.45,14.64,14.64,0,0,1,2.76,2.44C29.1,18.59,31,20.6,33.69,20.6a5.61,5.61,0,0,0,1.54-.22l.13,0a8.14,8.14,0,0,0,1.77-1,9,9,0,0,0,1.5-1.42l.33-.32.94-.93c1.89-1.84,3.61-3.18,5.81-3.74l.21,0c.73,0,1.36.89,1.46,1.69a9,9,0,0,1-1.71,6.16c-2.36.83-4.93,1.75-7.85,2.82A119.78,119.78,0,0,0,26,27.41Z"
           id="path119" />
      </g>
    </g>
  </g>
</svg>
