<?xml version="1.0" encoding="UTF-8" standalone="no"?>
<svg
   xmlns:dc="http://purl.org/dc/elements/1.1/"
   xmlns:cc="http://creativecommons.org/ns#"
   xmlns:rdf="http://www.w3.org/1999/02/22-rdf-syntax-ns#"
   xmlns:svg="http://www.w3.org/2000/svg"
   xmlns="http://www.w3.org/2000/svg"
   xmlns:xlink="http://www.w3.org/1999/xlink"
   xmlns:sodipodi="http://sodipodi.sourceforge.net/DTD/sodipodi-0.dtd"
   xmlns:inkscape="http://www.inkscape.org/namespaces/inkscape"
   viewBox="0 0 77.19 63"
   id="svg2"
   version="1.1"
   inkscape:version="0.91 r13725"
   sodipodi:docname="win__button-next.svg">
  <metadata
     id="metadata121">
    <rdf:RDF>
      <cc:Work
         rdf:about="">
        <dc:format>image/svg+xml</dc:format>
        <dc:type
           rdf:resource="http://purl.org/dc/dcmitype/StillImage" />
      </cc:Work>
    </rdf:RDF>
  </metadata>
  <sodipodi:namedview
     pagecolor="#ffffff"
     bordercolor="#666666"
     borderopacity="1"
     objecttolerance="10"
     gridtolerance="10"
     guidetolerance="10"
     inkscape:pageopacity="0"
     inkscape:pageshadow="2"
     inkscape:window-width="1012"
     inkscape:window-height="665"
     id="namedview119"
     showgrid="false"
     inkscape:zoom="3.7460317"
     inkscape:cx="38.595001"
     inkscape:cy="31.5"
     inkscape:window-x="601"
     inkscape:window-y="89"
     inkscape:window-maximized="0"
     inkscape:current-layer="svg2" />
  <defs
     id="defs4">
    <style
       id="style6">.cls-1{isolation:isolate;}.cls-10,.cls-2,.cls-3{fill:#664538;}.cls-3{opacity:0.37;}.cls-14,.cls-3,.cls-7{mix-blend-mode:multiply;}.cls-4{fill:#89624d;}.cls-5{fill:#7e5843;}.cls-12,.cls-13,.cls-14,.cls-6,.cls-7{fill:#684536;}.cls-6{opacity:0.65;}.cls-18,.cls-7{opacity:0.29;}.cls-18,.cls-8{fill:#b89e82;}.cls-8{opacity:0.25;}.cls-9{fill:#7b523b;}.cls-10{opacity:0.59;}.cls-11,.cls-16{opacity:0.66;}.cls-11{fill:url(#linear-gradient);}.cls-12{opacity:0.85;}.cls-12,.cls-17,.cls-19{mix-blend-mode:screen;}.cls-13{opacity:0.95;}.cls-14{opacity:0.33;}.cls-15{opacity:0.74;}.cls-16{fill:url(#linear-gradient-2);}.cls-17{opacity:0.35;fill:url(#linear-gradient-3);}.cls-19{fill:#512c1d;}.cls-20{fill:#00ffc9;}</style>
    <linearGradient
       id="linear-gradient"
       x1="39.99"
       y1="-67.37"
       x2="39.99"
       y2="70.58"
       gradientUnits="userSpaceOnUse">
      <stop
         offset="0"
         stop-color="#ac8f73"
         id="stop9" />
      <stop
         offset="0.99"
         stop-color="#6a3722"
         id="stop11" />
    </linearGradient>
    <linearGradient
       id="linear-gradient-2"
       x1="19.49"
       y1="-10.05"
       x2="59.43"
       y2="68.38"
       xlink:href="#linear-gradient" />
    <linearGradient
       id="linear-gradient-3"
       x1="24.46"
       y1="-12.09"
       x2="63.06"
       y2="63.71"
       xlink:href="#linear-gradient" />
    <filter
       style="color-interpolation-filters:sRGB;"
       inkscape:label="Lightness-Contrast"
       id="filter4249">
      <feColorMatrix
         values="1 0 0 0.0505 -0 0 1 0 0.0505 -0 0 0 1 0.0505 -0 0 0 0 1 0"
         id="feColorMatrix4251" />
    </filter>
  </defs>
  <title
     id="title15">Asset 1</title>
  <g
     class="cls-1"
     id="g17"
     style="filter:url(#filter4249)">
    <g
       id="Layer_2"
       data-name="Layer 2">
      <g
         id="Layer_1-2"
         data-name="Layer 1">
        <path
           class="cls-2"
           d="M6.72,49.8A44.41,44.41,0,0,0,10,54.26c11.66.58,23.32-.58,35,.55,5,.49,10.15,1.17,15.26,1.48l2.49-.44c2.69-.47,5.33-1,8-1.2a23.29,23.29,0,0,0,1.37-3c.27-.66.53-1.32.77-2,.72-2,1.3-4,1.84-6,.26-.7.49-1.4.72-2.11A36.33,36.33,0,0,0,77,32.75a20.06,20.06,0,0,0,.15-2.28,20.63,20.63,0,0,0-3.33-11.22,12.69,12.69,0,0,0-1.11-1.67c-2.72-2.82-2.94-6.93-5.2-10.18A24.85,24.85,0,0,0,58.81.61,7.92,7.92,0,0,0,57.12.12,7.71,7.71,0,0,0,55.34,0C49.68.24,44.25.46,38.5.2L36.22.08a47.15,47.15,0,0,0-6.79.1c-.69,0-1.38.09-2.07.18a27.84,27.84,0,0,0-6.12,1.44,19.86,19.86,0,0,0-2.05.82,27.35,27.35,0,0,0-10.25,8.7q-.72.84-1.39,1.73a27.17,27.17,0,0,0-4.09,8c-.31.7-.61,1.39-.89,2.09A47.49,47.49,0,0,0,.47,29.65,12.81,12.81,0,0,0,.06,31.8c-.56,5.7,3,11.28,5.64,16.27C6,48.66,6.37,49.23,6.72,49.8Z"
           id="path21" />
        <path
           class="cls-2"
           d="M53.7,62.34a13.36,13.36,0,0,1-1.63-.1c-.54-.06-1.08-.15-1.62-.25s-1.08-.22-1.62-.34l-2.06,0c-2.28.09-4.56.17-6.85.21l-2.31,0a52.7,52.7,0,0,0-6.58,0c-.76,0-1.52.06-2.27.07a13.69,13.69,0,0,1-11.32-3.29c-.51-.42-1-.86-1.48-1.33a57.73,57.73,0,0,1-7.12-8.67c-.33-.53-.65-1.07-1-1.61-2.46-4.66-5.79-9.86-5.27-15.19a11.72,11.72,0,0,1,.38-2,43.89,43.89,0,0,1,2-6.08c.26-.65.55-1.29.84-1.95a25.26,25.26,0,0,1,3.81-7.47q.62-.83,1.3-1.62a25.53,25.53,0,0,1,9.56-8.12,19,19,0,0,1,1.91-.76,25.93,25.93,0,0,1,5.71-1.35q1-.12,1.93-.16a44.38,44.38,0,0,1,6.33-.09l2.13.12c5.37.24,10.44,0,15.71-.17a7.13,7.13,0,0,1,1.66.09,7.39,7.39,0,0,1,1.57.46,23.19,23.19,0,0,1,8.16,6.32c2.11,3,2.32,6.87,4.86,9.5a11.84,11.84,0,0,1,1,1.56,19.25,19.25,0,0,1,3.11,10.47,18.6,18.6,0,0,1-.14,2.13,33.91,33.91,0,0,1-1.53,8.19c-.21.66-.43,1.31-.67,2-.5,1.85-1.05,3.75-1.72,5.59-.22.62-.46,1.23-.72,1.85C67.73,56.18,62.66,62,55.63,62.27A13.39,13.39,0,0,1,53.7,62.34Z"
           id="path23" />
        <path
           class="cls-3"
           d="M54,63a13.71,13.71,0,0,1-1.67-.1c-.55-.06-1.11-.15-1.66-.26s-1.1-.23-1.65-.35L47,62.24c-2.32.09-4.66.18-7,.22l-2.36,0a53.58,53.58,0,0,0-6.72,0c-.77,0-1.55.06-2.32.07A14,14,0,0,1,17,59.23c-.52-.43-1-.88-1.52-1.36A58.83,58.83,0,0,1,8.21,49q-.51-.81-1-1.64C4.72,42.61,1.32,37.29,1.86,31.86a12,12,0,0,1,.39-2.06,45.06,45.06,0,0,1,2-6.21c.27-.66.56-1.32.85-2A25.81,25.81,0,0,1,9,14q.63-.85,1.33-1.65A26.09,26.09,0,0,1,20.1,4a19.49,19.49,0,0,1,2-.78,26.5,26.5,0,0,1,5.83-1.38q1-.12,2-.17a45.33,45.33,0,0,1,6.47-.09l2.17.12c5.49.24,10.66,0,16.06-.17a7.32,7.32,0,0,1,1.7.1,7.57,7.57,0,0,1,1.61.47A23.71,23.71,0,0,1,66.2,8.58c2.16,3.1,2.37,7,5,9.71a12.15,12.15,0,0,1,1.05,1.59,19.66,19.66,0,0,1,3.18,10.7,19,19,0,0,1-.14,2.18,34.78,34.78,0,0,1-1.57,8.37c-.21.67-.44,1.34-.68,2C72.49,45,71.93,47,71.25,48.85q-.34.95-.73,1.88c-2.15,6-7.33,11.95-14.51,12.18A13.57,13.57,0,0,1,54,63Z"
           id="path25" />
        <path
           class="cls-4"
           d="M22.42,61.2a11.36,11.36,0,0,1-5.24-3.26c-.48-.49-.92-1-1.37-1.55C13.65,53.6,10.88,51,8.88,47.93c-.33-.5-.65-1-.95-1.55-1.73-4-4.53-8.52-4.76-13.08a11.38,11.38,0,0,1,.07-2A36.57,36.57,0,0,1,5.16,23.8c.23-.6.47-1.2.72-1.81a21.64,21.64,0,0,1,3.77-7.47q.64-.83,1.36-1.61a26.23,26.23,0,0,1,9.54-7.58q.94-.42,1.9-.74a20,20,0,0,1,6-1.46c.67-.06,1.34-.1,2-.11,2.14.1,4.33,0,6.55,0l2.23-.09a49.3,49.3,0,0,1,13.61,0A21.31,21.31,0,0,1,55,3.4c.49.15,1,.32,1.47.5,7.51,1.34,11.52,7.61,13.35,14.19.33.67.65,1.33,1,2a16.23,16.23,0,0,1,3.4,10.46A19.63,19.63,0,0,1,74,32.73a37.71,37.71,0,0,1-1.26,8c-.18.65-.37,1.29-.58,1.94-.29,1.44-.64,2.91-1.08,4.36q-.33,1.09-.73,2.15C68.15,56.39,61.61,62,53.69,61.62a12.78,12.78,0,0,1-2.38-.44C50.68,61.12,50,61,49.4,61s-1.36-.06-2-.07c-2,.11-3.94.2-5.86.25l-1.92,0c-1.87.1-3.78.1-5.7.07l-1.93,0c-2.63,0-5.38-.37-8,0C23,61.2,22.42,61.2,22.42,61.2Z"
           id="path27" />
        <path
           class="cls-5"
           d="M54.49,61c-.66-.11-1.26-.16-1.84-.23a9.7,9.7,0,0,1-1.74-.35l-1.75-.32a71.89,71.89,0,0,0-8.38.7c-.57.05-1.13.09-1.71.12-2.3-.16-4.74-.07-7.18-.05-.81,0-1.63,0-2.45,0a14.89,14.89,0,0,1-10.9-2.46,19.9,19.9,0,0,1-1.79-1.34,32.19,32.19,0,0,1-7.49-8.62q-.47-.83-.88-1.71C6.78,42.61,4.12,38.38,3.64,34a11.94,11.94,0,0,1-.06-1.89,26.37,26.37,0,0,1,1.7-7.85c.24-.62.49-1.23.76-1.85A21.55,21.55,0,0,1,10,14.62c.45-.57.92-1.11,1.42-1.65a23.42,23.42,0,0,1,9.91-7.48c.64-.25,1.3-.46,2-.67a20.67,20.67,0,0,1,5.89-1.39c.66-.06,1.32-.1,2-.13,1.57-.14,3.14-.22,4.71-.25l2.35,0c4.4.48,9.74-.57,14.39-.22a18.31,18.31,0,0,1,2.26.31,10.63,10.63,0,0,1,1.94.44C63.6,5.07,66.5,11.44,69.25,17c.31.62.61,1.23.92,1.82A17.57,17.57,0,0,1,74,30.27q0,1-.14,2a35.06,35.06,0,0,1-1.14,8.2q-.26,1-.58,1.94c-.37,1.43-.75,2.91-1.2,4.38-.23.74-.46,1.47-.73,2.2-2,6-6.66,12.27-14.07,12.17C55.59,61.14,55.06,61.1,54.49,61Z"
           id="path29" />
        <path
           class="cls-6"
           d="M23.84,60.76c-.65-1.61-2.59-3.61-4.15-3.91a1.47,1.47,0,0,0-1.36.34,1,1,0,0,0-.3,1.34c.68,1.28,3.85,2.29,5.61,2.24Z"
           id="path31" />
        <path
           class="cls-7"
           d="M22.63,60.53a30.17,30.17,0,0,1-5.36-2.73c1.69,1.42,3.59,3,6.09,3Z"
           id="path33" />
        <path
           class="cls-8"
           d="M3.3,33.17c0,.57,0,1.58,0,1.58a2.09,2.09,0,0,0,1.84-.2,1.84,1.84,0,0,0,.53-1.4c-.05-2-.69-4.06-.9-6.08-.21,1.21-.85,2.63-1,3.76a8.24,8.24,0,0,0-.48,2.31Z"
           id="path35" />
        <path
           class="cls-6"
           d="M9.77,46.25C8.2,43,9,39.2,6.72,36c-.63-.81-3.17-1.21-2.75.2a69.81,69.81,0,0,0,4.68,11c.28.62.58,1.23.9,1.83,1.95,3.6,4.76,6.71,8.56,6.83a27.62,27.62,0,0,1-6.68-6.48,14.93,14.93,0,0,1-1-1.66Z"
           id="path37" />
        <path
           class="cls-7"
           d="M8.19,45.39c-1.26-3.15-1.69-6.79-4.43-9.22,2.11,3.64,3,7.68,5.06,11.35q.43.79.93,1.54a41.57,41.57,0,0,0,6,6.92,66.12,66.12,0,0,1-6-7.34c-.35-.52-.69-1.06-1-1.61S8.4,46,8.19,45.39Z"
           id="path39" />
        <path
           class="cls-6"
           d="M60.3,60.58a4.9,4.9,0,0,0,2.36-1.37c-.63.4-1.69.2-2.34.88A.82.82,0,0,1,60.3,60.58Z"
           id="path41" />
        <path
           class="cls-7"
           d="M56,59.09a11.37,11.37,0,0,0-4.61-.71q-1.1.33-2.2.61a45.35,45.35,0,0,1-6.32,1.29c-.72.09-1.43.15-2.15.18-1.91,0-3.84,0-5.75-.14-.64,0-1.27-.11-1.89-.2-3.35-.31-6.52-2.33-9.9-2.13A12.88,12.88,0,0,0,31,61.33a20.2,20.2,0,0,0,2.1.07c2.12,0,4.28-.32,6.08-.42l1.32-.12c2.62-.25,5.15-.56,7.17-.53.66,0,1.32,0,2,.07a6.23,6.23,0,0,0,2.53.15,4.4,4.4,0,0,0,2.17-.9A3.68,3.68,0,0,1,56,59.09Z"
           id="path43" />
        <path
           class="cls-9"
           d="M60,61.34c-1.89-.23-3.68-.23-4.8,1.49,1.79-.21,4,.64,5.63-.94C60.72,61.67,60.47,61.47,60,61.34Z"
           id="path45" />
        <path
           class="cls-7"
           d="M6.55,27a7.56,7.56,0,0,1-.06-1.67,8.47,8.47,0,0,1,.29-1.59c1-2.49,1.91-5.15,3.14-7.59.31-.61.64-1.21,1-1.79,1.29-1.87,2.56-3.89,4.46-5.1a21.92,21.92,0,0,0-3.66,2.94,17.36,17.36,0,0,0-1.37,1.56A31.42,31.42,0,0,0,5.82,23,9.9,9.9,0,0,0,5.46,25a8.33,8.33,0,0,0,.65,4C6.27,28.32,6.45,27.61,6.55,27Z"
           id="path47" />
        <path
           class="cls-10"
           d="M61.53,5.72c.93.93,1.77,1.74,2.62,2.75,1.94,3,2.55,6.35,4.27,9.28a13.16,13.16,0,0,0,1.18,1.71c1.52,3,3.63,5.6,4.05,9,0-3-1.27-5.86-2.83-8.72-.35-.57-.72-1.12-1.11-1.68C67.31,12.92,65,7.26,59.62,4.12,60.25,4.59,60.91,5.16,61.53,5.72Z"
           id="path49" />
        <path
           class="cls-11"
           d="M63.52,58.36a22.48,22.48,0,0,0,6.28-10.2c.2-.62.38-1.24.56-1.87.52-1.88,1-3.8,1.4-5.69.15-.66.27-1.33.38-2a30.64,30.64,0,0,0,.28-6.2c.12-.64.23-1.28.3-1.92a13.47,13.47,0,0,0-3.09-11c-.36-.59-.7-1.21-1-1.84-3-5.65-5.05-12.37-12.3-14a12.06,12.06,0,0,0-2.1-.55c-5.07-.87-11.28.87-16.45-.26-.46,0-.92-.05-1.37-.05a64.66,64.66,0,0,0-6.8.52q-.93.12-1.84.3a34.54,34.54,0,0,0-5.31,1.53,18,18,0,0,0-1.86.83,23.11,23.11,0,0,0-8.81,8.37c-.43.59-.84,1.19-1.22,1.81a21,21,0,0,0-2.91,8.16c-.14.68-.26,1.34-.35,2a21.77,21.77,0,0,0,.54,8.19c.09.71.19,1.41.31,2.11a34.19,34.19,0,0,0,3.5,10.16c.31.71.63,1.38,1,2A15.22,15.22,0,0,0,21.22,56c.6.28,1.22.53,1.84.77A54.26,54.26,0,0,0,33,59.2q1,.22,2,.36a23.57,23.57,0,0,0,6.12.11c.71-.05,1.42-.14,2.13-.27a34.58,34.58,0,0,0,6.31-1.78,14.38,14.38,0,0,1,1.68-.16c4.07.13,7.66,2.75,11.71,1.27A2.87,2.87,0,0,0,63.52,58.36Z"
           id="path51" />
        <path
           class="cls-12"
           d="M55.69,50.06c.15.3.36.4.58.3.75-.83.22-2-.25-2.74a5.83,5.83,0,0,0-.41-.57c-.14-.18-.29-.34-.43-.5a4.19,4.19,0,0,0-.7-.51,7.42,7.42,0,0,0-.68-.36l-.67-.29a1.49,1.49,0,0,0-1,.09,2.32,2.32,0,0,0-.79.63,1.51,1.51,0,0,0-.3.63,2.53,2.53,0,0,0,2.26,2.65,3.23,3.23,0,0,0,.78.06,2.83,2.83,0,0,1,.8.21,4.6,4.6,0,0,1,.75.42S55.69,50.08,55.69,50.06Z"
           id="path53" />
        <path
           class="cls-13"
           d="M55.64,49.57c1.17.37,1-1.07.75-1.66a3.58,3.58,0,0,0-.71-1.22,4.68,4.68,0,0,0-1-1,5.64,5.64,0,0,0-.72-.38,6.88,6.88,0,0,0-.74-.28,2,2,0,0,0-.7,0,2.28,2.28,0,0,0-.74.26,2.11,2.11,0,0,0-.62.75A1.5,1.5,0,0,0,51,47c.18,1.29,1.34,1.72,2.43,2l.64.15a5.8,5.8,0,0,0,.75.27c.25.08.5.15.73.24A.08.08,0,0,0,55.64,49.57Z"
           id="path55" />
        <path
           class="cls-14"
           d="M51.38,46.85a1.65,1.65,0,0,1,1.36-1,2.65,2.65,0,0,1,.88.06,3.59,3.59,0,0,1,1.17.55,6,6,0,0,1,.51.41,5.53,5.53,0,0,1,.57.57c.17.2.33.41.5.61a2.81,2.81,0,0,1-.61-1,4.1,4.1,0,0,0-.74-1,3.78,3.78,0,0,0-.52-.44,3.11,3.11,0,0,0-.62-.33,3.24,3.24,0,0,0-.72-.21,3.38,3.38,0,0,0-.78,0,1.73,1.73,0,0,0-.78.34,1.67,1.67,0,0,0-.62,1,1.4,1.4,0,0,0,.25,1.12A1.2,1.2,0,0,1,51.38,46.85Z"
           id="path57" />
        <path
           class="cls-12"
           d="M36.13,57.82a3.49,3.49,0,0,0,.77-4.12,1.86,1.86,0,0,0-1.26-.76,3.24,3.24,0,0,0-3.38,3c0,1,.84,1.41,1.69,1.76a6.71,6.71,0,0,0,2.13.18A.18.18,0,0,0,36.13,57.82Z"
           id="path59" />
        <path
           class="cls-13"
           d="M36.08,57.5c.83-1.32,2.1-3.34.83-4.76a1.74,1.74,0,0,0-1.29-.43c-1.45,0-1.87,1.24-2.72,2a2.12,2.12,0,0,0,1.16,3.21,3.12,3.12,0,0,0,2,0A.21.21,0,0,0,36.08,57.5Z"
           id="path61" />
        <path
           class="cls-14"
           d="M33.22,55a13.1,13.1,0,0,1,1.4-1.21,1.41,1.41,0,0,1,1.65,0c.63.4.63,1.21.63,1.82a1.89,1.89,0,0,0,.63-2,1.52,1.52,0,0,0-1.9-1,4.4,4.4,0,0,0-2.91,3.34A2.31,2.31,0,0,1,33.22,55Z"
           id="path63" />
        <path
           class="cls-12"
           d="M59.72,15.13a2.09,2.09,0,0,0,.46-2.47,1.11,1.11,0,0,0-.75-.45,1.94,1.94,0,0,0-2,1.82c0,.61.51.85,1,1.05a4,4,0,0,0,1.28.11A.09.09,0,0,0,59.72,15.13Z"
           id="path65" />
        <path
           class="cls-13"
           d="M59.69,14.94c.5-.79,1.26-2,.5-2.85a1,1,0,0,0-.78-.26c-.87,0-1.12.74-1.63,1.23A1.27,1.27,0,0,0,58.48,15a1.87,1.87,0,0,0,1.18,0A.13.13,0,0,0,59.69,14.94Z"
           id="path67" />
        <path
           class="cls-14"
           d="M58,13.42a7.71,7.71,0,0,1,.84-.72.84.84,0,0,1,1,0c.38.24.38.73.38,1.09a1.14,1.14,0,0,0,.38-1.21.91.91,0,0,0-1.14-.6,2.64,2.64,0,0,0-1.74,2A1.33,1.33,0,0,1,58,13.42Z"
           id="path69" />
        <path
           class="cls-12"
           d="M62.67,57.58c.63-1.4-1.06-1.8-1.91-2a.68.68,0,0,0-.63,1,2.28,2.28,0,0,0,2.49,1Z"
           id="path71" />
        <path
           class="cls-13"
           d="M62.73,57.51a1.15,1.15,0,0,0,.56.09c.84-1.41-1.27-1.62-2.11-1.82-.21,0-.63.61-.63.81a2,2,0,0,0,2.13.94Z"
           id="path73" />
        <path
           class="cls-14"
           d="M60.39,56c.8.57,2.06.57,2.91,1.18-.21-1-2.32-2.63-3.11-1C60.18,56,60.24,56,60.39,56Z"
           id="path75" />
        <g
           class="cls-15"
           id="g77">
          <path
             class="cls-12"
             d="M24.57,8.76a1.34,1.34,0,0,0,.1-2.1c-.85-.61-1.9.2-2.69.38a.91.91,0,0,0-.47,1.44,1.18,1.18,0,0,0,1.24.65,9.91,9.91,0,0,0,1.74-.29A.32.32,0,0,0,24.57,8.76Z"
             id="path79" />
          <path
             class="cls-13"
             d="M24.65,8.53a1.84,1.84,0,0,0,.86-1.27c-.21-1-2.11-1.42-3-.61-.63.41-1.06.81-.85,1.62a1.43,1.43,0,0,0,1.22.64,3.56,3.56,0,0,0,1.64-.31A.4.4,0,0,0,24.65,8.53Z"
             id="path81" />
          <path
             class="cls-14"
             d="M21.76,7.58a2.59,2.59,0,0,1,3.74.09c-.21-1.21-1.69-1.41-2.75-1a2.23,2.23,0,0,0-1.37,1.25A.87.87,0,0,1,21.76,7.58Z"
             id="path83" />
        </g>
        <g
           class="cls-15"
           id="g85">
          <path
             class="cls-12"
             d="M71.16,30.24c.58-2,1.64-5.8-.68-5.6-2.11.2-3,4.45-.85,6.27.42.2,1.06-.2,1.39-.44A1.93,1.93,0,0,0,71.16,30.24Z"
             id="path87" />
          <path
             class="cls-13"
             d="M71.43,29.52c.31-1.64,1.37-4.88-.74-4.88-2.32-.2-1.69,3.84-.21,5.26.21.2.63,0,.86-.15C71.36,29.7,71.41,29.56,71.43,29.52Z"
             id="path89" />
          <path
             class="cls-14"
             d="M70,26.32c.29-.67.29-1.27.72-1.68,1.06-.4,1.06,1,1.06,1.82,0-1,0-2.43-.85-2.43-1.69-.2-.63,2.22-1.69,3.15A3.41,3.41,0,0,1,70,26.32Z"
             id="path91" />
        </g>
        <g
           class="cls-15"
           id="g93">
          <path
             class="cls-12"
             d="M17.25,40.69C18.33,40.42,20,39.4,19,38.6c-1.48-1-5.28-.81-5.07,1.21,0,1.41,1.9,1.41,3.19,1Z"
             id="path95" />
          <path
             class="cls-13"
             d="M17.52,40.42c.6-.41,2.5-1.22,1.24-2.23-1.69-1-5.49-.4-4.65,2,.42,1.21,2.11.2,3.25.3Z"
             id="path97" />
          <path
             class="cls-14"
             d="M14.45,39.17c1.13-1.18,3.67-1.38,4.72.23.85-1.21-1.05-1.82-1.9-1.82-1.69-.2-3.38.61-3.49,2.16A2.22,2.22,0,0,1,14.45,39.17Z"
             id="path99" />
        </g>
        <path
           class="cls-16"
           d="M10.12,41.46a14.06,14.06,0,0,0-.86-3.71c-.21-.6-.42-1.19-.6-1.78-1.08-2.87-.82-5.87-.58-8.78,0-.58.1-1.16.13-1.73a15.47,15.47,0,0,1,2.45-9.23q.5-.79,1.08-1.54A24.51,24.51,0,0,1,21,6c.62-.31,1.26-.59,1.92-.84a16.59,16.59,0,0,1,5.85-1.65c.66-.07,1.32-.1,2-.12,2.12-.05,4.25-.11,6.38-.13l2.15,0c3.35.47,7.88-.25,12-.21.82,0,1.62,0,2.38.13a12.42,12.42,0,0,1,1.87.36c7.4,1.51,10.36,8,13.33,13.89.33.65.66,1.29,1,1.92a5.89,5.89,0,0,1,1.49,4.86c-.21,1.82-1.27,3.64-3.17,3.84-3.38.4-6.54-.4-9.92-.59l-2.37-.15a34.43,34.43,0,0,0-6.45.17,10.25,10.25,0,0,0-2,.5c-.67.18-1.33.39-2,.63s-1.47.49-2.16.73l-1.92.75c-2.77,1.08-5.57,2.22-8.28,3.32l-1,.42L31,34.27l-3.88,1.57-1.32.54c-.65.27-1.29.52-2,.77-4,2-8.67,1.44-12.51,3.64C10.87,41,10.47,41.24,10.12,41.46Z"
           id="path101" />
        <path
           class="cls-17"
           d="M11.52,15.26a21.14,21.14,0,0,1,8.77-8.48A18.14,18.14,0,0,1,22.16,6,22.48,22.48,0,0,1,27.8,4.29q1-.16,1.93-.24c2.16-.21,4.33-.32,6.49-.37l2.16,0C42,4,46.51,3.33,50.63,3.32c.82,0,1.63,0,2.41.1a11.61,11.61,0,0,1,1.54.17,12.06,12.06,0,0,1,1.48.36c7.85,1.35,9.83,8.52,12.84,14.32.34.65.69,1.28,1.08,1.89a16.19,16.19,0,0,1,2.19,4.5A16.29,16.29,0,0,0,70,20.15a17.68,17.68,0,0,1-1.16-1.83C65.67,12.67,64.57,5.46,57,3.77a13.13,13.13,0,0,0-1.84-.6A15.18,15.18,0,0,0,53,2.82c-4.51-.42-9.88.71-14.17.27l-2,0c-2,0-4.08.09-6.11.16-.69,0-1.37.06-2,.14a16.34,16.34,0,0,0-5.92,1.75A19.5,19.5,0,0,0,20.95,6a27.53,27.53,0,0,0-8.82,8.18c-.38.48-.75,1-1.08,1.45a17.39,17.39,0,0,0-.95,1.54,5.19,5.19,0,0,0,1-1.11A4.77,4.77,0,0,0,11.52,15.26Z"
           id="path103" />
        <path
           class="cls-6"
           d="M74.1,30.6c0-.29,0-.5.18-.5a5.22,5.22,0,0,0-.61,1.62,12,12,0,0,1-.44,1.62c-.38,2.06-.8,4.08-1.31,6.07-.17.66-.35,1.32-.54,2-.4,1.77-.73,3.61-1.15,5.42-.14.6-.29,1.2-.45,1.8-1.2,3.53-2.47,7.37-5.85,9.59,3.38-2.22,5.07-5.86,6.2-9.5.19-.6.38-1.2.55-1.8.53-1.81,1-3.63,1.64-5.35q.31-.94.56-1.89a30.48,30.48,0,0,0,1-6,10.94,10.94,0,0,0,.26-1.63A13.37,13.37,0,0,0,74.1,30.6Z"
           id="path105" />
        <path
           class="cls-7"
           d="M73.9,33.51a2.57,2.57,0,0,0,.16-2.4,7,7,0,0,1-.22,1.73c-.44,2-.86,4-1.35,6q-.24,1-.51,1.94c-.52,1.71-.94,3.53-1.41,5.34-.16.6-.32,1.21-.49,1.81-1.09,3.61-2.57,7.45-5.74,9.87a16.47,16.47,0,0,0,6-9.41c.22-.71.42-1.42.62-2.13.4-1.43.76-2.85,1.18-4.22q.27-.85.49-1.72a33.5,33.5,0,0,0,.91-5.3C73.68,34.52,73.8,34,73.9,33.51Z"
           id="path107" />
        <path
           class="cls-18"
           d="M7.71,17.15C9,22,15.59,23.43,19,27c.56.41,1.09.84,1.61,1.29a20.47,20.47,0,0,1,1.49,1.43q-.63-.76-1.3-1.46c-.44-.47-.9-.93-1.36-1.37C16.64,22.62,8.83,20.6,8.75,15.28Z"
           id="path109" />
        <path
           class="cls-10"
           d="M7.9,16.8c.51,0,.51-.45.51-.65C8.62,21.82,16.22,23.43,19.5,27c.48.4.94.81,1.38,1.26a16.13,16.13,0,0,1,1.25,1.42,11.65,11.65,0,0,0-.71-1.17c-.26-.38-.53-.75-.82-1.1C17.49,22.83,9.89,21,8.94,14.94Z"
           id="path111" />
        <path
           class="cls-19"
           d="M44.89,49.12a3.79,3.79,0,0,1-3.62-2.53,11.54,11.54,0,0,1-.41-4L28.11,40.77c-5.7,0-8.59-2.21-8.59-6.44,0-6,6.08-6.16,8.59-6.16l12.18-1.92-.09-.13c-1.69-2.66-1.32-4.55-.71-5.66,1.51-2.76,5.55-2.9,6.34-2.9h0a2.15,2.15,0,0,1,1.08.29c.37.22,9.21,5.34,11.81,7.27,1.41,1,3.8,3.28,4,6.48.09,1.54-.33,3.88-2.88,6.29-.61.58-1.33,1.29-2.12,2.07-5.23,5.19-9.49,9.16-12.83,9.16Z"
           id="path113" />
        <path
           class="cls-2"
           d="M44.9,48.49A3.79,3.79,0,0,1,41.28,46a11.51,11.51,0,0,1-.41-4L28.13,40.14c-5.7,0-8.6-2.21-8.6-6.44,0-6,6.08-6.16,8.59-6.16L40.3,25.62l-.09-.13c-1.69-2.66-1.32-4.55-.71-5.66,1.51-2.76,5.55-2.9,6.34-2.9h0a2.15,2.15,0,0,1,1.08.29c.37.22,9.21,5.34,11.81,7.27,1.41,1,3.8,3.28,4,6.48.09,1.54-.33,3.88-2.88,6.29-.61.58-1.33,1.29-2.12,2.07-5.23,5.19-9.49,9.16-12.83,9.16Z"
           id="path115" />
        <path
           class="cls-20"
           d="M57.45,26.21c-2.53-1.88-11.61-7.13-11.61-7.13s-7.16,0-3.82,5.26c.64,1,1.32,2,2,2.88L28.29,29.69c-3.58,0-6.61.43-6.61,4s3,4.29,6.61,4.29l15,2.2a12.42,12.42,0,0,0,0,5c1.86,4.62,10.9-5.49,15.1-9.46S60,28.09,57.45,26.21Z"
           id="path117" />
      </g>
    </g>
  </g>
</svg>
