<svg xmlns="http://www.w3.org/2000/svg" xmlns:xlink="http://www.w3.org/1999/xlink" viewBox="0 0 370.31 249.24"><defs><style>.cls-1{isolation:isolate;}.cls-10,.cls-2,.cls-3{fill:#664538;}.cls-14,.cls-3,.cls-7{mix-blend-mode:multiply;}.cls-4{fill:#89624d;}.cls-5{fill:#7e5843;}.cls-12,.cls-13,.cls-14,.cls-6,.cls-7{fill:#684536;}.cls-6{opacity:0.65;}.cls-18,.cls-7{opacity:0.29;}.cls-18,.cls-8{fill:#b89e82;}.cls-8{opacity:0.25;}.cls-9{fill:#7b523b;}.cls-10{opacity:0.59;}.cls-11,.cls-16{opacity:0.66;}.cls-11{fill:url(#linear-gradient);}.cls-12{opacity:0.85;}.cls-12,.cls-17{mix-blend-mode:screen;}.cls-13{opacity:0.95;}.cls-14{opacity:0.33;}.cls-15{opacity:0.74;}.cls-16{fill:url(#linear-gradient-2);}.cls-17{opacity:0.35;fill:url(#linear-gradient-3);}</style><linearGradient id="linear-gradient" x1="191.15" y1="-287.72" x2="191.15" y2="281.9" gradientUnits="userSpaceOnUse"><stop offset="0" stop-color="#ac8f73"/><stop offset="0.99" stop-color="#6a3722"/></linearGradient><linearGradient id="linear-gradient-2" x1="99.16" y1="-66.34" x2="285.47" y2="299.49" xlink:href="#linear-gradient"/><linearGradient id="linear-gradient-3" x1="119.9" y1="-75.04" x2="301.69" y2="281.94" xlink:href="#linear-gradient"/></defs><title>Asset 2</title><g class="cls-1"><g id="Layer_2" data-name="Layer 2"><g id="Layer_1-2" data-name="Layer 1"><path class="cls-2" d="M261.64,248.41c-2.8,0-5.58-.14-8.34-.4s-5.53-.61-8.29-1-5.51-.93-8.27-1.41c-3.51-.09-7-.16-10.54-.21-11.64.37-23.33.72-35,.88-3.91.06-7.82.09-11.8.12-10.5-.75-22-.23-33.65.16-3.88.13-7.76.24-11.64.29-23.48,3.11-42.25-3.26-57.92-13.61-2.61-1.72-5.14-3.56-7.59-5.48C55.7,216.85,42.39,205,32.1,191.91q-2.57-3.27-4.88-6.65C14.63,166-2.41,144.53.28,122.56a40.66,40.66,0,0,1,1.94-8.31A158.32,158.32,0,0,1,12.29,89.13c1.36-2.69,2.79-5.34,4.27-8A98.68,98.68,0,0,1,36.09,50.26q3.16-3.44,6.64-6.69a127.52,127.52,0,0,1,49-33.51q4.8-1.79,9.79-3.15a159.91,159.91,0,0,1,29.22-5.56q4.92-.48,9.87-.68A280.88,280.88,0,0,1,173,.29c3.62.13,7.25.31,10.88.5,27.48,1,53.41.14,80.42-.7a45.43,45.43,0,0,1,16.57,2.29c15.84,6.06,29.89,14.41,41.77,26.1C333.42,41,334.5,56.85,347.47,67.7a49.59,49.59,0,0,1,5.27,6.43c10.87,13.9,16,28.57,15.92,43.25a62.13,62.13,0,0,1-.7,8.8A116.41,116.41,0,0,1,360.12,160c-1.06,2.72-2.21,5.42-3.42,8.13-2.58,7.65-5.39,15.48-8.81,23.1-1.14,2.55-2.35,5.08-3.67,7.62-10.79,24.09-36.72,48.3-72.71,49.23A83.92,83.92,0,0,1,261.64,248.41Z"/><path class="cls-3" d="M262.9,249.21c-2.81,0-5.6-.14-8.37-.39s-5.55-.6-8.32-1-5.53-.91-8.3-1.39c-3.52-.09-7-.16-10.58-.2-11.68.37-23.41.71-35.16.87-3.92.06-7.85.09-11.84.11-10.54-.74-22.11-.23-33.77.15l-5.84.17q-2.92.07-5.85.11a100.51,100.51,0,0,1-30.13.86A88.63,88.63,0,0,1,95,246.69c-37.15-8.83-59.05-43-77.28-74.31-1.65-2.49-3.3-5-4.87-7.56C5,152.08-1.07,138.74.62,125.21a39.4,39.4,0,0,1,2-8.19,154.19,154.19,0,0,1,10.1-24.75C14,89.63,15.47,87,17,84.36A97.06,97.06,0,0,1,36.56,54q3.17-3.39,6.67-6.59a128.07,128.07,0,0,1,49.12-33q4.81-1.76,9.82-3.11a163.17,163.17,0,0,1,29.33-5.48q4.94-.47,9.9-.67a287.1,287.1,0,0,1,32.54-.37c3.63.13,7.27.3,10.92.49,27.58,1,53.6.13,80.71-.69A46.37,46.37,0,0,1,282.18,6.8c15.9,6,30,14.2,41.92,25.71C334.94,44.85,336,60.47,349,71.17a48.88,48.88,0,0,1,5.29,6.33c10.91,13.69,16.09,28.15,16,42.61a60.08,60.08,0,0,1-.7,8.67,106.74,106.74,0,0,1-2.66,17q-1,4.17-2.3,8.26c-6.56,31.23-14.77,64.46-45.83,79.24-2.51,1.78-5.11,3.48-7.83,5a80.36,80.36,0,0,1-38.16,10.63A85.72,85.72,0,0,1,262.9,249.21Z"/><path class="cls-4" d="M101.53,243.68a61.47,61.47,0,0,1-26.81-13.45c-2.43-2-4.73-4.17-7-6.39-11-11.54-25.19-22.47-35.47-34.94-1.71-2.08-3.32-4.2-4.85-6.4-8.86-16.67-23.17-35.16-24.36-54a37.39,37.39,0,0,1,.35-8.1A127.9,127.9,0,0,1,13.2,89.24c1.16-2.5,2.41-5,3.7-7.47A84.36,84.36,0,0,1,36.21,50.93c2.19-2.29,4.52-4.5,7-6.64A133.59,133.59,0,0,1,92,13q4.78-1.72,9.74-3.06a123.27,123.27,0,0,1,30.73-6c3.42-.26,6.86-.39,10.3-.45,10.93.41,22.17.2,33.51-.14,3.78-.11,7.58-.24,11.42-.38C209.87,1,235.24-.26,257.32,3c3.68.54,7.27,1.21,10.74,2q3.8.92,7.5,2C314,12.61,334.5,38.49,343.9,65.65c1.7,2.76,3.34,5.49,5,8.3,12.8,13.57,17.85,28.29,17.41,43.2a64.62,64.62,0,0,1-.9,9A128.29,128.29,0,0,1,359,159.3c-.9,2.68-1.89,5.35-2.95,8a165.46,165.46,0,0,1-5.54,18q-1.68,4.49-3.73,8.9c-11.16,29.59-44.65,53-85.16,51.22a79.57,79.57,0,0,1-12.19-1.81c-3.26-.26-6.54-.59-9.8-1-3.47-.13-7-.23-10.47-.28-10.2.44-20.16.82-30,1q-4.92.11-9.82.17c-9.56.4-19.34.42-29.18.28q-4.92-.07-9.86-.18c-13.47.13-27.51-1.54-41-.17C104.34,243.68,101.53,243.68,101.53,243.68Z"/><path class="cls-5" d="M265.68,243c-3.4-.44-6.45-.66-9.41-1a60.75,60.75,0,0,1-8.88-1.43c-3-.42-6-.88-9-1.32-14.23-.31-28.42,1.85-42.87,2.91-2.89.21-5.8.38-8.72.48-11.77-.67-24.28-.31-36.76-.22-4.17,0-8.33,0-12.56,0a90.88,90.88,0,0,1-55.77-10.15,104.66,104.66,0,0,1-9.15-5.53C58,217,43.95,204.94,34.28,191.17c-1.61-2.3-3.1-4.64-4.5-7C21.51,166.9,7.91,149.47,5.46,131.38a40.28,40.28,0,0,1-.32-7.79,91.35,91.35,0,0,1,8.69-32.4c1.2-2.56,2.51-5.09,3.88-7.64a83.85,83.85,0,0,1,20.06-32.2c2.29-2.34,4.73-4.6,7.29-6.81A120.94,120.94,0,0,1,95.77,13.63c3.29-1,6.64-1.92,10.1-2.77A127.32,127.32,0,0,1,136,5.13c3.38-.26,6.77-.41,10.27-.54,8-.57,16.08-.89,24.1-1q6-.1,12-.08c22.54,2,49.83-2.36,73.66-.9a113.85,113.85,0,0,1,11.59,1.27,65.82,65.82,0,0,1,9.94,1.81c34.67,6.25,49.52,32.57,63.61,55.55,1.57,2.55,3.12,5.06,4.7,7.5,14.28,14.94,19.8,31,19.34,47.24a70.47,70.47,0,0,1-.71,8.15A119,119,0,0,1,358.72,158q-1.33,4-3,8c-1.87,5.89-3.85,12-6.15,18.09-1.15,3-2.38,6.09-3.72,9.11-10.31,24.78-34.08,50.66-72,50.25C271.31,243.41,268.6,243.29,265.68,243Z"/><path class="cls-6" d="M108.51,241.35c-3.33-6.65-13.28-14.89-21.24-16.13a8.85,8.85,0,0,0-7,1.41c-2.43,1.88-2.7,3.76-1.55,5.51,3.45,5.27,19.69,9.45,28.72,9.27Z"/><path class="cls-7" d="M102.31,240.42c-10.12-2.93-18.76-7.11-27.41-11.28,8.64,5.84,18.37,12.52,31.17,12.33Q104.2,241,102.31,240.42Z"/><path class="cls-8" d="M3.36,127.44c.24,2.37.24,6.54.24,6.54,4.59.83,7.56.42,9.43-.82s2.62-3.3,2.75-5.78c-.29-8.42-3.53-16.77-4.61-25.11-1.08,5-4.32,10.85-5.33,15.52a28.64,28.64,0,0,0-2.47,9.52S3.36,127.39,3.36,127.44Z"/><path class="cls-6" d="M36.5,181.45c-8.06-13.25-3.74-29.11-15.62-42.46-3.24-3.34-16.21-5-14,.84,6.48,15,14,30.89,24,45.22,1.43,2.55,3,5.08,4.63,7.56,10,14.87,24.36,27.69,43.8,28.19C66.62,213.14,54,204.91,45,194a61,61,0,0,1-4.94-6.87C38.8,185.15,37.62,183.28,36.5,181.45Z"/><path class="cls-7" d="M28.42,177.89c-6.46-13-8.62-28-22.67-38.06,10.8,15,15.13,31.72,25.87,46.86,1.48,2.17,3.08,4.29,4.78,6.37,8.51,10.41,19.59,19.8,30.93,28.57-10.8-9.74-21.61-19.48-30.53-30.3q-2.68-3.25-5.11-6.63C30.54,182.55,29.47,180.29,28.42,177.89Z"/><path class="cls-6" d="M295.09,240.64c4.52-.64,8.84-3.15,12.08-5.65-3.24,1.67-8.64.84-12,3.64A2.79,2.79,0,0,1,295.09,240.64Z"/><path class="cls-7" d="M273.12,234.46c-8.08-2.82-15.64-2.82-23.62-2.92q-5.61,1.39-11.24,2.53a281.63,281.63,0,0,1-32.35,5.32c-3.67.36-7.34.62-11,.76-9.75-.06-19.65,0-29.4-.56-3.25-.19-6.49-.46-9.7-.83-17.16-1.27-33.37-9.62-50.65-8.79,10.8,7.51,24.85,13.36,39.93,13.74,3.5.25,7.1.32,10.72.27,10.86-.14,21.92-1.33,31.11-1.73q3.38-.24,6.74-.51c13.39-1,26.36-2.31,36.69-2.19,3.38,0,6.74.13,10.11.28a39.28,39.28,0,0,0,13,.63,25.6,25.6,0,0,0,11.13-3.73A22,22,0,0,1,273.12,234.46Z"/><path class="cls-9" d="M287.11,236.71c-9.1-.89-17.75-.89-23.15,5.79,8.64-.83,19.45,2.5,27.19-3.66C290.78,238,289.57,237.23,287.11,236.71Z"/><path class="cls-7" d="M20,102.07a24.79,24.79,0,0,1-.28-6.92,29.26,29.26,0,0,1,1.46-6.56c5.25-10.28,9.77-21.27,16.08-31.35,1.58-2.52,3.27-5,5.1-7.37C49,42.16,55.45,33.81,65.17,28.8A111.72,111.72,0,0,0,46.47,40.95a80.81,80.81,0,0,0-7,6.43C28.59,58.5,21.86,72.53,16.29,85.58a33.79,33.79,0,0,0-1.87,7.92,28.62,28.62,0,0,0,3.32,16.65C18.57,107.41,19.48,104.46,20,102.07Z"/><path class="cls-10" d="M301.34,14.1c4.75,3.85,9.07,7.19,13.39,11.37,9.9,12.52,13.05,26.2,21.82,38.29a55.76,55.76,0,0,0,6.05,7.05c7.78,12.25,18.58,23.1,20.74,37.29,0-12.52-6.48-24.21-14.49-36-1.77-2.34-3.71-4.62-5.69-6.94-12.23-21.34-24.11-44.71-51.58-57.68C294.8,9.44,298.2,11.79,301.34,14.1Z"/><path class="cls-11" d="M311.56,231.44c16.14-11.48,25.86-26.5,32.14-42.12q1.53-3.83,2.86-7.72c2.68-7.78,4.87-15.7,7.17-23.49q1.14-4.1,1.92-8.28a102.08,102.08,0,0,0,1.44-25.58c.64-2.65,1.16-5.3,1.54-7.94,2.29-15.85-.68-31.42-15.8-45.46-1.85-2.46-3.59-5-5.28-7.59C322.4,39.91,311.7,12.19,274.62,5.4a74.27,74.27,0,0,0-10.76-2.25c-25.94-3.57-57.7,3.62-84.17-1.06-2.34-.14-4.68-.21-7-.22C161,1.79,149.32,3.1,137.89,4q-4.74.48-9.41,1.24a209.8,209.8,0,0,0-27.15,6.34Q96.47,13.08,91.82,15A111.56,111.56,0,0,0,46.73,49.58c-2.22,2.44-4.3,4.92-6.23,7.48A76.74,76.74,0,0,0,25.61,90.77c-.72,2.79-1.33,5.55-1.77,8.33a73.16,73.16,0,0,0,2.77,33.81c.47,2.95,1,5.83,1.58,8.71a123.88,123.88,0,0,0,17.91,42,93.45,93.45,0,0,0,5.1,8.4c9,13.37,24.05,24.21,43.86,29.62q4.62,1.73,9.42,3.19c16,4.88,33.56,7.74,50.88,10.14q5,.9,10.07,1.5a149.37,149.37,0,0,0,31.3.45c3.62-.23,7.25-.6,10.87-1.09a211,211,0,0,0,32.3-7.34c2.85-.34,5.72-.58,8.61-.65,20.85.52,39.22,11.37,59.95,5.25A15.26,15.26,0,0,0,311.56,231.44Z"/><path class="cls-12" d="M316.83,175.42a2.35,2.35,0,0,0,3,1.24c3.86-3.41,1.1-8.1-1.26-11.32a26.61,26.61,0,0,0-2.07-2.33c-.73-.74-1.48-1.43-2.22-2.05a21.54,21.54,0,0,0-3.6-2.1c-1.13-.55-2.29-1-3.45-1.48s-2.3-.82-3.41-1.18a9.32,9.32,0,0,0-5.31.37,11.84,11.84,0,0,0-4.07,2.61,5.75,5.75,0,0,0-1.53,2.61c-1,5.64,4.94,9.84,11.55,10.92a20.47,20.47,0,0,0,4,.26,17.46,17.46,0,0,1,4.13.85,25.5,25.5,0,0,1,3.83,1.73C316.6,175.64,316.83,175.51,316.83,175.42Z"/><path class="cls-13" d="M316.54,173.42c6,1.54,4.9-4.43,3.83-6.85a13.51,13.51,0,0,0-1.54-2.72,15.67,15.67,0,0,0-2.09-2.34,21.19,21.19,0,0,0-2.44-2.18,23.92,23.92,0,0,0-2.88-1.88,32.4,32.4,0,0,0-3.67-1.56c-1.25-.45-2.53-.83-3.79-1.14a12.82,12.82,0,0,0-3.58,0,13.59,13.59,0,0,0-3.77,1.07,9.31,9.31,0,0,0-3.17,3.09,5.2,5.2,0,0,0-.7,3.73c.93,5.33,6.83,7.1,12.46,8.25,1.12.23,2.24.44,3.3.64a34.27,34.27,0,0,0,3.83,1.1c1.29.31,2.57.62,3.75,1C316.3,173.65,316.53,173.51,316.54,173.42Z"/><path class="cls-14" d="M294.75,162.18a7.77,7.77,0,0,1,3-2.87,10.2,10.2,0,0,1,4-1.14,16.68,16.68,0,0,1,4.51.27,20.45,20.45,0,0,1,6,2.28,29.69,29.69,0,0,1,2.64,1.68,25.85,25.85,0,0,1,2.91,2.36c.89.82,1.72,1.68,2.54,2.54-1.1-1.29-2.76-2.56-3.11-4.21a17.79,17.79,0,0,0-3.78-3.95,18.85,18.85,0,0,0-2.69-1.82,17.37,17.37,0,0,0-3.17-1.37,19.65,19.65,0,0,0-3.68-.87,21.39,21.39,0,0,0-4-.16,10.06,10.06,0,0,0-4,1.42,6.88,6.88,0,0,0-3.16,4.08,4.92,4.92,0,0,0,1.31,4.64A4.17,4.17,0,0,1,294.75,162.18Z"/><path class="cls-12" d="M171.39,229.23c5.42-3.82,8-12.29,3.92-17a10,10,0,0,0-6.42-3.13c-9.72,0-17.28,5.84-17.28,12.52,0,4.17,4.32,5.84,8.65,7.26a42.21,42.21,0,0,0,10.91.74A.63.63,0,0,0,171.39,229.23Z"/><path class="cls-13" d="M171.12,227.92c4.25-5.45,10.74-13.8,4.25-19.64a10.32,10.32,0,0,0-6.62-1.77c-7.43.1-9.59,5.11-13.91,8.45-4.32,5-1.08,10.85,5.91,13.26a19.6,19.6,0,0,0,10.09.13A.83.83,0,0,0,171.12,227.92Z"/><path class="cls-14" d="M156.52,217.43c2.4-1.66,4.69-3.74,7.18-5a8.64,8.64,0,0,1,8.43,0c3.24,1.67,3.24,5,3.24,7.51,3.24-2.5,4.32-5,3.24-8.35s-5.4-5-9.72-4.17c-8.64,1.67-13,8.35-14.88,13.78A9,9,0,0,1,156.52,217.43Z"/><path class="cls-12" d="M292.12,52.94c3.25-2.29,4.78-7.36,2.35-10.18a6,6,0,0,0-3.85-1.88c-5.83,0-10.36,3.5-10.36,7.5,0,2.5,2.59,3.5,5.18,4.35a25.31,25.31,0,0,0,6.54.44A.38.38,0,0,0,292.12,52.94Z"/><path class="cls-13" d="M292,52.15c2.55-3.27,6.43-8.27,2.55-11.77a6.18,6.18,0,0,0-4-1.06c-4.45.06-5.74,3.06-8.33,5.06-2.59,3-.65,6.5,3.54,7.94a11.75,11.75,0,0,0,6,.08A.51.51,0,0,0,292,52.15Z"/><path class="cls-14" d="M283.2,45.87a38.81,38.81,0,0,1,4.3-3,5.18,5.18,0,0,1,5.05,0c1.94,1,1.94,3,1.94,4.5,1.94-1.5,2.59-3,1.94-5s-3.24-3-5.83-2.5c-5.18,1-7.77,5-8.91,8.26A5.38,5.38,0,0,1,283.2,45.87Z"/><path class="cls-12" d="M307.2,228.23c3.22-5.76-5.43-7.43-9.75-8.27-3.24,0-4.32,2.5-3.24,4.17,2.16,3.34,7.56,5,12.73,4.17A1.42,1.42,0,0,0,307.2,228.23Z"/><path class="cls-13" d="M307.53,228a7.12,7.12,0,0,0,2.88.36c4.32-5.84-6.48-6.68-10.8-7.51-1.08,0-3.24,2.5-3.24,3.34,2.16,2.5,6.48,5,10.89,3.9A1.41,1.41,0,0,0,307.53,228Z"/><path class="cls-14" d="M295.53,221.77c4.08,2.36,10.56,2.36,14.88,4.87-1.08-4.17-11.88-10.85-15.92-4.27C294.46,221.89,294.74,221.63,295.53,221.77Z"/><g class="cls-15"><path class="cls-12" d="M112.22,26.63c4.81-2.84,2.65-7,.49-8.68-4.32-2.5-9.72.83-13.77,1.56-3,1.15-4.59,3-2.43,5.95,1.08,2.09,3.51,2.71,6.35,2.7a61.65,61.65,0,0,0,8.94-1.21A1.69,1.69,0,0,0,112.22,26.63Z"/><path class="cls-13" d="M112.65,25.68c2.23-1.05,4.39-3.56,4.39-5.23-1.08-4.17-10.8-5.84-15.12-2.53-3.25,1.69-5.41,3.36-4.33,6.7,1.08,1.67,3.51,2.49,6.27,2.66A22,22,0,0,0,112.22,26,1.73,1.73,0,0,0,112.65,25.68Z"/><path class="cls-14" d="M97.87,21.76c4-3.81,14.84-4.64,19.16.37-1.08-5-8.64-5.84-14.09-4.12a10.88,10.88,0,0,0-7,5.17A4.19,4.19,0,0,1,97.87,21.76Z"/></g><g class="cls-15"><path class="cls-12" d="M342.46,117.09c1.25-3.39,3.51-10-1.47-9.68-4.53.35-6.34,7.69-1.81,10.84.9.35,2.26-.35,3-.76A4,4,0,0,0,342.46,117.09Z"/><path class="cls-13" d="M343,115.85c.67-2.84,2.93-8.44-1.59-8.44-5-.35-3.62,6.64-.45,9.09.45.35,1.36,0,1.83-.27A4.07,4.07,0,0,0,343,115.85Z"/></g><g class="cls-15"><path class="cls-12" d="M74.79,158.49c5.51-1.14,14.15-5.31,8.75-8.65-7.56-4.17-27-3.34-25.93,5,0,5.84,9.72,5.84,16.34,4A5.34,5.34,0,0,0,74.79,158.49Z"/><path class="cls-13" d="M76.14,157.39c3.08-1.71,12.8-5,6.32-9.22-8.64-4.17-28.09-1.67-23.77,8.35,2.16,5,10.8.84,16.64,1.23A4.68,4.68,0,0,0,76.14,157.39Z"/><path class="cls-14" d="M60.45,152.21c5.81-4.87,18.77-5.71,24.17,1,4.32-5-5.4-7.51-9.72-7.51-8.64-.83-17.29,2.5-17.87,8.93A11.07,11.07,0,0,1,60.45,152.21Z"/></g><path class="cls-16" d="M343.85,70.49c-1.73-2.58-3.42-5.23-5.11-7.92C323.53,38.41,308.37,11.42,270.5,5.2a77.79,77.79,0,0,0-9.57-1.49c-3.93-.35-8-.51-12.2-.55C227.83,3,204.66,6,187.5,4l-11,.09c-10.91.1-21.82.32-32.68.54-3.43.08-6.81.22-10.17.5A101,101,0,0,0,103.74,12c-3.37,1-6.63,2.17-9.82,3.46-19.09,7.7-35.37,20.8-47.39,35.71A81.91,81.91,0,0,0,41,57.48C32.46,68.39,27.54,81,28.44,95.58c-.18,2.37-.42,4.75-.66,7.16-1.22,12-2.55,24.43,3,36.27,1,2.44,2,4.89,3.09,7.36,2.09,4.94,4,10,4.43,15.32q2.71-1.37,6.16-2.78a66.86,66.86,0,0,1,9.3-3.43c-1.44-13.93,28.16-18.86,35.83-6.38a93.09,93.09,0,0,0,18.92-5.2c3.41-1,6.73-2.08,10-3.18l6.75-2.25c6.64-2.21,13.28-4.35,19.85-6.48l5.42-1.75,5.28-1.72c13.85-4.53,28.18-9.22,42.35-13.7q4.81-1.52,9.84-3.08c3.55-1,7.17-2,11-3,3.3-1,6.66-1.83,10.09-2.58a62.87,62.87,0,0,1,10.26-2.07c10.29-1.29,21.58-1.07,33-.71,4,.19,7.93.39,12.1.63,17.28.79,33.48,4.13,50.77,2.46,9.72-.84,15.12-8.35,16.21-15.86S350.39,76.38,343.85,70.49Z"/><path class="cls-17" d="M45.43,53.49C55.84,38.64,71.58,26,90.31,18.45q4.68-1.89,9.6-3.34a136.22,136.22,0,0,1,28.85-6.94q4.92-.65,9.9-1c11.07-.85,22.14-1.34,33.19-1.52q5.53-.09,11.07-.09c18.37,1.6,41.6-1.36,62.67-1.37,4.21,0,8.34.11,12.33.4a72.73,72.73,0,0,1,7.86.69,74,74,0,0,1,7.59,1.48c40.15,5.56,50.29,35.19,65.7,59.13,1.73,2.67,3.53,5.27,5.52,7.79,4.72,6,9,11.89,11.21,18.57-2.16-6.68-6.48-12.52-11.18-18.57a74.07,74.07,0,0,1-6-7.56C322.54,42.77,316.93,13,278.33,6a78.28,78.28,0,0,0-9.42-2.48A93.88,93.88,0,0,0,257.75,2.1C234.64.37,207.2,5,185.25,3.22c-3.5,0-7,.06-10.47.1-10.44.13-20.86.38-31.26.64-3.52.09-7,.26-10.44.57a99,99,0,0,0-30.27,7.23q-4.69,1.57-9.13,3.5C75.88,23,60.65,35.57,48.57,49c-2,2-3.82,3.95-5.55,6a72.11,72.11,0,0,0-4.85,6.35c2.16-1.67,4.32-3.34,5.07-4.6A18.89,18.89,0,0,0,45.43,53.49Z"/><path class="cls-6" d="M365.68,116.82c-.17-1.21-.17-2,.91-2a19.32,19.32,0,0,0-3.11,6.68,43.06,43.06,0,0,1-2.24,6.71c-2,8.51-4.11,16.86-6.71,25.08q-1.29,4.11-2.75,8.16c-2,7.3-3.76,14.89-5.9,22.36-.71,2.49-1.47,5-2.31,7.44-6.16,14.56-12.64,30.42-29.93,39.6,17.29-9.18,25.93-24.21,31.75-39.24,1-2.46,1.91-4.94,2.82-7.43,2.72-7.46,5.22-15,8.38-22.1q1.58-3.86,2.88-7.81a104,104,0,0,0,5-24.7,37.88,37.88,0,0,0,1.33-6.71A44.17,44.17,0,0,0,365.68,116.82Z"/><path class="cls-7" d="M364.69,128.85c3-3.22,1.9-6.56.82-9.9a23.52,23.52,0,0,1-1.14,7.14c-2.25,8.38-4.41,16.64-6.89,24.73-.83,2.7-1.69,5.38-2.6,8-2.65,7.06-4.79,14.56-7.2,22-.8,2.5-1.63,5-2.52,7.47-5.59,14.89-13.15,30.75-29.36,40.77,16.21-9.18,25.93-24.21,30.69-38.87,1.13-2.92,2.17-5.87,3.18-8.81,2-5.89,3.9-11.79,6-17.42q1.37-3.51,2.5-7.08a114.39,114.39,0,0,0,4.64-21.87C363.53,133,364.14,130.92,364.69,128.85Z"/><path class="cls-18" d="M26.55,63.17c4.07,12,24,15.46,34.55,24.2,1.69,1,3.33,2.06,4.91,3.17s3.1,2.27,4.54,3.52q-1.93-1.87-4-3.6c-1.35-1.16-2.74-2.28-4.16-3.38C53.81,76.63,30,71.66,29.73,58.55Z"/><path class="cls-10" d="M27.14,62.3c1.55-.1,1.55-1.1,1.55-1.59.64,13.94,23.83,17.92,33.84,26.76,1.46,1,2.86,2,4.2,3.09a44.21,44.21,0,0,1,3.82,3.49,28.81,28.81,0,0,0-2.15-2.89c-.79-.93-1.63-1.83-2.52-2.71-9.5-11.32-32.69-15.8-35.58-30.74Z"/></g></g></g></svg>