<?xml version="1.0" encoding="utf-8"?>
<!-- Generator: Adobe Illustrator 20.1.0, SVG Export Plug-In . SVG Version: 6.00 Build 0)  -->
<svg version="1.1"
	 id="svg2" inkscape:export-filename="G:\_PROJECTS\Stock Packs\2016\Castle Pack\rpg_14.png" inkscape:export-xdpi="180" inkscape:export-ydpi="180" inkscape:version="0.48.4 r9939" sodipodi:docname="rpg_items.svg" xmlns:cc="http://creativecommons.org/ns#" xmlns:dc="http://purl.org/dc/elements/1.1/" xmlns:inkscape="http://www.inkscape.org/namespaces/inkscape" xmlns:rdf="http://www.w3.org/1999/02/22-rdf-syntax-ns#" xmlns:sodipodi="http://sodipodi.sourceforge.net/DTD/sodipodi-0.dtd" xmlns:svg="http://www.w3.org/2000/svg"
	 xmlns="http://www.w3.org/2000/svg" xmlns:xlink="http://www.w3.org/1999/xlink" x="0px" y="0px" viewBox="0 0 50 50"
	 style="enable-background:new 0 0 50 50;" xml:space="preserve">
<style type="text/css">
	.st0{fill:#5DCC0E;}
	.st1{fill:#009D39;}
	.st2{fill:#C8FEA4;}
	.st3{fill:#FFFFFF;}
</style>
<g id="layer1" transform="translate(0,147.6378)" inkscape:groupmode="layer" inkscape:label="Layer 1">
	
		<g id="g11153" transform="matrix(4.5639064,0,0,4.5639064,-2494.5146,-987.01021)" inkscape:export-filename="G:\_PROJECTS\Stock Packs\2016\Castle Pack\Pack\game_items_pack\PNG\256px\Gems\gem_9.png" inkscape:export-xdpi="90" inkscape:export-ydpi="90">
		<path id="path11155" inkscape:connector-curvature="0" sodipodi:nodetypes="cccccc" class="st0" d="M546.7,188l3.1-3.8h4.6
			l3.1,3.8l-5.4,5.8L546.7,188z"/>
		<path id="path11157" inkscape:connector-curvature="0" sodipodi:nodetypes="ccccc" class="st1" d="M549.7,184.2L549,188h6.1
			l-0.7-3.8H549.7z"/>
		<path id="path11159" inkscape:connector-curvature="0" sodipodi:nodetypes="cccc" class="st1" d="M546.7,188h10.8l-5.4,6.8
			L546.7,188z"/>
		<path id="path11161" inkscape:connector-curvature="0" sodipodi:nodetypes="ccccc" class="st2" d="M549,188l3.1-3.8l3.1,3.8
			l-3.1,5.3L549,188z"/>
		<path id="path11163" inkscape:connector-curvature="0" sodipodi:nodetypes="cccc" class="st0" d="M549.2,188h6.1l-3.3,6.7
			L549.2,188z"/>
		<path id="path11165" inkscape:connector-curvature="0" sodipodi:nodetypes="ccccccccc" class="st3" d="M546.8,188l1.9-0.4l3.3-3.3
			l-2.7,3.3l5.7,0.4l-5.5,0.3l2.5,6.1l-3-6.1L546.8,188z"/>
	</g>
</g>
</svg>
