<svg xmlns="http://www.w3.org/2000/svg" xmlns:xlink="http://www.w3.org/1999/xlink" viewBox="0 0 168.7 284.82"><defs><style>.cls-1{fill:#210606;opacity:0.45;}.cls-2{fill:url(#linear-gradient);}.cls-3{fill:url(#linear-gradient-2);}.cls-4{fill:#fffbb8;opacity:0.4;}.cls-5{fill:#27440e;opacity:0.32;}.cls-6{fill:url(#linear-gradient-3);}.cls-7{fill:url(#linear-gradient-4);}.cls-8{fill:#faff99;opacity:0.26;}.cls-9{fill:#f9f9b4;}.cls-10,.cls-11,.cls-12,.cls-13,.cls-14{opacity:0.39;}.cls-10{fill:url(#linear-gradient-5);}.cls-11{fill:url(#linear-gradient-6);}.cls-12{fill:url(#linear-gradient-7);}.cls-13{fill:url(#linear-gradient-8);}.cls-14{fill:url(#linear-gradient-9);}</style><linearGradient id="linear-gradient" x1="-607.71" y1="-21.31" x2="-614.52" y2="363.75" gradientTransform="matrix(-1, 0, 0, 1, -523.63, 0)" gradientUnits="userSpaceOnUse"><stop offset="0" stop-color="#548a38"/><stop offset="1" stop-color="#45471f"/></linearGradient><linearGradient id="linear-gradient-2" x1="-607.87" y1="-17.81" x2="-615.16" y2="408.96" gradientTransform="matrix(-1, 0, 0, 1, -523.63, 0)" gradientUnits="userSpaceOnUse"><stop offset="0" stop-color="#91c22b"/><stop offset="1" stop-color="#617a2b"/></linearGradient><linearGradient id="linear-gradient-3" x1="-613.93" y1="-54.97" x2="-599.36" y2="414.95" gradientTransform="matrix(-1, 0, 0, 1, -523.63, 0)" gradientUnits="userSpaceOnUse"><stop offset="0" stop-color="#c2ff1a"/><stop offset="1" stop-color="#5e700f"/></linearGradient><linearGradient id="linear-gradient-4" x1="-605.22" y1="46.92" x2="-615.16" y2="517.43" gradientTransform="matrix(-1, 0, 0, 1, -523.63, 0)" gradientUnits="userSpaceOnUse"><stop offset="0" stop-color="#ade626"/><stop offset="0.99" stop-color="#2b7d26"/></linearGradient><linearGradient id="linear-gradient-5" x1="-661.1" y1="183.03" x2="-628.74" y2="134.48" gradientTransform="matrix(-1, 0, 0, 1, -523.63, 0)" gradientUnits="userSpaceOnUse"><stop offset="0" stop-color="#73572e"/><stop offset="1" stop-color="#3b701c"/></linearGradient><linearGradient id="linear-gradient-6" x1="-629.11" y1="182.03" x2="-620.01" y2="158.76" xlink:href="#linear-gradient-5"/><linearGradient id="linear-gradient-7" x1="-630.51" y1="167.34" x2="-622.32" y2="146.4" xlink:href="#linear-gradient-5"/><linearGradient id="linear-gradient-8" x1="-586" y1="102.31" x2="-566.11" y2="74.66" xlink:href="#linear-gradient-5"/><linearGradient id="linear-gradient-9" x1="-577.1" y1="114.51" x2="-563.28" y2="106.42" xlink:href="#linear-gradient-5"/></defs><title>levels_next</title><g id="Layer_2" data-name="Layer 2"><g id="Ñëîé_1" data-name="Ñëîé 1"><path class="cls-1" d="M4.33,14.59a5.62,5.62,0,0,1,3.55-2A157.91,157.91,0,0,1,27,10.93c4.48,0,7.4.48,9.46,1.56C58.08,23.86,94,55.41,113.5,73.2c23.08,21.07,49.79,47.32,52.68,53,5.09,10,1.21,39.64-.68,43.32-2.13,4.17-50.84,56-114.43,111.64a5.63,5.63,0,0,1-2.57,1.27,124.08,124.08,0,0,1-21.71,2.39h0c-5.57,0-9.81-.69-13-2.11a5.48,5.48,0,0,1-3.19-4.22c-3.51-25-7.36-85.35-9.37-146.86C-2.27,22.81,2.52,16.84,4.33,14.59Z"/><path class="cls-2" d="M7.95,3.66a5.47,5.47,0,0,1,3.48-2A151,151,0,0,1,30.1,0c4.38,0,7.24.48,9.25,1.56,21.17,11.37,56.3,42.92,75.37,60.71,22.57,21.07,48.69,47.33,51.52,53,5,10,1.18,39.64-.66,43.32-2.08,4.17-49.72,56-111.91,111.64a5.48,5.48,0,0,1-2.51,1.27,119,119,0,0,1-21.23,2.39h0c-5.45,0-9.59-.69-12.67-2.11a5.46,5.46,0,0,1-3.12-4.22c-3.43-25-7.2-85.35-9.16-146.86C1.49,11.88,6.18,5.91,7.95,3.66Z"/><path class="cls-3" d="M12.25,7S32.32,4,36.76,6.38C72.55,25.59,157.37,109.76,161.35,117.71s.66,35.78-.66,38.44S113,209.82,50,266.15c0,0-21.87,4.64-30.48.66C12.25,213.8,5,16.32,12.25,7Z"/><path class="cls-4" d="M12.25,7S32.32,4,36.76,6.38c.67.36,1.36.75,2.07,1.16,3.7,12.18,9,32.21,4.6,33.83C37,43.69,27.71,41.94,21.3,30.88,17.9,25,13.85,20.12,10.44,15.51,10.9,10.94,11.5,8,12.25,7Z"/><path class="cls-5" d="M19.71,262.16c9.63-23,15.56-47.43,24.46-57.07s43.72-28.9,52.62-37.79,40-51.88,50.4-52.62c5.59-.4,7.21,3.34,14.35,3.45,3.68,8.45.46,35.41-.85,38S113,209.82,50,266.15c0,0-21.87,4.64-30.48.66-.14-1-.28-2.13-.43-3.27C19.31,263.09,19.51,262.63,19.71,262.16Z"/><path class="cls-5" d="M100.32,163.4C110,156.2,119,151.78,123.81,152c7,.35,23.11,3.82,35,6.56-9.32,11-51.2,55.85-106.22,105.3,1.19-14.38,4.91-38.8,13-58.86,4.31-10.65,12.32-21.12,21.18-29.91a80.27,80.27,0,0,0,10-7.82C97.73,166.36,98.93,165,100.32,163.4Z"/><path class="cls-6" d="M10.45,15.47c.46-4.55,1-7.48,1.8-8.43l1-.14c.13.3.27.6.39.91C18,18.73,32.43,49.91,42.43,37.1,45.36,33.35,36.48,13,34.76,5.78a6.92,6.92,0,0,1,2,.6C39,7.58,41.43,9,44,10.7c-2.78,7.92.46,19.93,21.7,38.63,42.62,37.52,53,55.13,67.61,62.42,6.64,3.32,14.35-6.29,16.75-7.08,6.3,6.63,10.4,11.34,11.26,13-5.69-.58-12.24-.93-16.56.16-8.74,2.19-9.47,12-7.65,24.77,1.11,7.78,14.3,9.73,24.41,10.06a17.17,17.17,0,0,1-.83,3.5,55.36,55.36,0,0,1-4.29,5.17c-8-3.37-21.54-8.28-26.93-6-7.65,3.28-39.71,43-52.46,53.91S58.43,226,56.61,241.31A82.45,82.45,0,0,0,56.87,260q-3.39,3.07-6.86,6.17s-1.51.32-3.88.72c.82-2.8,1.66-6.08,2.45-9.9,3.28-15.67,7.65-32.05,2.18-32.05s-9.11-.73-14.94,6.56c-4.14,5.18-8.29,25.46-10.34,36.75a19.09,19.09,0,0,1-6-1.41c-.34-2.46-.68-5.23-1-8.28,6.72-13.38,14.54-33,15.5-38.72,1.46-8.74-4.37-118.39-4-126.4S30.38,49,22,32.58A91.69,91.69,0,0,0,10.45,15.47Z"/><path class="cls-7" d="M35.81,47.2s12.78-2,15.61-.44c22.79,12.79,76.79,68.78,79.33,74.07s.42,23.81-.42,25.57S99.95,182.12,59.86,219.6c0,0-13.92,3.08-19.41.44C35.81,184.77,31.17,53.37,35.81,47.2Z"/><path class="cls-8" d="M54.39,54.32c19.84,11.14,66.88,59.9,69.09,64.51a16.2,16.2,0,0,1,1,5.63c-10.05-6-32.86-17.71-50.15-11.95-14,4.65-25.84,27-33.07,44.39-2.2-44-3.22-98.53-.45-102.2C40.8,54.71,51.93,52.94,54.39,54.32Z"/><path class="cls-9" d="M41.25,156.91c-2.2-44-3.22-98.53-.45-102.2,0,0,11.13-1.77,13.6-.38,17.08,9.59,54.3,47,65.75,60.23-16.29-14.3-59.53-51.91-64.61-52.81C49.26,60.64,43,57,42.26,68.39c-.55,8.45-.48,60-.27,86.76Z"/><path class="cls-8" d="M49.24,212.37c3.47-24.44,18.94-77.09,41.53-84,14-4.32,26.48.77,34.92,6.3-.3,4.82-.94,9.18-1.31,10-.76,1.6-27.57,32.41-63.95,66.42A64.33,64.33,0,0,1,49.24,212.37Z"/><path class="cls-10" d="M121.38,137.79s7.63,1.54,1.4,12.17-15.55,13.73-16.93,8.9S113.44,134.33,121.38,137.79Z"/><path class="cls-11" d="M100.66,160.23s7.6.35,3.8,6.91-3.8,10-8.29,7.6S94.1,159.54,100.66,160.23Z"/><path class="cls-12" d="M105.25,144.94s-.67,12.81-3,13.15-5.4.34-6.74-1.68S102.55,140.22,105.25,144.94Z"/><path class="cls-13" d="M45.58,72.45s4.72-11.13,7.42,3-3,23.6-6.74,21.24S44.56,74.81,45.58,72.45Z"/><path class="cls-14" d="M44.23,103.13s4.38-1,4,6.41-4,8.43-5.06,4.38S42.21,103.13,44.23,103.13Z"/></g></g></svg>