<svg xmlns="http://www.w3.org/2000/svg" xmlns:xlink="http://www.w3.org/1999/xlink" viewBox="0 0 168.7 284.82"><defs><style>.cls-1{fill:#210606;opacity:0.45;}.cls-2{fill:url(#linear-gradient);}.cls-3{fill:url(#linear-gradient-2);}.cls-4{fill:#fffbb8;opacity:0.4;}.cls-5{fill:#27440e;opacity:0.32;}.cls-6{fill:url(#linear-gradient-3);}.cls-7{fill:url(#linear-gradient-4);}.cls-8{fill:#faff99;opacity:0.26;}.cls-9{fill:#f9f9b4;}.cls-10,.cls-11,.cls-12,.cls-13,.cls-14{opacity:0.39;}.cls-10{fill:url(#linear-gradient-5);}.cls-11{fill:url(#linear-gradient-6);}.cls-12{fill:url(#linear-gradient-7);}.cls-13{fill:url(#linear-gradient-8);}.cls-14{fill:url(#linear-gradient-9);}</style><linearGradient id="linear-gradient" x1="84.62" y1="-21.31" x2="77.81" y2="363.75" gradientUnits="userSpaceOnUse"><stop offset="0" stop-color="#548a38"/><stop offset="1" stop-color="#45471f"/></linearGradient><linearGradient id="linear-gradient-2" x1="84.47" y1="-17.81" x2="77.18" y2="408.96" gradientUnits="userSpaceOnUse"><stop offset="0" stop-color="#91c22b"/><stop offset="1" stop-color="#617a2b"/></linearGradient><linearGradient id="linear-gradient-3" x1="78.41" y1="-54.97" x2="92.98" y2="414.95" gradientUnits="userSpaceOnUse"><stop offset="0" stop-color="#c2ff1a"/><stop offset="1" stop-color="#5e700f"/></linearGradient><linearGradient id="linear-gradient-4" x1="87.11" y1="46.92" x2="77.17" y2="517.43" gradientUnits="userSpaceOnUse"><stop offset="0" stop-color="#ade626"/><stop offset="0.99" stop-color="#2b7d26"/></linearGradient><linearGradient id="linear-gradient-5" x1="31.23" y1="183.03" x2="63.6" y2="134.48" gradientUnits="userSpaceOnUse"><stop offset="0" stop-color="#73572e"/><stop offset="1" stop-color="#3b701c"/></linearGradient><linearGradient id="linear-gradient-6" x1="63.22" y1="182.03" x2="72.32" y2="158.76" xlink:href="#linear-gradient-5"/><linearGradient id="linear-gradient-7" x1="61.83" y1="167.34" x2="70.02" y2="146.4" xlink:href="#linear-gradient-5"/><linearGradient id="linear-gradient-8" x1="106.33" y1="102.31" x2="126.22" y2="74.66" xlink:href="#linear-gradient-5"/><linearGradient id="linear-gradient-9" x1="115.23" y1="114.51" x2="129.05" y2="106.42" xlink:href="#linear-gradient-5"/></defs><title>levels_prev</title><g id="Layer_2" data-name="Layer 2"><g id="Ñëîé_1" data-name="Ñëîé 1"><path class="cls-1" d="M164.37,14.59a5.62,5.62,0,0,0-3.56-2,157.87,157.87,0,0,0-19.09-1.64c-4.48,0-7.4.48-9.46,1.56C110.62,23.86,74.69,55.41,55.2,73.2c-23.08,21.07-49.79,47.32-52.68,53-5.09,10-1.21,39.64.68,43.32,2.13,4.17,50.84,56,114.43,111.64a5.64,5.64,0,0,0,2.57,1.27,124.08,124.08,0,0,0,21.71,2.39h0c5.57,0,9.81-.69,13-2.11a5.48,5.48,0,0,0,3.19-4.22c3.51-25,7.36-85.35,9.37-146.86C171,22.81,166.18,16.84,164.37,14.59Z"/><path class="cls-2" d="M160.75,3.66a5.47,5.47,0,0,0-3.48-2A151,151,0,0,0,138.6,0c-4.38,0-7.24.48-9.25,1.56C108.19,12.93,73,44.48,54,62.27,31.42,83.35,5.3,109.6,2.47,115.26c-5,10-1.18,39.64.66,43.32,2.08,4.17,49.72,56,111.91,111.64a5.48,5.48,0,0,0,2.51,1.27,119,119,0,0,0,21.23,2.39h0c5.45,0,9.59-.69,12.67-2.11a5.47,5.47,0,0,0,3.12-4.22c3.43-25,7.2-85.35,9.16-146.86C167.21,11.88,162.52,5.91,160.75,3.66Z"/><path class="cls-3" d="M156.46,7S136.38,4,131.94,6.38C96.15,25.59,11.33,109.76,7.35,117.71s-.66,35.78.66,38.44,47.71,53.68,110.67,110c0,0,21.87,4.64,30.48.66C156.46,213.8,163.75,16.32,156.46,7Z"/><path class="cls-4" d="M156.46,7S136.38,4,131.94,6.38c-.67.36-1.36.75-2.07,1.16-3.7,12.18-9,32.21-4.6,33.83,6.41,2.33,15.72.58,22.13-10.48,3.4-5.87,7.45-10.76,10.86-15.36C157.8,10.94,157.21,8,156.46,7Z"/><path class="cls-5" d="M149,262.16c-9.63-23-15.56-47.43-24.46-57.07s-43.72-28.9-52.62-37.79-40-51.88-50.4-52.62c-5.59-.4-7.21,3.34-14.35,3.45-3.68,8.45-.46,35.41.85,38s47.71,53.68,110.67,110c0,0,21.87,4.64,30.48.66.14-1,.28-2.13.43-3.27C149.39,263.09,149.19,262.63,149,262.16Z"/><path class="cls-5" d="M68.38,163.4c-9.64-7.2-18.64-11.62-23.49-11.37-7,.35-23.11,3.82-35,6.56,9.32,11,51.2,55.85,106.22,105.3-1.19-14.38-4.91-38.8-13-58.86C98.83,194.38,90.81,183.91,82,175.12a80.2,80.2,0,0,1-10-7.82C71,166.36,69.77,165,68.38,163.4Z"/><path class="cls-6" d="M158.25,15.47c-.46-4.55-1-7.48-1.8-8.43l-1-.14c-.13.3-.27.6-.39.91-4.37,10.93-18.81,42.1-28.81,29.3-2.93-3.75,5.95-24.09,7.67-31.33a6.92,6.92,0,0,0-2,.6c-2.23,1.2-4.66,2.65-7.25,4.33,2.78,7.92-.46,19.93-21.7,38.63-42.62,37.52-53,55.13-67.61,62.42-6.64,3.32-14.35-6.29-16.75-7.08-6.3,6.63-10.4,11.34-11.26,13,5.69-.58,12.24-.93,16.56.16,8.74,2.19,9.47,12,7.65,24.77-1.11,7.78-14.3,9.73-24.41,10.06a17.18,17.18,0,0,0,.83,3.5,55.38,55.38,0,0,0,4.29,5.17c8-3.37,21.54-8.28,26.93-6,7.65,3.28,39.71,43,52.46,53.91s18.58,16.76,20.4,32.06a82.51,82.51,0,0,1-.27,18.67q3.39,3.07,6.86,6.17s1.51.32,3.88.72c-.82-2.8-1.66-6.08-2.46-9.9-3.28-15.67-7.65-32.05-2.18-32.05s9.11-.73,14.93,6.56c4.15,5.18,8.29,25.46,10.34,36.75a19.09,19.09,0,0,0,6-1.41c.34-2.46.68-5.23,1-8.28-6.72-13.38-14.54-33-15.5-38.72-1.46-8.74,4.37-118.39,4-126.4s-.36-44.44,8-60.83A91.68,91.68,0,0,1,158.25,15.47Z"/><path class="cls-7" d="M132.89,47.2s-12.78-2-15.61-.44C94.49,59.55,40.49,115.54,38,120.83s-.42,23.81.42,25.57,30.38,35.72,70.46,73.19c0,0,13.92,3.08,19.41.44C132.89,184.77,137.53,53.37,132.89,47.2Z"/><path class="cls-8" d="M114.31,54.32c-19.84,11.14-66.88,59.9-69.09,64.51a16.2,16.2,0,0,0-1,5.63c10.05-6,32.86-17.71,50.15-11.95,14,4.65,25.84,27,33.07,44.39,2.21-44,3.21-98.53.45-102.2C127.91,54.71,116.78,52.94,114.31,54.32Z"/><path class="cls-9" d="M127.45,156.91c2.21-44,3.21-98.53.45-102.2,0,0-11.13-1.77-13.6-.38-17.08,9.59-54.3,47-65.75,60.23,16.29-14.3,59.53-51.91,64.61-52.81,6.27-1.11,12.54-4.79,13.27,6.64.54,8.45.48,60,.27,86.76Z"/><path class="cls-8" d="M119.47,212.37c-3.47-24.44-18.94-77.09-41.53-84-14-4.32-26.48.77-34.92,6.3.3,4.82.94,9.18,1.31,10,.76,1.6,27.57,32.41,63.95,66.42A64.33,64.33,0,0,0,119.47,212.37Z"/><path class="cls-10" d="M47.32,137.79s-7.63,1.54-1.4,12.17,15.55,13.73,16.93,8.9S55.26,134.33,47.32,137.79Z"/><path class="cls-11" d="M68,160.23s-7.6.35-3.8,6.91,3.8,10,8.29,7.6S74.6,159.54,68,160.23Z"/><path class="cls-12" d="M63.45,144.94s.67,12.81,3,13.15,5.4.34,6.74-1.68S66.15,140.22,63.45,144.94Z"/><path class="cls-13" d="M123.13,72.45s-4.72-11.13-7.42,3,3,23.6,6.74,21.24S124.14,74.81,123.13,72.45Z"/><path class="cls-14" d="M124.48,103.13s-4.38-1-4,6.41,4,8.43,5.06,4.38S126.5,103.13,124.48,103.13Z"/></g></g></svg>