<svg xmlns="http://www.w3.org/2000/svg" viewBox="0 0 272 234"><defs><style>.cls-1{fill:#fff;}</style></defs><title>Asset 2</title><g id="Layer_2" data-name="Layer 2"><g id="Layer_1-2" data-name="Layer 1"><path class="cls-1" d="M0,117V234l116.8-.2,116.7-.3.3-53.3c.1-29.2-.1-53.2-.6-53.2s-4.7,3.9-9.5,8.8l-8.7,8.7V215H19V19H178.2l10.9-9.1c6-5,10.9-9.3,10.9-9.5S155,0,100,0H0Z"/><path class="cls-1" d="M182.1,56c-30.5,25.4-55.8,46.3-56.2,46.5s-10-9.6-21.5-22S83.4,58,83.1,58s-11,10.4-23.6,23l-23,23,43.8,43.8L124,191.5l74-74,74-74L255.3,26.8C246.1,17.5,238.3,10,238,10S212.5,30.7,182.1,56Z"/></g></g></svg>