<svg xmlns="http://www.w3.org/2000/svg" xmlns:xlink="http://www.w3.org/1999/xlink" viewBox="0 0 76.2 64.37"><defs><style>.cls-1{isolation:isolate;}.cls-10,.cls-2,.cls-3{fill:#664538;}.cls-3{opacity:0.37;}.cls-14,.cls-3,.cls-7{mix-blend-mode:multiply;}.cls-4{fill:#89624d;}.cls-5{fill:#7e5843;}.cls-12,.cls-13,.cls-14,.cls-6,.cls-7{fill:#684536;}.cls-6{opacity:0.65;}.cls-18,.cls-7{opacity:0.29;}.cls-18,.cls-8{fill:#b89e82;}.cls-8{opacity:0.25;}.cls-9{fill:#7b523b;}.cls-10{opacity:0.59;}.cls-11,.cls-16{opacity:0.66;}.cls-11{fill:url(#linear-gradient);}.cls-12{opacity:0.85;}.cls-12,.cls-17,.cls-19{mix-blend-mode:screen;}.cls-13{opacity:0.95;}.cls-14{opacity:0.33;}.cls-15{opacity:0.74;}.cls-16{fill:url(#linear-gradient-2);}.cls-17{opacity:0.35;fill:url(#linear-gradient-3);}.cls-19{fill:#512c1d;}.cls-20{fill:#00ffc9;}</style><linearGradient id="linear-gradient" x1="39.48" y1="-68.83" x2="39.48" y2="72.11" gradientUnits="userSpaceOnUse"><stop offset="0" stop-color="#ac8f73"/><stop offset="0.99" stop-color="#6a3722"/></linearGradient><linearGradient id="linear-gradient-2" x1="18.77" y1="-9.75" x2="58.85" y2="68.94" xlink:href="#linear-gradient"/><linearGradient id="linear-gradient-3" x1="23.89" y1="-11.84" x2="62.55" y2="64.09" xlink:href="#linear-gradient"/></defs><title>Asset 1</title><g class="cls-1"><g id="Layer_2" data-name="Layer 2"><g id="Layer_1-2" data-name="Layer 1"><path class="cls-2" d="M6.64,50.88A43.54,43.54,0,0,0,9.51,55c10.8-.63,21.61.35,32.37,1.27,6.07.52,12.16.35,18.23.45.72-.16,1.44-.29,2.16-.38a3.15,3.15,0,0,1,1.13-.21h1.41c1.53-.07,3.06-.06,4.6,0l.33-.11a24.06,24.06,0,0,0,1.41-3.22c.27-.67.52-1.34.76-2,.71-2,1.29-4.1,1.82-6.13.25-.72.49-1.43.71-2.16a38.32,38.32,0,0,0,1.62-9,21.13,21.13,0,0,0-3.14-13.8,13.11,13.11,0,0,0-1.09-1.7c-2.68-2.88-2.9-7.08-5.14-10.4A24.66,24.66,0,0,0,58,.63a7.61,7.61,0,0,0-1.66-.5A7.36,7.36,0,0,0,54.63,0C49,.24,43.68.47,38,.21L35.75.08a45,45,0,0,0-6.7.1c-.68,0-1.36.1-2,.18a26.71,26.71,0,0,0-6,1.47,19.37,19.37,0,0,0-2,.84A27.27,27.27,0,0,0,8.83,11.55q-.72.86-1.37,1.77a28.12,28.12,0,0,0-4,8.17c-.3.72-.6,1.42-.88,2.13A49.62,49.62,0,0,0,.46,30.29a13.4,13.4,0,0,0-.4,2.2C-.5,38.32,3,44,5.63,49.12Q6.1,50,6.64,50.88Z"/><path class="cls-2" d="M53,63.7a12.78,12.78,0,0,1-1.61-.1c-.53-.06-1.07-.15-1.6-.26s-1.06-.23-1.6-.35l-2-.05c-2.25.09-4.5.18-6.76.22l-2.28,0a50.28,50.28,0,0,0-6.49,0c-.75,0-1.5.06-2.24.07a13.2,13.2,0,0,1-11.17-3.37c-.5-.43-1-.88-1.46-1.36a58.54,58.54,0,0,1-7-8.86c-.33-.54-.65-1.09-.94-1.64C5.36,43.31,2.08,38,2.6,32.56A12.44,12.44,0,0,1,3,30.5a46,46,0,0,1,1.94-6.21c.26-.66.54-1.32.82-2A26.16,26.16,0,0,1,9.5,14.67q.61-.85,1.28-1.65a25.46,25.46,0,0,1,9.44-8.29,18.36,18.36,0,0,1,1.89-.78,24.87,24.87,0,0,1,5.64-1.38q.95-.12,1.9-.17a42.34,42.34,0,0,1,6.25-.09l2.1.12c5.3.24,10.3,0,15.51-.17a6.82,6.82,0,0,1,1.64.1,7.13,7.13,0,0,1,1.55.47,23,23,0,0,1,8.06,6.46c2.08,3.1,2.29,7,4.79,9.71a12.25,12.25,0,0,1,1,1.59,20.17,20.17,0,0,1,3.07,10.7,19.64,19.64,0,0,1-.13,2.18A35.73,35.73,0,0,1,72,41.82c-.21.68-.43,1.34-.66,2-.5,1.89-1,3.83-1.7,5.72-.22.63-.45,1.26-.71,1.89-2.08,6-7.08,12-14,12.18A12.76,12.76,0,0,1,53,63.7Z"/><path class="cls-3" d="M53.33,64.36a13.06,13.06,0,0,1-1.64-.1c-.55-.06-1.09-.15-1.64-.26s-1.09-.23-1.63-.36l-2.08-.05c-2.29.09-4.6.18-6.9.22l-2.33,0a51.09,51.09,0,0,0-6.63,0c-.76,0-1.53.06-2.29.07a13.49,13.49,0,0,1-11.41-3.44q-.77-.66-1.5-1.38a59.66,59.66,0,0,1-7.18-9c-.34-.55-.66-1.11-1-1.68C4.66,43.53,1.3,38.1,1.83,32.55a12.63,12.63,0,0,1,.38-2.1,47.06,47.06,0,0,1,2-6.35c.27-.68.55-1.35.84-2a26.74,26.74,0,0,1,3.85-7.79q.63-.87,1.31-1.69a26,26,0,0,1,9.65-8.47,18.86,18.86,0,0,1,1.93-.8,25.42,25.42,0,0,1,5.76-1.41q1-.12,1.94-.17a43.26,43.26,0,0,1,6.39-.1L38,1.77c5.42.24,10.53,0,15.85-.18a7,7,0,0,1,1.68.1,7.3,7.3,0,0,1,1.59.48,23.53,23.53,0,0,1,8.23,6.6c2.13,3.17,2.34,7.17,4.9,9.92a12.46,12.46,0,0,1,1,1.62,20.6,20.6,0,0,1,3.14,10.93,20,20,0,0,1-.14,2.23A36.55,36.55,0,0,1,72.74,42c-.21.69-.44,1.37-.67,2.05C71.56,46,71,48,70.33,49.91q-.34,1-.72,1.93C67.48,57.93,62.37,64,55.28,64.28A12.93,12.93,0,0,1,53.33,64.36Z"/><path class="cls-4" d="M22.13,62.53A11.17,11.17,0,0,1,17,59.2c-.47-.5-.91-1-1.36-1.58-2.13-2.86-4.86-5.56-6.84-8.65-.33-.51-.64-1-.93-1.58C6.12,43.26,3.36,38.69,3.13,34a11.83,11.83,0,0,1,.07-2,38.43,38.43,0,0,1,1.9-7.71c.22-.62.46-1.23.71-1.85a22.4,22.4,0,0,1,3.72-7.63c.42-.57.87-1.11,1.34-1.64a26.07,26.07,0,0,1,9.42-7.74,20.06,20.06,0,0,1,1.88-.76A19.25,19.25,0,0,1,28.09,3.2c.66-.06,1.32-.1,2-.11,2.11.1,4.28,0,6.46,0L38.75,3c4.28-.48,9.17-.79,13.43,0a20.36,20.36,0,0,1,2.07.5c.49.15,1,.32,1.45.51,7.41,1.37,11.37,7.77,13.18,14.49.33.68.64,1.36,1,2.05A17,17,0,0,1,73.2,31.22,20.53,20.53,0,0,1,73,33.44a39.71,39.71,0,0,1-1.24,8.21c-.17.66-.36,1.32-.57,2-.29,1.47-.64,3-1.07,4.46-.22.74-.45,1.47-.72,2.2C67.28,57.61,60.82,63.39,53,63a12.25,12.25,0,0,1-2.35-.45c-.63-.06-1.26-.15-1.89-.24s-1.34-.06-2-.07c-2,.11-3.89.2-5.79.26l-1.89,0c-1.84.1-3.73.1-5.63.07l-1.9,0c-2.6,0-5.31-.38-7.9,0C22.67,62.53,22.13,62.53,22.13,62.53Z"/><path class="cls-5" d="M53.79,62.37c-.66-.11-1.24-.16-1.82-.24a9.32,9.32,0,0,1-1.71-.35l-1.73-.33a68.62,68.62,0,0,0-8.27.72c-.56.05-1.12.09-1.68.12-2.27-.16-4.68-.08-7.09-.05-.8,0-1.61,0-2.42,0a14.31,14.31,0,0,1-10.76-2.51,19.59,19.59,0,0,1-1.77-1.37,32.55,32.55,0,0,1-7.39-8.81c-.31-.57-.6-1.15-.87-1.74-1.6-4.26-4.22-8.58-4.69-13.05a12.86,12.86,0,0,1-.06-1.93,27.75,27.75,0,0,1,1.68-8c.23-.63.49-1.26.75-1.89a22.3,22.3,0,0,1,3.87-8c.44-.58.91-1.14,1.41-1.69A23.21,23.21,0,0,1,21,5.6c.63-.25,1.28-.47,1.95-.69A19.84,19.84,0,0,1,28.78,3.5c.65-.06,1.31-.1,2-.13,1.55-.14,3.1-.22,4.65-.25q1.16,0,2.32,0c4.35.49,9.61-.58,14.21-.22a17.51,17.51,0,0,1,2.24.31,10.17,10.17,0,0,1,1.92.45c6.69,1.55,9.55,8.06,12.27,13.74.3.63.6,1.25.91,1.86A18.37,18.37,0,0,1,73,30.92q0,1-.14,2a37,37,0,0,1-1.12,8.38c-.17.67-.36,1.33-.57,2-.36,1.46-.74,3-1.19,4.48-.22.75-.46,1.51-.72,2.25-2,6.13-6.57,12.53-13.89,12.43A15.71,15.71,0,0,1,53.79,62.37Z"/><path class="cls-6" d="M23.54,62.07c-.64-1.65-2.56-3.68-4.1-4a1.42,1.42,0,0,0-1.35.35,1.09,1.09,0,0,0-.3,1.36c.67,1.3,3.8,2.34,5.54,2.29Z"/><path class="cls-7" d="M22.34,61.84a29.47,29.47,0,0,1-5.29-2.79c1.67,1.45,3.54,3.1,6,3.05Z"/><path class="cls-8" d="M3.25,33.89c0,.59,0,1.62,0,1.62a2,2,0,0,0,1.82-.2,1.91,1.91,0,0,0,.53-1.43c-.05-2.08-.68-4.15-.89-6.21-.21,1.24-.83,2.69-1,3.84a8.71,8.71,0,0,0-.48,2.36A.2.2,0,0,1,3.25,33.89Z"/><path class="cls-6" d="M9.65,47.25c-1.55-3.28-.72-7.2-3-10.51C6,35.92,3.51,35.51,3.92,37A72.6,72.6,0,0,0,8.54,48.14c.27.63.57,1.26.89,1.87,1.92,3.68,4.7,6.85,8.45,7a27.74,27.74,0,0,1-6.6-6.62,15.7,15.7,0,0,1-1-1.7Z"/><path class="cls-7" d="M8.09,46.37C6.84,43.15,6.43,39.43,3.72,37c2.08,3.72,2.92,7.85,5,11.6q.43.81.92,1.58a42.07,42.07,0,0,0,6,7.07,67.16,67.16,0,0,1-5.89-7.5q-.52-.8-1-1.64C8.5,47.53,8.29,47,8.09,46.37Z"/><path class="cls-6" d="M59.53,61.9a4.81,4.81,0,0,0,2.33-1.4c-.62.41-1.67.21-2.31.9A.86.86,0,0,1,59.53,61.9Z"/><path class="cls-7" d="M55.29,60.37a10.88,10.88,0,0,0-4.55-.72q-1.08.34-2.17.63a43.42,43.42,0,0,1-6.24,1.32c-.71.09-1.42.15-2.12.19-1.88,0-3.79,0-5.67-.14-.63,0-1.25-.11-1.87-.21-3.31-.31-6.44-2.38-9.77-2.17a12.5,12.5,0,0,0,7.7,3.4,19.26,19.26,0,0,0,2.07.07c2.1,0,4.23-.33,6-.43l1.3-.12A68.89,68.89,0,0,1,47,61.63c.65,0,1.3,0,2,.07a5.94,5.94,0,0,0,2.5.15,4.27,4.27,0,0,0,2.15-.92A3.55,3.55,0,0,1,55.29,60.37Z"/><path class="cls-9" d="M58,60.93c-1.76-.22-3.42-.22-4.46,1.43,1.67-.21,3.75.62,5.24-.91C58.7,61.25,58.46,61.05,58,60.93Z"/><path class="cls-7" d="M6.46,27.61a8,8,0,0,1-.05-1.71,9,9,0,0,1,.28-1.62c1-2.54,1.88-5.26,3.1-7.76.3-.62.63-1.23,1-1.82,1.27-1.91,2.53-4,4.4-5.21a21.75,21.75,0,0,0-3.61,3,17.41,17.41,0,0,0-1.36,1.59,32.56,32.56,0,0,0-4.47,9.45,10.36,10.36,0,0,0-.36,2A8.77,8.77,0,0,0,6,29.61C6.19,28.93,6.36,28.2,6.46,27.61Z"/><path class="cls-10" d="M60.73,5.84c.92,1,1.75,1.78,2.58,2.81,1.91,3.1,2.52,6.48,4.21,9.48a13.57,13.57,0,0,0,1.17,1.74c1.5,3,3.58,5.72,4,9.23,0-3.1-1.25-6-2.8-8.91-.34-.58-.72-1.14-1.1-1.72C66.44,13.2,64.15,7.42,58.85,4.21,59.47,4.69,60.13,5.27,60.73,5.84Z"/><path class="cls-11" d="M62.71,59.62A23.11,23.11,0,0,0,68.9,49.2c.2-.63.38-1.27.55-1.91.52-1.92.94-3.89,1.38-5.81q.22-1,.37-2a32.38,32.38,0,0,0,.28-6.33c.12-.66.22-1.31.3-2,.44-3.92-.13-7.78-3-11.25-.36-.61-.69-1.24-1-1.88-2.92-5.77-5-12.64-12.14-14.31a11.57,11.57,0,0,0-2.08-.56c-5-.88-11.13.89-16.24-.26-.45,0-.9-.05-1.35-.06a61.72,61.72,0,0,0-6.71.53q-.91.12-1.81.31a33.19,33.19,0,0,0-5.24,1.57,17.4,17.4,0,0,0-1.83.85,23.17,23.17,0,0,0-8.7,8.55c-.43.6-.83,1.22-1.2,1.85a22,22,0,0,0-2.87,8.34c-.14.69-.26,1.37-.34,2.06a23,23,0,0,0,.53,8.37c.09.73.19,1.44.31,2.15A35.79,35.79,0,0,0,11.5,47.78c.31.73.63,1.41,1,2.08a15.17,15.17,0,0,0,8.46,7.33c.59.28,1.2.55,1.82.79a52.07,52.07,0,0,0,9.81,2.51q1,.22,1.94.37a22.49,22.49,0,0,0,6,.11c.7-.06,1.4-.15,2.1-.27a33.25,33.25,0,0,0,6.23-1.82,13.73,13.73,0,0,1,1.66-.16c4,.13,7.56,2.81,11.56,1.3A2.81,2.81,0,0,0,62.71,59.62Z"/><path class="cls-12" d="M55,51.14c.14.31.36.41.57.31.74-.85.21-2-.24-2.8a6,6,0,0,0-.4-.58c-.14-.18-.29-.35-.43-.51a4.11,4.11,0,0,0-.69-.52,7.1,7.1,0,0,0-.67-.36l-.66-.29a1.42,1.42,0,0,0-1,.09,2.3,2.3,0,0,0-.78.65,1.57,1.57,0,0,0-.3.65,2.55,2.55,0,0,0,2.23,2.7,3.1,3.1,0,0,0,.77.06,2.72,2.72,0,0,1,.79.21,4.45,4.45,0,0,1,.74.43S55,51.16,55,51.14Z"/><path class="cls-13" d="M54.92,50.65c1.16.38.95-1.1.74-1.7a3.85,3.85,0,0,0-.3-.67,3.92,3.92,0,0,0-.4-.58,4.62,4.62,0,0,0-.47-.54,4.49,4.49,0,0,0-.55-.47,5.43,5.43,0,0,0-.71-.39,6.67,6.67,0,0,0-.73-.28,1.93,1.93,0,0,0-.69,0,2.21,2.21,0,0,0-.73.26,2.13,2.13,0,0,0-.61.77,1.58,1.58,0,0,0-.13.92c.18,1.32,1.32,1.76,2.4,2l.64.16a5.59,5.59,0,0,0,.74.27c.25.08.5.15.72.25A.07.07,0,0,0,54.92,50.65Z"/><path class="cls-14" d="M50.72,47.87a1.76,1.76,0,0,1,.58-.71,1.66,1.66,0,0,1,.77-.28,2.53,2.53,0,0,1,.87.07,3.5,3.5,0,0,1,1.16.56,6.12,6.12,0,0,1,.51.41,5.66,5.66,0,0,1,.56.58c.17.2.33.41.49.63a2.87,2.87,0,0,1-.6-1,4.15,4.15,0,0,0-.73-1,3.71,3.71,0,0,0-.52-.45,3,3,0,0,0-.61-.34,3.11,3.11,0,0,0-.71-.21,3.23,3.23,0,0,0-.77,0,1.68,1.68,0,0,0-.77.35,1.72,1.72,0,0,0-.61,1,1.47,1.47,0,0,0,.25,1.15A1.27,1.27,0,0,1,50.72,47.87Z"/><path class="cls-12" d="M35.67,59.08a3.65,3.65,0,0,0,.76-4.2,1.83,1.83,0,0,0-1.24-.77,3.24,3.24,0,0,0-3.33,3.1c0,1,.83,1.45,1.67,1.8a6.41,6.41,0,0,0,2.11.18A.19.19,0,0,0,35.67,59.08Z"/><path class="cls-13" d="M35.61,58.75c.82-1.35,2.07-3.41.82-4.86a1.68,1.68,0,0,0-1.28-.44c-1.43,0-1.85,1.27-2.68,2.09a2.19,2.19,0,0,0,1.14,3.28,3,3,0,0,0,1.94,0A.22.22,0,0,0,35.61,58.75Z"/><path class="cls-14" d="M32.8,56.16a13.15,13.15,0,0,1,1.39-1.23,1.35,1.35,0,0,1,1.63,0c.63.41.63,1.24.63,1.86a2,2,0,0,0,.63-2.07,1.49,1.49,0,0,0-1.88-1c-1.66.41-2.5,2.07-2.87,3.41A2.39,2.39,0,0,1,32.8,56.16Z"/><path class="cls-12" d="M59,15.45a2.19,2.19,0,0,0,.45-2.52,1.1,1.1,0,0,0-.74-.46,1.94,1.94,0,0,0-2,1.86c0,.62.5.87,1,1.08a3.83,3.83,0,0,0,1.26.11A.1.1,0,0,0,59,15.45Z"/><path class="cls-13" d="M58.92,15.26c.49-.81,1.24-2,.49-2.91a1,1,0,0,0-.77-.26c-.86,0-1.11.76-1.61,1.25a1.32,1.32,0,0,0,.68,2,1.78,1.78,0,0,0,1.17,0A.13.13,0,0,0,58.92,15.26Z"/><path class="cls-14" d="M57.23,13.71a7.78,7.78,0,0,1,.83-.74.81.81,0,0,1,1,0c.38.25.38.74.38,1.11a1.18,1.18,0,0,0,.37-1.24.9.9,0,0,0-1.12-.62,2.67,2.67,0,0,0-1.72,2A1.39,1.39,0,0,1,57.23,13.71Z"/><path class="cls-12" d="M61.86,58.83c.62-1.43-1-1.84-1.88-2a.7.7,0,0,0-.62,1,2.22,2.22,0,0,0,2.45,1Z"/><path class="cls-13" d="M61.93,58.76a1.1,1.1,0,0,0,.55.09c.83-1.45-1.25-1.65-2.08-1.86-.21,0-.62.62-.62.83a2,2,0,0,0,2.1,1Z"/><path class="cls-14" d="M59.61,57.23c.79.58,2,.58,2.87,1.2-.21-1-2.29-2.69-3.07-1.06C59.41,57.26,59.46,57.2,59.61,57.23Z"/><g class="cls-15"><path class="cls-12" d="M24.25,8.95a1.4,1.4,0,0,0,.1-2.15c-.83-.62-1.88.21-2.66.39a.94.94,0,0,0-.47,1.47,1.16,1.16,0,0,0,1.22.67A9.48,9.48,0,0,0,24.17,9,.32.32,0,0,0,24.25,8.95Z"/><path class="cls-13" d="M24.34,8.71a1.88,1.88,0,0,0,.85-1.29C25,6.39,23.1,6,22.26,6.79c-.63.42-1,.83-.83,1.66a1.39,1.39,0,0,0,1.21.66,3.41,3.41,0,0,0,1.61-.32A.34.34,0,0,0,24.34,8.71Z"/><path class="cls-14" d="M21.48,7.74a2.5,2.5,0,0,1,3.7.09c-.21-1.24-1.67-1.45-2.72-1a2.23,2.23,0,0,0-1.36,1.28A.86.86,0,0,1,21.48,7.74Z"/></g><g class="cls-15"><path class="cls-12" d="M70.24,30.9c.58-2,1.62-5.93-.68-5.72-2.08.21-2.92,4.54-.83,6.4.42.21,1-.21,1.38-.45A2,2,0,0,0,70.24,30.9Z"/><path class="cls-13" d="M70.51,30.16c.31-1.68,1.35-5-.73-5-2.29-.21-1.67,3.92-.21,5.37.21.21.62,0,.85-.16C70.44,30.34,70.5,30.2,70.51,30.16Z"/><path class="cls-14" d="M69.07,26.89c.29-.68.29-1.3.71-1.71,1-.41,1,1,1,1.86,0-1,0-2.48-.84-2.48-1.67-.21-.63,2.27-1.67,3.22A3.43,3.43,0,0,1,69.07,26.89Z"/></g><g class="cls-15"><path class="cls-12" d="M17,41.57c1.06-.28,2.73-1.31,1.69-2.14-1.46-1-5.21-.83-5,1.24,0,1.45,1.88,1.45,3.15,1Z"/><path class="cls-13" d="M17.29,41.3c.6-.42,2.47-1.25,1.22-2.28-1.67-1-5.42-.41-4.59,2.07.42,1.24,2.09.21,3.21.3Z"/><path class="cls-14" d="M14.27,40c1.12-1.21,3.62-1.41,4.66.24.83-1.24-1-1.86-1.88-1.86-1.67-.21-3.33.62-3.45,2.21A2.21,2.21,0,0,1,14.27,40Z"/></g><path class="cls-16" d="M10,42.36a14.79,14.79,0,0,0-.85-3.79c-.2-.61-.41-1.22-.6-1.82-1.07-2.93-.81-6-.57-9,0-.6.09-1.18.13-1.77a16.24,16.24,0,0,1,2.42-9.43q.5-.81,1.07-1.57a24.55,24.55,0,0,1,9.14-8.84c.61-.32,1.24-.6,1.89-.86a16,16,0,0,1,5.77-1.68c.65-.07,1.3-.1,2-.12,2.09-.06,4.2-.11,6.3-.14l2.12,0c3.31.48,7.78-.26,11.81-.21a22.93,22.93,0,0,1,2.35.14,11.87,11.87,0,0,1,1.85.37C62.09,5.18,65,11.86,67.95,17.84c.33.66.65,1.32,1,2a6.16,6.16,0,0,1,1.47,5c-.21,1.86-1.25,3.72-3.13,3.92-3.34.41-6.46-.41-9.79-.61l-2.34-.16a32.85,32.85,0,0,0-6.37.17,9.86,9.86,0,0,0-2,.51q-1,.28-1.95.64c-.75.25-1.45.5-2.13.75l-1.9.76c-2.73,1.11-5.5,2.27-8.17,3.39l-1,.43-1,.43-3.83,1.6-1.3.56c-.64.27-1.28.54-1.94.79-4,2.09-8.56,1.47-12.35,3.72C10.73,41.91,10.34,42.14,10,42.36Z"/><path class="cls-17" d="M11.37,15.59A21.2,21.2,0,0,1,20,6.92a17.65,17.65,0,0,1,1.85-.83,21.63,21.63,0,0,1,5.57-1.72c.63-.11,1.27-.19,1.91-.25,2.14-.21,4.27-.33,6.4-.38l2.13,0c3.54.4,8-.34,12.09-.34.81,0,1.61,0,2.38.1a11.07,11.07,0,0,1,1.52.17A11.58,11.58,0,0,1,55.34,4C63.08,5.41,65,12.74,68,18.66c.34.66.68,1.3,1.07,1.93a16.74,16.74,0,0,1,2.16,4.59,16.86,16.86,0,0,0-2.16-4.59,18,18,0,0,1-1.15-1.87C64.82,12.94,63.74,5.57,56.3,3.85a12.65,12.65,0,0,0-1.82-.61,14.53,14.53,0,0,0-2.15-.36c-4.46-.43-9.75.73-14,.28l-2,0c-2,0-4,.09-6,.16-.68,0-1.35.07-2,.14a15.73,15.73,0,0,0-5.84,1.79,19.08,19.08,0,0,0-1.76.87A27.56,27.56,0,0,0,12,14.48c-.38.49-.74,1-1.07,1.48A18.11,18.11,0,0,0,10,17.54a5.27,5.27,0,0,0,1-1.14A5,5,0,0,0,11.37,15.59Z"/><path class="cls-6" d="M73.14,31.26c0-.3,0-.51.18-.51a5.47,5.47,0,0,0-.6,1.65,12.72,12.72,0,0,1-.43,1.66c-.38,2.1-.79,4.17-1.29,6.2q-.25,1-.53,2c-.39,1.81-.72,3.68-1.14,5.53-.14.62-.28,1.23-.44,1.84-1.19,3.6-2.44,7.53-5.77,9.8,3.33-2.27,5-6,6.12-9.71.19-.61.37-1.22.55-1.84.52-1.85,1-3.71,1.62-5.47q.3-1,.56-1.93a32.15,32.15,0,0,0,1-6.11,11.79,11.79,0,0,0,.26-1.66A14.4,14.4,0,0,0,73.14,31.26Z"/><path class="cls-7" d="M73,34.24a2.7,2.7,0,0,0,.16-2.45,7.35,7.35,0,0,1-.22,1.77c-.43,2.07-.85,4.12-1.33,6.12q-.24,1-.5,2c-.51,1.75-.93,3.6-1.39,5.46-.16.62-.32,1.23-.49,1.85-1.08,3.69-2.54,7.61-5.66,10.09,3.13-2.27,5-6,5.92-9.62.22-.72.42-1.45.61-2.18.39-1.46.75-2.92,1.17-4.31q.26-.87.48-1.75a35.31,35.31,0,0,0,.9-5.41C72.73,35.26,72.85,34.75,73,34.24Z"/><path class="cls-18" d="M7.61,17.53c1.32,5,7.78,6.42,11.18,10,.55.42,1.08.86,1.59,1.32a20.52,20.52,0,0,1,1.47,1.46q-.62-.78-1.28-1.49c-.44-.48-.89-.95-1.35-1.4C16.43,23.12,8.72,21,8.64,15.61Z"/><path class="cls-10" d="M7.8,17.17c.5,0,.5-.45.5-.66.21,5.78,7.71,7.44,10.95,11.1.47.41.93.83,1.36,1.28a16.32,16.32,0,0,1,1.24,1.45,12.35,12.35,0,0,0-.7-1.2c-.25-.39-.53-.76-.81-1.12-3.07-4.7-10.58-6.56-11.51-12.76Z"/><path class="cls-19" d="M37.59,51.48C33.1,51.48,26.9,49.66,22.91,41l-.18-.4a9.91,9.91,0,0,0-.53-1.07,1.73,1.73,0,0,1-.17-.37,16.65,16.65,0,0,1-.61-2.41,14.77,14.77,0,0,1-.2-2.87,16,16,0,0,1,.06-3.16,17.28,17.28,0,0,1,.36-1.91c.09-.4.19-.81.25-1.22.87-5.49,6.07-10.42,7.6-10.82A2.23,2.23,0,0,1,30,16.7c1.56,0,2.49,1.8,2.91,2.87.86,2.24.33,3.42-.28,4l-.08.08a9.81,9.81,0,0,0-1.62,1.8c-1.45,2.08-2.66,6.06-2.08,8.44,0,0,0,.1,0,.14a13,13,0,0,0,.64,2.42,14.4,14.4,0,0,0,.89,2,14.57,14.57,0,0,0,1.18,1.81A8,8,0,0,0,38,43a9.88,9.88,0,0,0,3.46-.6,5.45,5.45,0,0,0,1.71-1.05,6.66,6.66,0,0,0,1.16-1.29,7.83,7.83,0,0,0,.79-1.52A19,19,0,0,0,46,36.07a2.84,2.84,0,0,1-.67.08,3,3,0,0,1-1-.17l-.16-.06c-3.78-1.74-3.52-14.1-3.35-15.71.11-1,.34-3.12,2-3.47l.2,0,.39,0c4.37,0,11,6.38,12.92,8.92a5.53,5.53,0,0,1,.78,4.87,4.21,4.21,0,0,1-2.8,2.9l-.07,0a18,18,0,0,1-.42,5.24c-.13.65-.32,1.39-.55,2.13s-.45,1.38-.73,2.09l0,.12a9.7,9.7,0,0,1-.71,1.22,6.24,6.24,0,0,0-.48.82C50.24,47.59,44.19,51.48,37.59,51.48Z"/><path class="cls-2" d="M37.87,50.81c-4.49,0-10.69-1.82-14.69-10.48l-.18-.4a9.93,9.93,0,0,0-.53-1.07,1.87,1.87,0,0,1-.17-.37,16.48,16.48,0,0,1-.6-2.41,14.75,14.75,0,0,1-.2-2.87A15.92,15.92,0,0,1,21.55,30a17.11,17.11,0,0,1,.36-1.91c.09-.4.18-.81.25-1.22.87-5.49,6.07-10.42,7.6-10.82a2.27,2.27,0,0,1,.49-.06c1.56,0,2.49,1.8,2.9,2.87.87,2.24.33,3.42-.28,4l-.08.08a9.8,9.8,0,0,0-1.62,1.8c-1.45,2.08-2.66,6.06-2.08,8.44l0,.14a13.12,13.12,0,0,0,.64,2.42,14.38,14.38,0,0,0,.89,2,14.22,14.22,0,0,0,1.18,1.81,8,8,0,0,0,6.48,2.77,9.91,9.91,0,0,0,3.45-.6,5.45,5.45,0,0,0,1.71-1.05,6.7,6.7,0,0,0,1.16-1.29,7.94,7.94,0,0,0,.8-1.52,19,19,0,0,0,.83-2.47,2.81,2.81,0,0,1-.67.08,2.94,2.94,0,0,1-1-.17l-.16-.06c-3.78-1.74-3.52-14.1-3.34-15.71.11-1,.33-3.12,2-3.47l.2,0,.39,0c4.37,0,11,6.38,12.92,8.92a5.53,5.53,0,0,1,.78,4.87,4.21,4.21,0,0,1-2.8,2.9l-.07,0A18,18,0,0,1,54.14,38c-.13.65-.32,1.39-.55,2.13s-.45,1.38-.73,2.09l-.05.12a9.86,9.86,0,0,1-.71,1.22,6.27,6.27,0,0,0-.48.82C50.52,46.92,44.46,50.81,37.87,50.81Z"/><path class="cls-20" d="M24.75,39.56a16.15,16.15,0,0,0-.81-1.66,15.09,15.09,0,0,1-.54-2.14,13.12,13.12,0,0,1-.17-2.61,14,14,0,0,1,0-2.9c.11-1,.43-2,.6-3,.79-4.94,5.58-9.17,6.31-9.36s2.2,3.09,1.49,3.78a11.58,11.58,0,0,0-1.92,2.13c-1.64,2.36-3.09,6.9-2.35,9.93a14.86,14.86,0,0,0,.73,2.76,16.35,16.35,0,0,0,2.33,4.25c2.54,3.41,8,4.22,11.89,2.74A7.13,7.13,0,0,0,44.6,42,8.41,8.41,0,0,0,46,40.43a9.52,9.52,0,0,0,1-1.88c1.79-4.46,1.23-5.81.66-8.72-.56,1.45-.84,4.36-2.53,3.78-2.53-1.16-3.09-15.48-1.68-15.77,3.37-.29,9.83,5.6,11.8,8.21,1.12,1.45.84,4.36-1.12,4.94-1.12.29-1.5-2.66-2.62-2.08,1.69,2.33,1.5,6.15.92,8.64-.14.67-.31,1.35-.52,2s-.43,1.32-.68,2-.89,1.35-1.21,2.09C48.63,46.88,32.24,55.8,24.75,39.56Z"/></g></g></g></svg>