<svg xmlns="http://www.w3.org/2000/svg" xmlns:xlink="http://www.w3.org/1999/xlink" viewBox="0 0 153.34 102.22"><defs><style>.cls-1{fill:#f7941e;stroke:#feffa5;}.cls-2{fill:url(#linear-gradient);}.cls-3{fill:none;stroke:#000d2e;}</style><linearGradient id="linear-gradient" x1="1.34" y1="38.66" x2="152.07" y2="38.66" gradientUnits="userSpaceOnUse"><stop offset="0" stop-color="#00f1c9"/><stop offset="1" stop-color="#b2ff55"/></linearGradient></defs><title>Asset 1</title><g id="Layer_2" data-name="Layer 2"><g id="Layer_1-2" data-name="Layer 1"><path class="cls-2" d="M28.78,5.34a1.48,1.48,0,0,1,1.34.77A5.15,5.15,0,0,1,30.76,8a15.18,15.18,0,0,1,.2,2.2q0,1.13,0,1.8,0,2.22,0,6.53t-.13,9.61q-.08,5.29-.18,11.08t-.17,11.08q-.07,5.29-.1,9.57t0,6.5q0,1.09-.1,2.23a9.7,9.7,0,0,1-.4,2.1A4.33,4.33,0,0,1,29,72.23a1.81,1.81,0,0,1-1.43.62h-1q-.76,0-1.65,0t-1.71,0h-1a1,1,0,0,1-.9-.62,5.19,5.19,0,0,1-.47-1.69,18.92,18.92,0,0,1-.14-2.5v-3q0-5.07,0-10V19.42A6,6,0,0,0,20.41,17q-.33-.69-1.6-.77-2.92-.15-4.49-.08A2.75,2.75,0,0,0,12,17.23q-.71,1-.82,16.18T11.1,52.8q0,1.61,0,3.83t0,4.52q0,2.31,0,4.5t0,3.89a5.17,5.17,0,0,1-.41,2.53A1.82,1.82,0,0,1,9,72.92H7.42q-.76,0-1.55-.08-1,0-1.84,0a2.27,2.27,0,0,1-1.35-.47A2.76,2.76,0,0,1,1.84,71a8.38,8.38,0,0,1-.3-2.57q-.1-3.15-.12-8.69t0-12.07q0-6.53,0-13.29V8.72A4.31,4.31,0,0,1,1.86,6.3a2.46,2.46,0,0,1,1.58-1Q4.5,5.12,28.78,5.34ZM4.55,20.74a7.77,7.77,0,0,1,.1-2.12L5,16.46a12,12,0,0,0,.18-2.38,8.18,8.18,0,0,0-.58-2.72,18.44,18.44,0,0,0-.52,5.09Q4.26,18.63,4.55,20.74ZM27.33,65a14.17,14.17,0,0,0,0-1.84,1.07,1.07,0,0,0-1-1.09.76.76,0,0,0-.71.17,1.25,1.25,0,0,0-.3.66,5.35,5.35,0,0,0-.07.92,4.58,4.58,0,0,1-.1,1,3.89,3.89,0,0,1-.07.69,4.11,4.11,0,0,0-.07.73.76.76,0,0,0,.17.53,1,1,0,0,0,.72.19,1.7,1.7,0,0,0,1-.49A2,2,0,0,0,27.33,65Z"/><path class="cls-2" d="M53.68,10.79q1.88,13.63,4,28.27t4.17,28.27q.14.83.28,1.67a6.15,6.15,0,0,1,0,1.61A3,3,0,0,1,61.73,72a2.13,2.13,0,0,1-1.37.81,13.87,13.87,0,0,1-1.93.19,6.73,6.73,0,0,1-2.12-.26,4.32,4.32,0,0,1-1.85-1.11,4.08,4.08,0,0,1-1.06-2.35q-.19-1.31-.29-1.93t-.22-1.93a9.78,9.78,0,0,0-1.44-5,4.68,4.68,0,0,0-3.73-1.8,6.5,6.5,0,0,0-2.9.43A4,4,0,0,0,43,60.51,7.17,7.17,0,0,0,42,63a34.1,34.1,0,0,0-.46,3.42,23.09,23.09,0,0,1-.61,4,3.71,3.71,0,0,1-1,1.8,2.11,2.11,0,0,1-1.42.51q-.83,0-1.92.08a4.93,4.93,0,0,1-1.76-.15,2.26,2.26,0,0,1-1.24-.88A4,4,0,0,1,33,70.13a9.2,9.2,0,0,1,0-2.57q.41-3.45,1.12-8.58t1.58-10.89q.87-5.76,1.77-11.64t1.7-10.93q.79-5,1.38-8.69T41.4,12q.41-2.48.58-3.85a4.71,4.71,0,0,1,.61-2A1.76,1.76,0,0,1,44,5.34a28.92,28.92,0,0,1,3,0h1.55c.31,0,.6,0,.85,0l.6,0a8.61,8.61,0,0,1,1.77.26,1.67,1.67,0,0,1,1,.77,4.64,4.64,0,0,1,.52,1.61Q53.44,9.1,53.68,10.79ZM43.13,37.18A36,36,0,0,1,44.36,27a28.51,28.51,0,0,0,.84-7q-1,4.54-1.75,8.92t-1.22,8.77c0,.2,0,.38,0,.54s.16.18.43.06.44-.33.46-.53A2.53,2.53,0,0,0,43.13,37.18Zm4.24,12.28q.51,0,1,0a1.77,1.77,0,0,0,1-.34,1.81,1.81,0,0,0,.61-1,4.12,4.12,0,0,0,0-1.82q-.31-1.84-.55-4.56t-.52-5.26q-.28-2.53-.61-4.34t-.84-1.8q-.39,0-.76,1.8T46,36.49q-.33,2.53-.61,5.29t-.58,4.71a3.85,3.85,0,0,0,0,1.93,1.64,1.64,0,0,0,.7.9,1.55,1.55,0,0,0,.94.19A7.84,7.84,0,0,1,47.37,49.46ZM58.23,59.93q0,1.46.1,2.89a26.38,26.38,0,0,0,.24,2.8,17.86,17.86,0,0,0,.59,2.68,10.93,10.93,0,0,0,1.1,2.48,26.65,26.65,0,0,0-.49-5.65A29.63,29.63,0,0,0,58.23,59.93Z"/><path class="cls-2" d="M89.09,5a7.27,7.27,0,0,1,3.9.73A2.38,2.38,0,0,1,94,8a14.24,14.24,0,0,1-.81,3.68,44.58,44.58,0,0,0-1.34,5.13q-.75,3.53-1.46,6.65T88.87,29.6q-.77,3-1.6,6.16t-1.82,6.72l-4.29,13q-.31,1.09-1,3.12T78.84,62.8q-.69,2.2-1.3,4.2t-.93,2.91a3.37,3.37,0,0,1-1.23,2.38,5.28,5.28,0,0,1-2.5.47q-2,0-3.14.08a8.74,8.74,0,0,1-1.65,0q-1.37-.3-1.46-1.15a8.94,8.94,0,0,1,.47-2.83Q67.58,67,68.4,64L70.28,57q1.06-3.92,2.26-8.58t2.55-9.65q-1.4-4.17-2.84-8.43t-2.83-8.15q-1.39-3.89-2.52-7T65,10.34a9.29,9.29,0,0,1-.84-4Q64.33,5,66.11,5l3.55.11a9.13,9.13,0,0,1,2.28.3,2.75,2.75,0,0,1,1.43,1,7.88,7.88,0,0,1,1,2q.49,1.28,1.13,3.38t1.67,5.18q.14.38.54,1.54L78.62,21q.47,1.35.88,2.5T80.08,25q.34-1.54.83-3.74t1-4.34q.47-2.14.84-3.94t.52-2.67A6.94,6.94,0,0,1,85,6.41,5.54,5.54,0,0,1,89.09,5ZM66.16,6.43a1.65,1.65,0,0,0-.63.09.63.63,0,0,0-.31.26,1.15,1.15,0,0,0-.13.39c0,.15-.05.29-.08.41a3.68,3.68,0,0,0,.67-.45A1.68,1.68,0,0,0,66.16,6.43ZM74.3,70.71q.77-.19.84-.64l.14-.9a53.32,53.32,0,0,1,1.4-8.09A55.91,55.91,0,0,1,79.43,53a37.78,37.78,0,0,0,2.84-11q-2.51,6.91-4.7,13.7T73.74,69.54a4.29,4.29,0,0,0-.12.84Q73.6,70.86,74.3,70.71Z"/><path class="cls-2" d="M120.59,10.49a36.51,36.51,0,0,1-1.16,13.27,19.78,19.78,0,0,1-6.19,9.4l-.1.15q1.52,2.1,2.76,3.75A22.84,22.84,0,0,1,118,40.48a19.88,19.88,0,0,1,1.46,3.92,30.34,30.34,0,0,1,.81,5.24,38.91,38.91,0,0,1,0,5.63,41.89,41.89,0,0,1-.89,6.23,27.21,27.21,0,0,1-1.81,5.5,8,8,0,0,1-2.7,3.47,16.84,16.84,0,0,1-4.77,2.18,12.67,12.67,0,0,1-4.59.41,9,9,0,0,1-4-1.37,8.21,8.21,0,0,1-2.88-3.25,25.32,25.32,0,0,1-2-5.11,16,16,0,0,1-.55-5.71,3.23,3.23,0,0,1,.67-2,3.71,3.71,0,0,1,1.31-.92,15.74,15.74,0,0,1,1.58-.54,4,4,0,0,0,1.47-.77.31.31,0,0,1,.28-.15.31.31,0,0,0,.28-.15q1.57-1.24,2.43-.62t1.06,3.62a16.73,16.73,0,0,0,.25,2.33,6.51,6.51,0,0,0,.61,1.9,2.5,2.5,0,0,0,1.08,1.11,2.32,2.32,0,0,0,1.71,0q.75-.22,1.34-1.65a15.23,15.23,0,0,0,.9-3.3,27.57,27.57,0,0,0,.36-3.85,15,15,0,0,0-.24-3.36,18.26,18.26,0,0,0-1.25-3.87,11.46,11.46,0,0,0-1.61-2.53,13.27,13.27,0,0,0-2-1.88q-1.11-.84-2.38-2a2.73,2.73,0,0,1-.76-1.58,9.93,9.93,0,0,1-.16-2.5,14,14,0,0,1,.45-2.8,9,9,0,0,1,1.12-2.59q.29-.45.81-1.18l1.08-1.54q.57-.81,1-1.54a8.12,8.12,0,0,0,.71-1.33q1.45-3.34.53-5.11a4.28,4.28,0,0,0-3.44-2.14q4.62-.22,2.7,0a11.41,11.41,0,0,1-3.81-.11,3.27,3.27,0,0,1-2.64-2.27,17.86,17.86,0,0,1-.42-6.25,6.27,6.27,0,0,1,.35-2,3.17,3.17,0,0,1,.77-1.2,2.47,2.47,0,0,1,1-.58,4.2,4.2,0,0,1,1.12-.15h1.71q1.25,0,2.93,0t.39,0q-1.29,0,.61,0t3.55,0h2.73a8.76,8.76,0,0,1,2.12.21,2.06,2.06,0,0,1,1.22.81,4.47,4.47,0,0,1,.61,1.84Q120.45,8.42,120.59,10.49Zm-13.17,24a5.78,5.78,0,0,0,.11-2.16,4.13,4.13,0,0,0-1.1-2,3.85,3.85,0,0,0,0,2.12A9.45,9.45,0,0,0,107.42,34.48Zm11.2-22.38a18.88,18.88,0,0,0-1-2.83,3.8,3.8,0,0,0-1.08-1.5,1.76,1.76,0,0,0-1.41-.28,6.06,6.06,0,0,0-1.9.79l2.56,1.82Z"/><path class="cls-2" d="M143.52,10.79q1.88,13.63,4,28.27t4.17,28.27q.14.83.28,1.67a6.15,6.15,0,0,1,0,1.61,3,3,0,0,1-.47,1.35,2.13,2.13,0,0,1-1.37.81,13.87,13.87,0,0,1-1.93.19,6.73,6.73,0,0,1-2.12-.26,4.32,4.32,0,0,1-1.85-1.11,4.08,4.08,0,0,1-1.06-2.35q-.19-1.31-.29-1.93t-.22-1.93a9.78,9.78,0,0,0-1.44-5,4.68,4.68,0,0,0-3.73-1.8,6.5,6.5,0,0,0-2.9.43,4,4,0,0,0-1.81,1.54,7.17,7.17,0,0,0-1,2.53,34.1,34.1,0,0,0-.46,3.42,23.09,23.09,0,0,1-.61,4,3.71,3.71,0,0,1-1,1.8,2.11,2.11,0,0,1-1.42.51q-.83,0-1.92.08a4.93,4.93,0,0,1-1.76-.15,2.26,2.26,0,0,1-1.24-.88,4,4,0,0,1-.64-1.69,9.2,9.2,0,0,1,0-2.57Q123.31,64.1,124,59t1.58-10.89q.87-5.76,1.77-11.64t1.7-10.93q.79-5,1.38-8.69t.78-4.88q.41-2.48.58-3.85a4.71,4.71,0,0,1,.61-2,1.76,1.76,0,0,1,1.41-.73,28.92,28.92,0,0,1,3,0h1.55c.31,0,.6,0,.85,0l.6,0a8.61,8.61,0,0,1,1.77.26,1.67,1.67,0,0,1,1,.77,4.64,4.64,0,0,1,.52,1.61Q143.28,9.1,143.52,10.79ZM133,37.18A36,36,0,0,1,134.2,27a28.51,28.51,0,0,0,.84-7q-1,4.54-1.75,8.92t-1.22,8.77c0,.2,0,.38,0,.54s.16.18.43.06.44-.33.46-.53A2.53,2.53,0,0,0,133,37.18Zm4.24,12.28q.51,0,1,0a1.77,1.77,0,0,0,1-.34,1.81,1.81,0,0,0,.61-1,4.12,4.12,0,0,0,0-1.82q-.31-1.84-.55-4.56t-.52-5.26q-.28-2.53-.61-4.34t-.84-1.8q-.39,0-.76,1.8t-.7,4.34q-.33,2.53-.61,5.29t-.58,4.71a3.85,3.85,0,0,0,0,1.93,1.64,1.64,0,0,0,.7.9,1.55,1.55,0,0,0,.94.19A7.84,7.84,0,0,1,137.21,49.46Zm10.86,10.48q0,1.46.1,2.89a26.38,26.38,0,0,0,.24,2.8A17.86,17.86,0,0,0,149,68.3a10.93,10.93,0,0,0,1.1,2.48,26.65,26.65,0,0,0-.49-5.65A29.63,29.63,0,0,0,148.07,59.93Z"/></g></g></svg>