<svg xmlns="http://www.w3.org/2000/svg" xmlns:xlink="http://www.w3.org/1999/xlink" viewBox="0 0 289.65 207.17"><defs><style>.cls-1{isolation:isolate;}.cls-2,.cls-9{fill:#664538;}.cls-3{fill:#89624d;}.cls-4{fill:#7e5843;}.cls-11,.cls-12,.cls-13,.cls-5,.cls-6{fill:#684536;}.cls-5{opacity:0.65;}.cls-17,.cls-6{opacity:0.29;}.cls-13,.cls-6{mix-blend-mode:multiply;}.cls-17,.cls-7{fill:#b89e82;}.cls-7{opacity:0.25;}.cls-8{fill:#7b523b;}.cls-9{opacity:0.59;}.cls-10,.cls-15{opacity:0.66;}.cls-10{fill:url(#linear-gradient);}.cls-11{opacity:0.85;}.cls-11,.cls-16{mix-blend-mode:screen;}.cls-12{opacity:0.95;}.cls-13{opacity:0.33;}.cls-14{opacity:0.74;}.cls-15{fill:url(#linear-gradient-2);}.cls-16{opacity:0.35;fill:url(#linear-gradient-3);}.cls-18,.cls-19,.cls-22,.cls-23,.cls-24{opacity:0.31;}.cls-18,.cls-19,.cls-20,.cls-21,.cls-22,.cls-23,.cls-24{mix-blend-mode:color-dodge;}.cls-18{fill:url(#linear-gradient-4);}.cls-19{fill:url(#linear-gradient-5);}.cls-20{fill:url(#linear-gradient-6);}.cls-21{fill:url(#linear-gradient-7);}.cls-22{fill:url(#linear-gradient-8);}.cls-23{fill:url(#linear-gradient-9);}.cls-24{fill:url(#linear-gradient-10);}</style><linearGradient id="linear-gradient" x1="148.09" y1="-222.93" x2="148.09" y2="226.32" gradientUnits="userSpaceOnUse"><stop offset="0" stop-color="#ac8f73"/><stop offset="0.99" stop-color="#6a3722"/></linearGradient><linearGradient id="linear-gradient-2" x1="70.93" y1="-39.94" x2="194.35" y2="202.4" xlink:href="#linear-gradient"/><linearGradient id="linear-gradient-3" x1="87.81" y1="-49.68" x2="211.23" y2="192.67" xlink:href="#linear-gradient"/><linearGradient id="linear-gradient-4" x1="155.69" y1="66.16" x2="155.69" y2="66.16" xlink:href="#linear-gradient"/><linearGradient id="linear-gradient-5" x1="155.1" y1="70.72" x2="155.1" y2="70.72" xlink:href="#linear-gradient"/><linearGradient id="linear-gradient-6" x1="136.02" y1="35.86" x2="136.02" y2="35.86" xlink:href="#linear-gradient"/><linearGradient id="linear-gradient-7" x1="149.48" y1="35.33" x2="149.48" y2="35.33" xlink:href="#linear-gradient"/><linearGradient id="linear-gradient-8" x1="114.12" y1="70.58" x2="114.12" y2="70.58" xlink:href="#linear-gradient"/><linearGradient id="linear-gradient-9" x1="115.27" y1="62.24" x2="115.27" y2="62.24" xlink:href="#linear-gradient"/><linearGradient id="linear-gradient-10" x1="114.29" y1="85.36" x2="114.29" y2="85.36" xlink:href="#linear-gradient"/></defs><title>Asset 3</title><g class="cls-1"><g id="Layer_2" data-name="Layer 2"><g id="Layer_1-2" data-name="Layer 1"><path class="cls-2" d="M171,203c-1.82-.09-3.66-.09-5.39-.09H118.17c-.91,0-1.87-.06-2.85-.06-4.79,0-9.65.43-14.79.89-4.69.41-9.54.85-14.5.94-1.9,0-3.44,0-4.61,0-1.8,0-2.77,0-2.77,0a5.14,5.14,0,0,1-1.36-.21C61.93,199.9,56.88,188.27,52,177c-2.42-5.57-4.71-10.83-8.15-15-.05-.07-.06-.07-13.26-18.32l-.05-.08c-3.32-5.1-8.08-9.74-12.69-14.22-7-6.8-14.21-13.82-16.9-22.72C-3,96,6.15,88.4,14.22,81.69c3.63-3,7.37-6.13,9.62-9.28l.13-.17c1.13-1.4,2.21-2.87,3.25-4.3L47.56,39.83l.15-.19c3.25-3.86,5.16-8.94,7-13.84,3.18-8.45,6.78-18,18.18-22.33l.08,0A51.09,51.09,0,0,1,89.72.91a153.71,153.71,0,0,1,19.15,1.63,152,152,0,0,0,18.86,1.61c1.23,0,2.44,0,3.59-.1h40.25c4.9,0,10.11-1,15.15-2C191.94,1,197.33,0,202.61,0a29.58,29.58,0,0,1,11.78,2.22c12.43,5.67,17.52,16,22.43,26,2.64,5.35,5.36,10.87,9.12,15.38l.15.18,2.91,4,14.57,20.14,3.26,4.48c2.37,3.37,6.16,6.51,9.82,9.55,6.35,5.26,12.36,10.24,13,17,.64,11.73-8,20.7-16.43,29.37a109.61,109.61,0,0,0-10.26,11.62l-2.71,3.75-17.14,23.68c-2.93,3.88-4.69,8.85-6.4,13.66-3.21,9.08-6.85,19.36-19.17,23.8a36.38,36.38,0,0,1-13.61,2.34"/><path class="cls-3" d="M78.74,201.4c-20.67-6.2-20.67-28.06-31.42-41.21l-3.22-4.45-6.5-9L34.18,142C25.7,129,9.1,119.71,5,105.8,0,92.56,19.89,84.61,27.44,74.05c1.18-1.45,2.27-2.95,3.39-4.47L48.3,45.42l2.85-3.94c9.4-11.18,7.74-29.06,23.51-35,17.43-6,37.35,2,56.95.89H170.4c14.65.44,29.59-7.51,42-2.21,17.43,7.95,19.09,27.15,30.06,40.28l2.91,4L260,69.58l3.26,4.48c6.46,9.22,21.4,15.84,22.23,25.11.83,15.23-16.6,25.83-26.15,39.1L256.62,142l-13.78,19-3.36,4.64c-8.78,11.61-7.12,30.16-23.72,36.12-13.28,5.3-29.88-1.32-44.52-2.12-1.91-.09-3.78-.1-5.67-.1H118.4c-10.54-.43-21.33,1.56-32.48,1.78C81.33,201.45,78.74,201.4,78.74,201.4Z"/><path class="cls-4" d="M203.89,201.87c-5.52,0-11.54-1.06-17.36-2.09a129.62,129.62,0,0,0-15.13-2.06c-2.06-.1-4-.11-5.84-.11h-47.1c-1,0-2.07-.06-3.14-.06-5.16,0-10.42.47-15.52.92-4.55.41-9.26.83-13.93.92-1.8,0-3.31,0-4.45,0H79.23c-12.13-3.82-16.42-13.68-21-24.12-2.44-5.6-5-11.41-8.82-16.15L36.37,141.06c-3.6-5.52-8.58-10.37-13.39-15-6.83-6.65-13.29-12.93-15.6-20.68l0-.11C4.42,97.48,11.51,91.59,19,85.35c3.88-3.23,7.9-6.57,10.56-10.27C30.79,73.58,32,72,33,70.58l20.3-28c3.77-4.52,5.82-10,7.8-15.22,3-8.09,5.92-15.73,14.62-19a43.1,43.1,0,0,1,14-2.07,145.28,145.28,0,0,1,18.1,1.56,158.69,158.69,0,0,0,19.91,1.68c1.35,0,2.69,0,4-.1h38.65l1.23,0c5.7,0,11.3-1.09,16.72-2.15,5.05-1,9.82-1.91,14.3-1.91a21.71,21.71,0,0,1,8.66,1.59c10.23,4.66,14.67,13.69,19.38,23.25,2.75,5.58,5.6,11.36,9.74,16.33l2.86,4,14.57,20.14,3.27,4.49c2.73,3.9,6.82,7.29,10.78,10.56,5.49,4.55,10.69,8.86,11.12,13.69.52,9.64-7.05,17.47-15.07,25.75a114.14,114.14,0,0,0-10.76,12.22l-2.7,3.73-17.14,23.69c-3.33,4.4-5.21,9.72-7,14.87-3.1,8.75-6,17-15.55,20.43l-.09,0A28.66,28.66,0,0,1,203.89,201.87Z"/><path class="cls-5" d="M86.85,199.36c.28-1.07.56-2.14.82-3.19,1.09-4.43,2.25-9-1-13.06-2.53-3.14-5.83-5.81-8.43-8.89A43.89,43.89,0,0,0,67,180.07a60.74,60.74,0,0,0-4.88,3.66c3.63,7,8.29,12.93,17.06,15.68h2.19c1.14,0,2.65,0,4.45,0Z"/><path class="cls-6" d="M82,197.93C75.72,193.81,63,183,62.17,183.73c3.63,7,8.29,12.93,17.06,15.68h2.19l3.15,0C83.72,199,82.88,198.47,82,197.93Z"/><path class="cls-7" d="M7.37,105.34a26.33,26.33,0,0,0,3,6.42,82.73,82.73,0,0,1,17.06-1.66A106,106,0,0,1,15.08,88.68C9.3,93.76,4.94,98.87,7.34,105.23Z"/><path class="cls-5" d="M53.8,143.67c-6.8-11-16.17-20.43-24.25-30.76A2.37,2.37,0,0,1,29,113a78.31,78.31,0,0,0-16.9,1.38A102.46,102.46,0,0,0,23,126c4.81,4.68,9.79,9.52,13.39,15l13.08,18.08c3.86,4.74,6.38,10.55,8.82,16.15.58,1.34,1.16,2.68,1.75,4,1-.8,2.11-1.57,3.17-2.28a60,60,0,0,1,10.67-5.93C64.95,163.2,59.64,153.1,53.8,143.67Z"/><path class="cls-6" d="M42,141.55a102.27,102.27,0,0,0-13.35-15.85c-4.18-3.87-9-7.89-14.9-10.05-.23,0-.45-.05-.68-.08A117.08,117.08,0,0,0,23,126c4.81,4.68,9.79,9.52,13.39,15l13.08,18.08c3.86,4.74,6.38,10.55,8.82,16.15l.63,1.45C56.49,164.28,49.83,152.47,42,141.55Z"/><path class="cls-5" d="M223.22,194.1c3.33-4,5.17-9.16,7.06-14.52l1-2.74a104.79,104.79,0,0,1-16.68,9l-.06,0C218.09,187.64,221.08,191.14,223.22,194.1Z"/><path class="cls-6" d="M202,190.28a130.7,130.7,0,0,1-24,4.53c-14,1.33-28.37,1.18-42.17-1.41-14.31-2.7-28.11-7-42.56-9.21a15.17,15.17,0,0,1,.69,8.56c-.35,2-.94,4.16-1.55,6.34,2.51-.18,5-.4,7.45-.61,5.1-.45,10.37-.92,15.52-.92,1.07,0,2.13,0,3.14.06h47.1c1.83,0,3.79,0,5.84.11a129.62,129.62,0,0,1,15.13,2.06c4.17.74,8.45,1.48,12.56,1.85C199.32,198.14,199.81,193.71,202,190.28Z"/><path class="cls-8" d="M210.15,187.59l-.47.16a1.78,1.78,0,0,1-.92.66c-5.19,1.73-6.08,8.57-6.17,13.43.44,0,.88,0,1.31,0A28.66,28.66,0,0,0,214.64,200l.09,0a19.55,19.55,0,0,0,6.1-3.48C218.47,193.08,214.58,187.9,210.15,187.59Z"/><path class="cls-6" d="M27.32,90.77a139.9,139.9,0,0,1,13-12.49c4.73-4.16,9.86-8.24,13.9-12.87,2.87-3.29,3.67-6.88,4.14-10.83,1-8.28.85-16.65,1.78-24.93-1.74,4.51-3.7,9-6.91,12.88L33,70.58c-1,1.4-2.19,3-3.41,4.5-2.58,3.59-6.45,6.85-10.24,10q.6,1.49,1.27,3,1.65,3.65,3.56,7.2A19.64,19.64,0,0,1,27.32,90.77Z"/><path class="cls-9" d="M215.1,13.51c3.79,7.71,5.29,16.06,6.6,24.23.62,3.89,1.12,7.73,2.64,11.48a54,54,0,0,0,13.23,18.83,57.19,57.19,0,0,0,22.9,13.69q1.94.6,3.89,1.16c-1.57-2.47-3.3-4.87-4.85-7.24a187.5,187.5,0,0,1-9.89-16.08c-.19-.36-.36-.72-.54-1.08l-5.84-8.07-2.86-4c-4.14-5-7-10.74-9.74-16.33-4.71-9.56-9.15-18.58-19.38-23.25-.42-.18-.85-.34-1.29-.49A23.52,23.52,0,0,1,215.1,13.51Z"/><path class="cls-10" d="M232.51,167.17c0-1.25.07-2.5.18-3.73,1-11.67,6-22.59,13.42-32.75,4.23-5.81,8.94-11.39,13.61-17,1.67-2,3.47-4.07,5.08-6.23,1.35-3.51,2.15-7.29,1.29-10.89a58.37,58.37,0,0,0-3-8.51,32,32,0,0,0-4.73-4l-1.16-.37A55.42,55.42,0,0,1,237.71,72.5c-9.56-8.47-17-18.62-18.84-30.06-.19-1.16-.37-2.32-.56-3.48-1.28-5.26-2.42-10.57-4.2-15.72s-4.81-9.7-6.38-14.76a9.85,9.85,0,0,0-8.94-2.85,2.23,2.23,0,0,1-.93,0c-3.07.35-6.25,1-9.56,1.61-5.42,1.05-11,2.15-16.72,2.15l-1.23,0H131.7c-1.28.07-2.61.1-4,.1a158.69,158.69,0,0,1-19.91-1.68,145.28,145.28,0,0,0-18.1-1.56,43.1,43.1,0,0,0-14,2.07,18.59,18.59,0,0,0-8.29,6.15,42.56,42.56,0,0,0-3.18,11.88c-1.47,10.15-.95,20.42-2.57,30.55-.55,3.44-1.42,6.7-3.95,9.59A117.32,117.32,0,0,1,46.66,77C42,81.11,37.18,85.16,32.89,89.53c-.65.66-1.92,1.84-3.12,3.16-.5,10,6.69,19.33,13.23,27.45,3.66,4.55,7.52,9,10.82,13.75,3.48,5,6.48,10.14,10.12,15a119.41,119.41,0,0,0,12.93,14.93c4.63,4.47,9.22,9.22,14.84,12.94a49.73,49.73,0,0,0,7.4,4c12.35,2.29,24.28,5.84,36.63,8.17a146.81,146.81,0,0,0,40.9,1.66c12.65-1.2,25.18-4,36.33-9,5.8-2.6,12.14-5.58,16.75-9.45A10.73,10.73,0,0,0,232.51,167.17Z"/><path class="cls-11" d="M201.43,154.94c6.85-7.73,3.54-19.65-8.92-23.62-7.47-2.65-15.77.66-19.09,6.62-2.49,4,0,8.61,2.49,11.92,4.91,5.88,15.84,9.25,25.1,5.8A1.76,1.76,0,0,0,201.43,154.94Z"/><path class="cls-12" d="M201.43,152.6c6.85-7.73,3.54-19.65-8.92-23.62-7.47-2.65-15.77.66-19.09,6.62-2.49,4,0,8.61,2.49,11.92,5,6,15.77,9.27,25.1,5.8A1.76,1.76,0,0,0,201.43,152.6Z"/><path class="cls-13" d="M175.6,140.77c3.31-6,11.61-9.27,19.08-6.62a18.54,18.54,0,0,1,10.16,7.27c-.92-5.23-5.06-10.15-12.22-12.44-7.47-2.65-15.77.66-19.09,6.62-2,3.23-.76,6.89,1.12,9.92A6.85,6.85,0,0,1,175.6,140.77Z"/><path class="cls-11" d="M151.68,178.47c3.67-4.14,1.89-10.52-4.77-12.65a8.62,8.62,0,0,0-10.22,3.55c-1.33,2.12,0,4.61,1.33,6.38,2.63,3.14,8.48,4.95,13.43,3.11A1,1,0,0,0,151.68,178.47Z"/><path class="cls-12" d="M151.68,177.21c3.67-4.14,1.89-10.52-4.77-12.65a8.61,8.61,0,0,0-10.22,3.55c-1.33,2.13,0,4.6,1.33,6.38,2.66,3.19,8.44,5,13.43,3.11A.92.92,0,0,0,151.68,177.21Z"/><path class="cls-13" d="M137.84,170.88a8.61,8.61,0,0,1,10.22-3.55,9.92,9.92,0,0,1,5.44,3.89c-.49-2.8-2.71-5.43-6.54-6.66a8.61,8.61,0,0,0-10.22,3.55c-1.08,1.72-.41,3.69.59,5.31A3.68,3.68,0,0,1,137.84,170.88Z"/><path class="cls-11" d="M222.22,153.12c2.38-2.69,1.23-6.83-3.1-8.22a5.6,5.6,0,0,0-6.64,2.3c-.86,1.38,0,3,.87,4.15a8.28,8.28,0,0,0,8.73,2A.59.59,0,0,0,222.22,153.12Z"/><path class="cls-12" d="M222.22,152.31c2.38-2.69,1.23-6.84-3.1-8.22a5.6,5.6,0,0,0-6.64,2.3c-.86,1.38,0,3,.87,4.15a8.21,8.21,0,0,0,8.73,2A.62.62,0,0,0,222.22,152.31Z"/><path class="cls-13" d="M213.23,148.2a5.6,5.6,0,0,1,6.64-2.3,6.44,6.44,0,0,1,3.53,2.53,5.8,5.8,0,0,0-4.25-4.33,5.6,5.6,0,0,0-6.64,2.3,3.22,3.22,0,0,0,.39,3.46A2.42,2.42,0,0,1,213.23,148.2Z"/><g class="cls-14"><path class="cls-11" d="M84,28.92c2.39-2.69,1.23-6.83-3.1-8.22A5.6,5.6,0,0,0,74.23,23c-.87,1.38,0,3,.87,4.15a8.27,8.27,0,0,0,8.73,2A.58.58,0,0,0,84,28.92Z"/><path class="cls-12" d="M84,28.11c2.39-2.69,1.23-6.84-3.1-8.21a5.6,5.6,0,0,0-6.64,2.3c-.87,1.38,0,3,.87,4.14a8.2,8.2,0,0,0,8.73,2A.59.59,0,0,0,84,28.11Z"/><path class="cls-13" d="M75,24a5.59,5.59,0,0,1,6.64-2.31,6.44,6.44,0,0,1,3.53,2.53,5.77,5.77,0,0,0-4.24-4.33,5.6,5.6,0,0,0-6.64,2.3,3.23,3.23,0,0,0,.39,3.46A2.37,2.37,0,0,1,75,24Z"/></g><g class="cls-14"><path class="cls-11" d="M221.65,82.75c3.94-4.44,2-11.3-5.13-13.58a9.25,9.25,0,0,0-11,3.8c-1.43,2.29,0,5,1.43,6.86,2.83,3.38,9.11,5.32,14.43,3.33A1,1,0,0,0,221.65,82.75Z"/><path class="cls-12" d="M221.65,81.4c3.94-4.45,2-11.3-5.13-13.58a9.26,9.26,0,0,0-11,3.81c-1.43,2.28,0,5,1.43,6.86,2.86,3.43,9.07,5.33,14.43,3.33A1,1,0,0,0,221.65,81.4Z"/><path class="cls-13" d="M206.79,74.6a9.25,9.25,0,0,1,11-3.81A10.68,10.68,0,0,1,223.6,75c-.53-3-2.91-5.84-7-7.15a9.26,9.26,0,0,0-11,3.81c-1.17,1.86-.44,4,.64,5.7A3.93,3.93,0,0,1,206.79,74.6Z"/></g><g class="cls-14"><path class="cls-11" d="M69.15,128.93c2.11-2.38,1.09-6.06-2.75-7.29a5,5,0,0,0-5.9,2c-.77,1.23,0,2.66.77,3.68A7.35,7.35,0,0,0,69,129.16.57.57,0,0,0,69.15,128.93Z"/><path class="cls-12" d="M69.15,128.21c2.11-2.39,1.09-6.07-2.75-7.29a5,5,0,0,0-5.9,2c-.77,1.23,0,2.65.77,3.68A7.28,7.28,0,0,0,69,128.43.55.55,0,0,0,69.15,128.21Z"/><path class="cls-13" d="M61.17,124.56a5,5,0,0,1,5.89-2,5.72,5.72,0,0,1,3.13,2.24,5.13,5.13,0,0,0-3.77-3.84,5,5,0,0,0-5.89,2,2.86,2.86,0,0,0,.35,3.06A2.1,2.1,0,0,1,61.17,124.56Z"/></g><path class="cls-15" d="M52.91,130c-1.86-2.44-3.82-4.84-5.74-7.18-.93-1.13-1.86-2.27-2.78-3.41-7-8.68-13.24-17.24-13-26.28.71-.76,1.43-1.46,2-2l.78-.77c3.45-3.52,7.32-6.9,11.06-10.16l2.62-2.3.56-.49A113.65,113.65,0,0,0,59.07,67.2C61.87,64,62.76,60.41,63.3,57a146.87,146.87,0,0,0,1.38-16c.24-4.81.49-9.77,1.19-14.61A41.87,41.87,0,0,1,68.9,15a17.11,17.11,0,0,1,7.51-5.54A41.11,41.11,0,0,1,89.72,7.54a144,144,0,0,1,17.84,1.54,159.83,159.83,0,0,0,20.17,1.69c1.37,0,2.73,0,4-.1h38.59l1.23,0c5.89,0,11.6-1.11,17.12-2.19,3-.59,6.13-1.19,9.09-1.55a4.27,4.27,0,0,0,.61,0,4.43,4.43,0,0,0,.74-.06,9.26,9.26,0,0,1,1.55-.13,7.93,7.93,0,0,1,5.53,2.31,58.33,58.33,0,0,0,3.29,7.64,61.84,61.84,0,0,1,3,6.84C214,27.77,215,32.16,216,36.4q.33,1.39.66,2.76l.55,3.45c1.64,10.05,7.51,19.85,17.48,29.16-2.65.52-5.15,1-7.61,1.57C201,79,175.79,86.86,154.58,93.77c-11.71,3.82-23.55,7.82-35,11.69l-4.36,1.47-4.48,1.5C91.41,114.88,71.45,121.55,52.91,130Z"/><path class="cls-16" d="M63.3,59.7a147.28,147.28,0,0,0,1.38-16c.24-4.8.49-9.77,1.19-14.61a41.83,41.83,0,0,1,3-11.44,17.1,17.1,0,0,1,7.51-5.55,41,41,0,0,1,13.32-1.94,144,144,0,0,1,17.84,1.54,159.82,159.82,0,0,0,20.17,1.69c1.37,0,2.73,0,4-.11h38.59l1.23,0c5.89,0,11.6-1.11,17.12-2.18,3-.59,6.13-1.2,9.09-1.55a4.3,4.3,0,0,0,.61,0,4.45,4.45,0,0,0,.74-.06,9.26,9.26,0,0,1,1.55-.14,7.94,7.94,0,0,1,5.53,2.31,58.27,58.27,0,0,0,3.29,7.64,61.89,61.89,0,0,1,3,6.85C214,30.45,215,34.84,216,39.08q.33,1.38.67,2.76l.55,3.44c1.46,8.92,16.38,25.56,17.48,25.35-10-9.31-15.84-19.11-17.48-29.16L216.67,38c-.23-.92-.45-1.84-.67-2.76-1-4.24-2-8.63-3.49-12.82a61.87,61.87,0,0,0-3-6.85A58.3,58.3,0,0,1,206.23,8a7.94,7.94,0,0,0-5.53-2.31,9.26,9.26,0,0,0-1.55.13,4.46,4.46,0,0,1-.74.07,4.28,4.28,0,0,1-.61,0c-3,.35-6.08,1-9.09,1.55-5.52,1.08-11.23,2.19-17.12,2.19l-1.23,0H131.76c-1.3.07-2.66.1-4,.1a160.56,160.56,0,0,1-20.17-1.69A143.28,143.28,0,0,0,89.72,6.4,41.11,41.11,0,0,0,76.41,8.34a17.12,17.12,0,0,0-7.51,5.55,41.82,41.82,0,0,0-3,11.44c-.7,4.83-.95,9.81-1.19,14.61a147.38,147.38,0,0,1-1.38,16c-.54,3.39-1.43,7-4.23,10.18C55.88,69.71,62.76,63.09,63.3,59.7Z"/><path class="cls-5" d="M276.83,89.88c-1.93-.72-3.89-1.37-5.87-2a17.62,17.62,0,0,1,2,8.38c-.3,6.47-4.25,11.76-8.64,17s-9,10.63-13.15,16.13c-8.62,11.47-14.71,23.54-15.07,37,.39-.59.79-1.18,1.22-1.75L254.46,141l2.7-3.73a114.14,114.14,0,0,1,10.76-12.22c8-8.28,15.59-16.11,15.07-25.75C282.69,96,280.16,92.94,276.83,89.88Z"/><path class="cls-6" d="M283,99.32c-.26-2.89-2.23-5.6-4.95-8.28a19,19,0,0,1-.74,11.29c-3,8.26-8.5,15.37-14.24,22.53-8,9.94-14.91,20.59-22,31l-.21.31c-1,2.43-1.93,4.88-2.69,7.35L254.46,141l2.7-3.73a114.14,114.14,0,0,1,10.76-12.22C275.94,116.79,283.51,109,283,99.32Z"/><path class="cls-17" d="M34.49,57.94h4.79s.29,1.61,2.92,5.66,3.64,9.12,8.39,10.34a24.9,24.9,0,0,1,8.8,4.76L73.87,92.56S68.74,83.65,65,77.66c-3.43-5.48-7.53-7.2-10.25-7.71s-6.6-1-7.15-4.71S42.2,53.92,42.2,53.92L39,51.77Z"/><path class="cls-9" d="M35.29,56.8h4.79s.3,1.6,2.92,5.66,3.64,9.11,8.39,10.34a25,25,0,0,1,8.8,4.75l13.69,15A149.52,149.52,0,0,0,65.78,76.5c-3.43-5.48-7.52-7.2-10.25-7.71s-6.6-1-7.15-4.71S43,52.76,43,52.76l-3.24-2.15Z"/><path class="cls-2" d="M190.54,203.84"/><path class="cls-3" d="M190.73,205.09"/><path class="cls-9" d="M201.44,205.09c2.85.16,5.39.42,7.45.67"/><path class="cls-18" d="M155.69,66.16"/><path class="cls-19" d="M155.1,70.72"/><path class="cls-13" d="M158.06,119a12,12,0,0,0,.26-2.44m-22.22,13.8c-.44-.1-.87-.22-1.29-.35m-5,17.45,1.38.07M156,148.71l2.43.11M149.12,128a20.28,20.28,0,0,1-1.89,1"/><path class="cls-20" d="M136,35.86"/><path class="cls-21" d="M149.48,35.33"/><path class="cls-22" d="M114.12,70.58"/><path class="cls-23" d="M115.27,62.24"/><path class="cls-24" d="M114.29,85.36"/></g></g></g></svg>