<?xml version="1.0" encoding="utf-8"?>
<!-- Generator: Adobe Illustrator 20.1.0, SVG Export Plug-In . SVG Version: 6.00 Build 0)  -->
<svg version="1.1" id="Layer_1" xmlns="http://www.w3.org/2000/svg" xmlns:xlink="http://www.w3.org/1999/xlink" x="0px" y="0px"
	 viewBox="0 0 644 644" style="enable-background:new 0 0 644 644;" xml:space="preserve">
<style type="text/css">
	.st0{fill:#111111;}
	.st1{fill:url(#SVGID_1_);stroke:url(#SVGID_2_);stroke-miterlimit:10;}
	.st2{fill:url(#SVGID_3_);stroke:url(#SVGID_4_);stroke-miterlimit:10;}
	.st3{fill:url(#SVGID_5_);stroke:url(#SVGID_6_);stroke-miterlimit:10;}
	.st4{fill:url(#SVGID_7_);stroke:url(#SVGID_8_);stroke-miterlimit:10;}
	.st5{fill:url(#SVGID_9_);stroke:url(#SVGID_10_);stroke-miterlimit:10;}
	.st6{fill:url(#SVGID_11_);stroke:url(#SVGID_12_);stroke-miterlimit:10;}
	.st7{fill:url(#SVGID_13_);stroke:url(#SVGID_14_);stroke-miterlimit:10;}
	.st8{fill:url(#SVGID_15_);stroke:url(#SVGID_16_);stroke-miterlimit:10;}
</style>
<circle class="st0" cx="323.7" cy="321.7" r="311.2"/>
<g>
	<linearGradient id="SVGID_1_" gradientUnits="userSpaceOnUse" x1="54.644" y1="204.834" x2="178.216" y2="204.834">
		<stop  offset="0" style="stop-color:#FBFF94"/>
		<stop  offset="1" style="stop-color:#FF3F45"/>
	</linearGradient>
	<linearGradient id="SVGID_2_" gradientUnits="userSpaceOnUse" x1="233.2826" y1="265.4889" x2="99.6183" y2="136.4108">
		<stop  offset="0" style="stop-color:#FFFFFF"/>
		<stop  offset="1" style="stop-color:#000000"/>
	</linearGradient>
	<path class="st1" d="M178.2,72.1C119.3,106.3,79,154.9,54.6,216c36,40.2,70.7,82.3,107.4,121.6C167,248.7,173.2,160.8,178.2,72.1z"
		/>
	<linearGradient id="SVGID_3_" gradientUnits="userSpaceOnUse" x1="423.629" y1="296.766" x2="612.0266" y2="296.766">
		<stop  offset="0" style="stop-color:#FBFF94"/>
		<stop  offset="1" style="stop-color:#FF3F45"/>
	</linearGradient>
	<linearGradient id="SVGID_4_" gradientUnits="userSpaceOnUse" x1="647.1883" y1="353.4079" x2="450.791" y2="163.7493">
		<stop  offset="0" style="stop-color:#FFFFFF"/>
		<stop  offset="1" style="stop-color:#000000"/>
	</linearGradient>
	<path class="st2" d="M611.1,293.9c-0.7-5.7-1.4-11.3-2.1-17c-5-26.8-11.8-51.4-21.5-72.3c-54.9-3.3-109.1-7.4-163.8-11
		c59.2,68.7,118,137.9,177.5,206.2C610.2,369,614,334.1,611.1,293.9z"/>
	<linearGradient id="SVGID_5_" gradientUnits="userSpaceOnUse" x1="34.5647" y1="346.3535" x2="224.729" y2="346.3535">
		<stop  offset="0" style="stop-color:#FBFF94"/>
		<stop  offset="1" style="stop-color:#FF3F45"/>
	</linearGradient>
	<linearGradient id="SVGID_6_" gradientUnits="userSpaceOnUse" x1="196.193" y1="480.0733" x2="-0.6163" y2="290.0168">
		<stop  offset="0" style="stop-color:#FFFFFF"/>
		<stop  offset="1" style="stop-color:#000000"/>
	</linearGradient>
	<path class="st3" d="M35.5,348.7c0.7,5.7,1.4,11.3,2.1,17c5,26.8,11.8,51.4,21.5,72.3c55.6,3.1,110.3,7.2,165.5,10.8
		C165,380.7,104.6,310,45.1,244C36.4,274.6,32.6,309,35.5,348.7z"/>
	<linearGradient id="SVGID_7_" gradientUnits="userSpaceOnUse" x1="466.772" y1="436.237" x2="591.589" y2="436.237">
		<stop  offset="0" style="stop-color:#FBFF94"/>
		<stop  offset="1" style="stop-color:#FF3F45"/>
	</linearGradient>
	<linearGradient id="SVGID_8_" gradientUnits="userSpaceOnUse" x1="546.7548" y1="506.3118" x2="409.6816" y2="373.9417">
		<stop  offset="0" style="stop-color:#FFFFFF"/>
		<stop  offset="1" style="stop-color:#000000"/>
	</linearGradient>
	<path class="st4" d="M482.2,300.5c-5.6,90.1-10.7,180.6-15.4,271.4c58.9-34.4,99.7-82.8,124.8-143.5
		C555.7,385.1,518.7,343.1,482.2,300.5z"/>
	<linearGradient id="SVGID_9_" gradientUnits="userSpaceOnUse" x1="71.938" y1="527.258" x2="343.626" y2="527.258">
		<stop  offset="0" style="stop-color:#FBFF94"/>
		<stop  offset="1" style="stop-color:#FF3F45"/>
	</linearGradient>
	<linearGradient id="SVGID_10_" gradientUnits="userSpaceOnUse" x1="279.0194" y1="549.0865" x2="128.5652" y2="403.7946">
		<stop  offset="0" style="stop-color:#FFFFFF"/>
		<stop  offset="1" style="stop-color:#000000"/>
	</linearGradient>
	<path class="st5" d="M73.1,463.5c-0.4,0-0.8,0.1-1.2,0.1c35.1,60.5,84.9,102,147.4,127.3c36.7-31.1,73.8-63.6,110-95.8
		c4.9-4.4,9.3-8.6,14.3-13.7C253,476.1,163.2,469.6,73.1,463.5z"/>
	<linearGradient id="SVGID_11_" gradientUnits="userSpaceOnUse" x1="194.186" y1="125.6696" x2="395.066" y2="125.6696">
		<stop  offset="0" style="stop-color:#FBFF94"/>
		<stop  offset="1" style="stop-color:#FF3F45"/>
	</linearGradient>
	<linearGradient id="SVGID_12_" gradientUnits="userSpaceOnUse" x1="302.5536" y1="137.9819" x2="211.7781" y2="50.321">
		<stop  offset="0" style="stop-color:#FFFFFF"/>
		<stop  offset="1" style="stop-color:#000000"/>
	</linearGradient>
	<path class="st6" d="M295.9,33.5c-5.7,0.7-11.3,1.4-17,2.1c-27.7,5.4-53.9,12-74.5,23c-3.8,53.1-6.5,107.1-10.3,160.1
		c66.9-59.2,134.9-117.5,200.9-177.4C365.6,34.1,333.2,30.7,295.9,33.5z"/>
	<linearGradient id="SVGID_13_" gradientUnits="userSpaceOnUse" x1="248.458" y1="516.795" x2="449.997" y2="516.795">
		<stop  offset="0" style="stop-color:#FBFF94"/>
		<stop  offset="1" style="stop-color:#FF3F45"/>
	</linearGradient>
	<linearGradient id="SVGID_14_" gradientUnits="userSpaceOnUse" x1="433.5672" y1="593.1912" x2="340.9952" y2="503.7955">
		<stop  offset="0" style="stop-color:#FFFFFF"/>
		<stop  offset="1" style="stop-color:#000000"/>
	</linearGradient>
	<path class="st7" d="M367.6,606.9c27.3-5.2,52.7-11.9,73.4-22.3c2.5-54.1,5.8-107.6,9-161.1c-67.3,58.8-135.5,117-201.5,176.9
		c30.3,7.8,63.6,11.6,102.2,8.6C356.3,608.4,362,607.6,367.6,606.9z"/>
	<linearGradient id="SVGID_15_" gradientUnits="userSpaceOnUse" x1="302.847" y1="114.7315" x2="574.282" y2="114.7315">
		<stop  offset="0" style="stop-color:#FBFF94"/>
		<stop  offset="1" style="stop-color:#FF3F45"/>
	</linearGradient>
	<linearGradient id="SVGID_16_" gradientUnits="userSpaceOnUse" x1="518.0974" y1="238.1044" x2="367.1294" y2="92.3163">
		<stop  offset="0" style="stop-color:#FFFFFF"/>
		<stop  offset="1" style="stop-color:#000000"/>
	</linearGradient>
	<path class="st8" d="M505.9,96.9c-4.5-3.5-9-7-13.6-10.4c-22.6-15.3-44.9-27.8-66.5-35.5c-40.9,36.7-82,72.4-123,108.7
		c90.5,6.1,181,13,271.4,18.7C558.7,150.3,536.6,123.1,505.9,96.9z"/>
</g>
</svg>
